<?xml version="1.0" encoding="utf-8" standalone="no"?>
<!DOCTYPE svg PUBLIC "-//W3C//DTD SVG 1.1//EN"
  "http://www.w3.org/Graphics/SVG/1.1/DTD/svg11.dtd">
<!-- Created with matplotlib (http://matplotlib.org/) -->
<svg height="720pt" version="1.1" viewBox="0 0 936 720" width="936pt" xmlns="http://www.w3.org/2000/svg" xmlns:xlink="http://www.w3.org/1999/xlink">
 <defs>
  <style type="text/css">
*{stroke-linecap:butt;stroke-linejoin:round;}
  </style>
 </defs>
 <g id="figure_1">
  <g id="patch_1">
   <path d="M 0 720 
L 936 720 
L 936 0 
L 0 0 
z
" style="fill:#f0f0f0;"/>
  </g>
  <g id="axes_1">
   <g id="patch_2">
    <path d="M 74.88 351.490909 
L 445.025455 351.490909 
L 445.025455 86.4 
L 74.88 86.4 
z
" style="fill:#f0f0f0;"/>
   </g>
   <g id="matplotlib.axis_1">
    <g id="xtick_1">
     <g id="line2d_1">
      <path clip-path="url(#p15a89bfb05)" d="M 91.704793 351.490909 
L 91.704793 86.4 
" style="fill:none;stroke:#cbcbcb;"/>
     </g>
     <g id="line2d_2"/>
     <g id="text_1">
      <!-- 0 -->
      <defs>
       <path d="M 31.78125 66.40625 
Q 24.171875 66.40625 20.328125 58.90625 
Q 16.5 51.421875 16.5 36.375 
Q 16.5 21.390625 20.328125 13.890625 
Q 24.171875 6.390625 31.78125 6.390625 
Q 39.453125 6.390625 43.28125 13.890625 
Q 47.125 21.390625 47.125 36.375 
Q 47.125 51.421875 43.28125 58.90625 
Q 39.453125 66.40625 31.78125 66.40625 
z
M 31.78125 74.21875 
Q 44.046875 74.21875 50.515625 64.515625 
Q 56.984375 54.828125 56.984375 36.375 
Q 56.984375 17.96875 50.515625 8.265625 
Q 44.046875 -1.421875 31.78125 -1.421875 
Q 19.53125 -1.421875 13.0625 8.265625 
Q 6.59375 17.96875 6.59375 36.375 
Q 6.59375 54.828125 13.0625 64.515625 
Q 19.53125 74.21875 31.78125 74.21875 
z
" id="DejaVuSans-30"/>
      </defs>
      <g transform="translate(87.251043 365.628722)scale(0.14 -0.14)">
       <use xlink:href="#DejaVuSans-30"/>
      </g>
     </g>
    </g>
    <g id="xtick_2">
     <g id="line2d_3">
      <path clip-path="url(#p15a89bfb05)" d="M 159.138835 351.490909 
L 159.138835 86.4 
" style="fill:none;stroke:#cbcbcb;"/>
     </g>
     <g id="line2d_4"/>
     <g id="text_2">
      <!-- 1 -->
      <defs>
       <path d="M 12.40625 8.296875 
L 28.515625 8.296875 
L 28.515625 63.921875 
L 10.984375 60.40625 
L 10.984375 69.390625 
L 28.421875 72.90625 
L 38.28125 72.90625 
L 38.28125 8.296875 
L 54.390625 8.296875 
L 54.390625 0 
L 12.40625 0 
z
" id="DejaVuSans-31"/>
      </defs>
      <g transform="translate(154.685085 365.628722)scale(0.14 -0.14)">
       <use xlink:href="#DejaVuSans-31"/>
      </g>
     </g>
    </g>
    <g id="xtick_3">
     <g id="line2d_5">
      <path clip-path="url(#p15a89bfb05)" d="M 226.572877 351.490909 
L 226.572877 86.4 
" style="fill:none;stroke:#cbcbcb;"/>
     </g>
     <g id="line2d_6"/>
     <g id="text_3">
      <!-- 2 -->
      <defs>
       <path d="M 19.1875 8.296875 
L 53.609375 8.296875 
L 53.609375 0 
L 7.328125 0 
L 7.328125 8.296875 
Q 12.9375 14.109375 22.625 23.890625 
Q 32.328125 33.6875 34.8125 36.53125 
Q 39.546875 41.84375 41.421875 45.53125 
Q 43.3125 49.21875 43.3125 52.78125 
Q 43.3125 58.59375 39.234375 62.25 
Q 35.15625 65.921875 28.609375 65.921875 
Q 23.96875 65.921875 18.8125 64.3125 
Q 13.671875 62.703125 7.8125 59.421875 
L 7.8125 69.390625 
Q 13.765625 71.78125 18.9375 73 
Q 24.125 74.21875 28.421875 74.21875 
Q 39.75 74.21875 46.484375 68.546875 
Q 53.21875 62.890625 53.21875 53.421875 
Q 53.21875 48.921875 51.53125 44.890625 
Q 49.859375 40.875 45.40625 35.40625 
Q 44.1875 33.984375 37.640625 27.21875 
Q 31.109375 20.453125 19.1875 8.296875 
z
" id="DejaVuSans-32"/>
      </defs>
      <g transform="translate(222.119127 365.628722)scale(0.14 -0.14)">
       <use xlink:href="#DejaVuSans-32"/>
      </g>
     </g>
    </g>
    <g id="xtick_4">
     <g id="line2d_7">
      <path clip-path="url(#p15a89bfb05)" d="M 294.006918 351.490909 
L 294.006918 86.4 
" style="fill:none;stroke:#cbcbcb;"/>
     </g>
     <g id="line2d_8"/>
     <g id="text_4">
      <!-- 3 -->
      <defs>
       <path d="M 40.578125 39.3125 
Q 47.65625 37.796875 51.625 33 
Q 55.609375 28.21875 55.609375 21.1875 
Q 55.609375 10.40625 48.1875 4.484375 
Q 40.765625 -1.421875 27.09375 -1.421875 
Q 22.515625 -1.421875 17.65625 -0.515625 
Q 12.796875 0.390625 7.625 2.203125 
L 7.625 11.71875 
Q 11.71875 9.328125 16.59375 8.109375 
Q 21.484375 6.890625 26.8125 6.890625 
Q 36.078125 6.890625 40.9375 10.546875 
Q 45.796875 14.203125 45.796875 21.1875 
Q 45.796875 27.640625 41.28125 31.265625 
Q 36.765625 34.90625 28.71875 34.90625 
L 20.21875 34.90625 
L 20.21875 43.015625 
L 29.109375 43.015625 
Q 36.375 43.015625 40.234375 45.921875 
Q 44.09375 48.828125 44.09375 54.296875 
Q 44.09375 59.90625 40.109375 62.90625 
Q 36.140625 65.921875 28.71875 65.921875 
Q 24.65625 65.921875 20.015625 65.03125 
Q 15.375 64.15625 9.8125 62.3125 
L 9.8125 71.09375 
Q 15.4375 72.65625 20.34375 73.4375 
Q 25.25 74.21875 29.59375 74.21875 
Q 40.828125 74.21875 47.359375 69.109375 
Q 53.90625 64.015625 53.90625 55.328125 
Q 53.90625 49.265625 50.4375 45.09375 
Q 46.96875 40.921875 40.578125 39.3125 
z
" id="DejaVuSans-33"/>
      </defs>
      <g transform="translate(289.553168 365.628722)scale(0.14 -0.14)">
       <use xlink:href="#DejaVuSans-33"/>
      </g>
     </g>
    </g>
    <g id="xtick_5">
     <g id="line2d_9">
      <path clip-path="url(#p15a89bfb05)" d="M 361.44096 351.490909 
L 361.44096 86.4 
" style="fill:none;stroke:#cbcbcb;"/>
     </g>
     <g id="line2d_10"/>
     <g id="text_5">
      <!-- 4 -->
      <defs>
       <path d="M 37.796875 64.3125 
L 12.890625 25.390625 
L 37.796875 25.390625 
z
M 35.203125 72.90625 
L 47.609375 72.90625 
L 47.609375 25.390625 
L 58.015625 25.390625 
L 58.015625 17.1875 
L 47.609375 17.1875 
L 47.609375 0 
L 37.796875 0 
L 37.796875 17.1875 
L 4.890625 17.1875 
L 4.890625 26.703125 
z
" id="DejaVuSans-34"/>
      </defs>
      <g transform="translate(356.98721 365.628722)scale(0.14 -0.14)">
       <use xlink:href="#DejaVuSans-34"/>
      </g>
     </g>
    </g>
    <g id="xtick_6">
     <g id="line2d_11">
      <path clip-path="url(#p15a89bfb05)" d="M 428.875002 351.490909 
L 428.875002 86.4 
" style="fill:none;stroke:#cbcbcb;"/>
     </g>
     <g id="line2d_12"/>
     <g id="text_6">
      <!-- 5 -->
      <defs>
       <path d="M 10.796875 72.90625 
L 49.515625 72.90625 
L 49.515625 64.59375 
L 19.828125 64.59375 
L 19.828125 46.734375 
Q 21.96875 47.46875 24.109375 47.828125 
Q 26.265625 48.1875 28.421875 48.1875 
Q 40.625 48.1875 47.75 41.5 
Q 54.890625 34.8125 54.890625 23.390625 
Q 54.890625 11.625 47.5625 5.09375 
Q 40.234375 -1.421875 26.90625 -1.421875 
Q 22.3125 -1.421875 17.546875 -0.640625 
Q 12.796875 0.140625 7.71875 1.703125 
L 7.71875 11.625 
Q 12.109375 9.234375 16.796875 8.0625 
Q 21.484375 6.890625 26.703125 6.890625 
Q 35.15625 6.890625 40.078125 11.328125 
Q 45.015625 15.765625 45.015625 23.390625 
Q 45.015625 31 40.078125 35.4375 
Q 35.15625 39.890625 26.703125 39.890625 
Q 22.75 39.890625 18.8125 39.015625 
Q 14.890625 38.140625 10.796875 36.28125 
z
" id="DejaVuSans-35"/>
      </defs>
      <g transform="translate(424.421252 365.628722)scale(0.14 -0.14)">
       <use xlink:href="#DejaVuSans-35"/>
      </g>
     </g>
    </g>
   </g>
   <g id="matplotlib.axis_2">
    <g id="ytick_1">
     <g id="line2d_13">
      <path clip-path="url(#p15a89bfb05)" d="M 74.88 320.084634 
L 445.025455 320.084634 
" style="fill:none;stroke:#cbcbcb;"/>
     </g>
     <g id="line2d_14"/>
     <g id="text_7">
      <!-- 0 -->
      <g transform="translate(62.4725 325.40354)scale(0.14 -0.14)">
       <use xlink:href="#DejaVuSans-30"/>
      </g>
     </g>
    </g>
    <g id="ytick_2">
     <g id="line2d_15">
      <path clip-path="url(#p15a89bfb05)" d="M 74.88 271.692914 
L 445.025455 271.692914 
" style="fill:none;stroke:#cbcbcb;"/>
     </g>
     <g id="line2d_16"/>
     <g id="text_8">
      <!-- 5 -->
      <g transform="translate(62.4725 277.01182)scale(0.14 -0.14)">
       <use xlink:href="#DejaVuSans-35"/>
      </g>
     </g>
    </g>
    <g id="ytick_3">
     <g id="line2d_17">
      <path clip-path="url(#p15a89bfb05)" d="M 74.88 223.301193 
L 445.025455 223.301193 
" style="fill:none;stroke:#cbcbcb;"/>
     </g>
     <g id="line2d_18"/>
     <g id="text_9">
      <!-- 10 -->
      <g transform="translate(53.565 228.6201)scale(0.14 -0.14)">
       <use xlink:href="#DejaVuSans-31"/>
       <use x="63.623047" xlink:href="#DejaVuSans-30"/>
      </g>
     </g>
    </g>
    <g id="ytick_4">
     <g id="line2d_19">
      <path clip-path="url(#p15a89bfb05)" d="M 74.88 174.909473 
L 445.025455 174.909473 
" style="fill:none;stroke:#cbcbcb;"/>
     </g>
     <g id="line2d_20"/>
     <g id="text_10">
      <!-- 15 -->
      <g transform="translate(53.565 180.228379)scale(0.14 -0.14)">
       <use xlink:href="#DejaVuSans-31"/>
       <use x="63.623047" xlink:href="#DejaVuSans-35"/>
      </g>
     </g>
    </g>
    <g id="ytick_5">
     <g id="line2d_21">
      <path clip-path="url(#p15a89bfb05)" d="M 74.88 126.517752 
L 445.025455 126.517752 
" style="fill:none;stroke:#cbcbcb;"/>
     </g>
     <g id="line2d_22"/>
     <g id="text_11">
      <!-- 20 -->
      <g transform="translate(53.565 131.836659)scale(0.14 -0.14)">
       <use xlink:href="#DejaVuSans-32"/>
       <use x="63.623047" xlink:href="#DejaVuSans-30"/>
      </g>
     </g>
    </g>
   </g>
   <g id="line2d_23">
    <path clip-path="url(#p15a89bfb05)" d="M 91.704793 339.441322 
L 99.122538 339.324214 
L 106.540283 338.97289 
L 113.958027 338.387351 
L 121.375772 337.567595 
L 128.793516 336.513623 
L 136.211261 335.225436 
L 143.629005 333.703032 
L 151.04675 331.946413 
L 158.464495 329.955577 
L 165.882239 327.730526 
L 173.299984 325.271259 
L 180.717728 322.577776 
L 188.135473 319.650076 
L 195.553218 316.488161 
L 202.970962 313.092031 
L 210.388707 309.461684 
L 217.806451 305.597121 
L 225.224196 301.498342 
L 233.316281 296.759825 
L 241.408366 291.742571 
L 249.500451 286.446581 
L 257.592536 280.871855 
L 265.684621 275.018393 
L 273.776706 268.886194 
L 281.868791 262.475259 
L 289.960876 255.785587 
L 298.052961 248.81718 
L 306.145046 241.570036 
L 314.237131 234.044155 
L 323.003556 225.576572 
L 331.769982 216.781861 
L 340.536407 207.660021 
L 349.302832 198.211054 
L 358.069258 188.434959 
L 366.835683 178.331735 
L 375.602109 167.901384 
L 384.368534 157.143904 
L 393.8093 145.193085 
L 403.250066 132.862875 
L 412.690832 120.153273 
L 422.131597 107.064281 
L 428.200661 98.449587 
L 428.200661 98.449587 
" style="fill:none;stroke:#ff0000;stroke-width:4;"/>
   </g>
   <g id="line2d_24">
    <defs>
     <path d="M 0 3 
C 0.795609 3 1.55874 2.683901 2.12132 2.12132 
C 2.683901 1.55874 3 0.795609 3 0 
C 3 -0.795609 2.683901 -1.55874 2.12132 -2.12132 
C 1.55874 -2.683901 0.795609 -3 0 -3 
C -0.795609 -3 -1.55874 -2.683901 -2.12132 -2.12132 
C -2.683901 -1.55874 -3 -0.795609 -3 0 
C -3 0.795609 -2.683901 1.55874 -2.12132 2.12132 
C -1.55874 2.683901 -0.795609 3 0 3 
z
" id="m96d8ebe243" style="stroke:#0000ff;"/>
    </defs>
    <g clip-path="url(#p15a89bfb05)">
     <use style="fill:#0000ff;stroke:#0000ff;" x="187.07093" xlink:href="#m96d8ebe243" y="320.084634"/>
    </g>
   </g>
   <g id="patch_3">
    <path d="M 74.88 351.490909 
L 74.88 86.4 
" style="fill:none;stroke:#f0f0f0;stroke-linecap:square;stroke-linejoin:miter;stroke-width:3;"/>
   </g>
   <g id="patch_4">
    <path d="M 445.025455 351.490909 
L 445.025455 86.4 
" style="fill:none;stroke:#f0f0f0;stroke-linecap:square;stroke-linejoin:miter;stroke-width:3;"/>
   </g>
   <g id="patch_5">
    <path d="M 74.88 351.490909 
L 445.025455 351.490909 
" style="fill:none;stroke:#f0f0f0;stroke-linecap:square;stroke-linejoin:miter;stroke-width:3;"/>
   </g>
   <g id="patch_6">
    <path d="M 74.88 86.4 
L 445.025455 86.4 
" style="fill:none;stroke:#f0f0f0;stroke-linecap:square;stroke-linejoin:miter;stroke-width:3;"/>
   </g>
   <g id="text_12">
    <!-- $f(x)=x^2-2$ -->
    <defs>
     <path d="M 47.796875 75.984375 
L 46.390625 68.5 
L 37.796875 68.5 
Q 32.90625 68.5 30.6875 66.578125 
Q 28.46875 64.65625 27.390625 59.515625 
L 26.421875 54.6875 
L 41.21875 54.6875 
L 39.890625 47.703125 
L 25.09375 47.703125 
L 15.828125 0 
L 6.78125 0 
L 16.109375 47.703125 
L 7.515625 47.703125 
L 8.796875 54.6875 
L 17.390625 54.6875 
L 18.109375 58.5 
Q 19.96875 68.171875 24.625 72.078125 
Q 29.296875 75.984375 39.3125 75.984375 
z
" id="DejaVuSans-Oblique-66"/>
     <path d="M 31 75.875 
Q 24.46875 64.65625 21.28125 53.65625 
Q 18.109375 42.671875 18.109375 31.390625 
Q 18.109375 20.125 21.3125 9.0625 
Q 24.515625 -2 31 -13.1875 
L 23.1875 -13.1875 
Q 15.875 -1.703125 12.234375 9.375 
Q 8.59375 20.453125 8.59375 31.390625 
Q 8.59375 42.28125 12.203125 53.3125 
Q 15.828125 64.359375 23.1875 75.875 
z
" id="DejaVuSans-28"/>
     <path d="M 60.015625 54.6875 
L 34.90625 27.875 
L 50.296875 0 
L 39.984375 0 
L 28.421875 21.6875 
L 8.296875 0 
L -2.59375 0 
L 24.3125 28.8125 
L 10.015625 54.6875 
L 20.3125 54.6875 
L 30.8125 34.90625 
L 49.125 54.6875 
z
" id="DejaVuSans-Oblique-78"/>
     <path d="M 8.015625 75.875 
L 15.828125 75.875 
Q 23.140625 64.359375 26.78125 53.3125 
Q 30.421875 42.28125 30.421875 31.390625 
Q 30.421875 20.453125 26.78125 9.375 
Q 23.140625 -1.703125 15.828125 -13.1875 
L 8.015625 -13.1875 
Q 14.5 -2 17.703125 9.0625 
Q 20.90625 20.125 20.90625 31.390625 
Q 20.90625 42.671875 17.703125 53.65625 
Q 14.5 64.65625 8.015625 75.875 
z
" id="DejaVuSans-29"/>
     <path d="M 10.59375 45.40625 
L 73.1875 45.40625 
L 73.1875 37.203125 
L 10.59375 37.203125 
z
M 10.59375 25.484375 
L 73.1875 25.484375 
L 73.1875 17.1875 
L 10.59375 17.1875 
z
" id="DejaVuSans-3d"/>
     <path d="M 10.59375 35.5 
L 73.1875 35.5 
L 73.1875 27.203125 
L 10.59375 27.203125 
z
" id="DejaVuSans-2212"/>
    </defs>
    <g style="fill:#ff0000;" transform="translate(111.894545 192.436364)scale(0.2 -0.2)">
     <use transform="translate(0 0.765625)" xlink:href="#DejaVuSans-Oblique-66"/>
     <use transform="translate(35.205078 0.765625)" xlink:href="#DejaVuSans-28"/>
     <use transform="translate(74.21875 0.765625)" xlink:href="#DejaVuSans-Oblique-78"/>
     <use transform="translate(133.398438 0.765625)" xlink:href="#DejaVuSans-29"/>
     <use transform="translate(191.894531 0.765625)" xlink:href="#DejaVuSans-3d"/>
     <use transform="translate(295.166016 0.765625)" xlink:href="#DejaVuSans-Oblique-78"/>
     <use transform="translate(358.811849 39.046875)scale(0.7)" xlink:href="#DejaVuSans-32"/>
     <use transform="translate(425.564779 0.765625)" xlink:href="#DejaVuSans-2212"/>
     <use transform="translate(528.836263 0.765625)" xlink:href="#DejaVuSans-32"/>
    </g>
   </g>
   <g id="text_13">
    <g id="patch_7">
     <path d="M 137.599236 318.698835 
L 182.427673 318.698835 
L 182.427673 297.02946 
L 137.599236 297.02946 
z
" style="fill:#f0f0f0;stroke:#f0f0f0;stroke-linejoin:miter;stroke-width:0.5;"/>
    </g>
    <!-- Root -->
    <defs>
     <path d="M 35.890625 40.578125 
Q 41.796875 40.578125 44.359375 42.765625 
Q 46.921875 44.96875 46.921875 50 
Q 46.921875 54.984375 44.359375 57.125 
Q 41.796875 59.28125 35.890625 59.28125 
L 27.984375 59.28125 
L 27.984375 40.578125 
z
M 27.984375 27.59375 
L 27.984375 0 
L 9.1875 0 
L 9.1875 72.90625 
L 37.890625 72.90625 
Q 52.296875 72.90625 59 68.0625 
Q 65.71875 63.234375 65.71875 52.78125 
Q 65.71875 45.5625 62.21875 40.921875 
Q 58.734375 36.28125 51.703125 34.078125 
Q 55.5625 33.203125 58.609375 30.09375 
Q 61.671875 27 64.796875 20.703125 
L 75 0 
L 54.984375 0 
L 46.09375 18.109375 
Q 43.40625 23.578125 40.640625 25.578125 
Q 37.890625 27.59375 33.296875 27.59375 
z
" id="DejaVuSans-Bold-52"/>
     <path d="M 34.421875 43.5 
Q 28.609375 43.5 25.5625 39.328125 
Q 22.515625 35.15625 22.515625 27.296875 
Q 22.515625 19.4375 25.5625 15.25 
Q 28.609375 11.078125 34.421875 11.078125 
Q 40.140625 11.078125 43.15625 15.25 
Q 46.1875 19.4375 46.1875 27.296875 
Q 46.1875 35.15625 43.15625 39.328125 
Q 40.140625 43.5 34.421875 43.5 
z
M 34.421875 56 
Q 48.53125 56 56.46875 48.375 
Q 64.40625 40.765625 64.40625 27.296875 
Q 64.40625 13.8125 56.46875 6.1875 
Q 48.53125 -1.421875 34.421875 -1.421875 
Q 20.265625 -1.421875 12.28125 6.1875 
Q 4.296875 13.8125 4.296875 27.296875 
Q 4.296875 40.765625 12.28125 48.375 
Q 20.265625 56 34.421875 56 
z
" id="DejaVuSans-Bold-6f"/>
     <path d="M 27.484375 70.21875 
L 27.484375 54.6875 
L 45.515625 54.6875 
L 45.515625 42.1875 
L 27.484375 42.1875 
L 27.484375 19 
Q 27.484375 15.1875 29 13.84375 
Q 30.515625 12.5 35.015625 12.5 
L 44 12.5 
L 44 0 
L 29 0 
Q 18.65625 0 14.328125 4.3125 
Q 10.015625 8.640625 10.015625 19 
L 10.015625 42.1875 
L 1.3125 42.1875 
L 1.3125 54.6875 
L 10.015625 54.6875 
L 10.015625 70.21875 
z
" id="DejaVuSans-Bold-74"/>
    </defs>
    <g style="fill:#0000ff;" transform="translate(141.659236 311.727273)scale(0.14 -0.14)">
     <use xlink:href="#DejaVuSans-Bold-52"/>
     <use x="77.001953" xlink:href="#DejaVuSans-Bold-6f"/>
     <use x="145.703125" xlink:href="#DejaVuSans-Bold-6f"/>
     <use x="214.404297" xlink:href="#DejaVuSans-Bold-74"/>
    </g>
   </g>
  </g>
  <g id="axes_2">
   <g id="patch_8">
    <path d="M 519.054545 351.490909 
L 889.2 351.490909 
L 889.2 86.4 
L 519.054545 86.4 
z
" style="fill:#f0f0f0;"/>
   </g>
   <g id="matplotlib.axis_3">
    <g id="xtick_7">
     <g id="line2d_25">
      <path clip-path="url(#pbf65cb0594)" d="M 535.879339 351.490909 
L 535.879339 86.4 
" style="fill:none;stroke:#cbcbcb;"/>
     </g>
     <g id="line2d_26"/>
     <g id="text_14">
      <!-- 0 -->
      <g transform="translate(531.425589 365.628722)scale(0.14 -0.14)">
       <use xlink:href="#DejaVuSans-30"/>
      </g>
     </g>
    </g>
    <g id="xtick_8">
     <g id="line2d_27">
      <path clip-path="url(#pbf65cb0594)" d="M 620.108592 351.490909 
L 620.108592 86.4 
" style="fill:none;stroke:#cbcbcb;"/>
     </g>
     <g id="line2d_28"/>
     <g id="text_15">
      <!-- 2 -->
      <g transform="translate(615.654842 365.628722)scale(0.14 -0.14)">
       <use xlink:href="#DejaVuSans-32"/>
      </g>
     </g>
    </g>
    <g id="xtick_9">
     <g id="line2d_29">
      <path clip-path="url(#pbf65cb0594)" d="M 704.337846 351.490909 
L 704.337846 86.4 
" style="fill:none;stroke:#cbcbcb;"/>
     </g>
     <g id="line2d_30"/>
     <g id="text_16">
      <!-- 4 -->
      <g transform="translate(699.884096 365.628722)scale(0.14 -0.14)">
       <use xlink:href="#DejaVuSans-34"/>
      </g>
     </g>
    </g>
    <g id="xtick_10">
     <g id="line2d_31">
      <path clip-path="url(#pbf65cb0594)" d="M 788.567099 351.490909 
L 788.567099 86.4 
" style="fill:none;stroke:#cbcbcb;"/>
     </g>
     <g id="line2d_32"/>
     <g id="text_17">
      <!-- 6 -->
      <defs>
       <path d="M 33.015625 40.375 
Q 26.375 40.375 22.484375 35.828125 
Q 18.609375 31.296875 18.609375 23.390625 
Q 18.609375 15.53125 22.484375 10.953125 
Q 26.375 6.390625 33.015625 6.390625 
Q 39.65625 6.390625 43.53125 10.953125 
Q 47.40625 15.53125 47.40625 23.390625 
Q 47.40625 31.296875 43.53125 35.828125 
Q 39.65625 40.375 33.015625 40.375 
z
M 52.59375 71.296875 
L 52.59375 62.3125 
Q 48.875 64.0625 45.09375 64.984375 
Q 41.3125 65.921875 37.59375 65.921875 
Q 27.828125 65.921875 22.671875 59.328125 
Q 17.53125 52.734375 16.796875 39.40625 
Q 19.671875 43.65625 24.015625 45.921875 
Q 28.375 48.1875 33.59375 48.1875 
Q 44.578125 48.1875 50.953125 41.515625 
Q 57.328125 34.859375 57.328125 23.390625 
Q 57.328125 12.15625 50.6875 5.359375 
Q 44.046875 -1.421875 33.015625 -1.421875 
Q 20.359375 -1.421875 13.671875 8.265625 
Q 6.984375 17.96875 6.984375 36.375 
Q 6.984375 53.65625 15.1875 63.9375 
Q 23.390625 74.21875 37.203125 74.21875 
Q 40.921875 74.21875 44.703125 73.484375 
Q 48.484375 72.75 52.59375 71.296875 
z
" id="DejaVuSans-36"/>
      </defs>
      <g transform="translate(784.113349 365.628722)scale(0.14 -0.14)">
       <use xlink:href="#DejaVuSans-36"/>
      </g>
     </g>
    </g>
    <g id="xtick_11">
     <g id="line2d_33">
      <path clip-path="url(#pbf65cb0594)" d="M 872.796353 351.490909 
L 872.796353 86.4 
" style="fill:none;stroke:#cbcbcb;"/>
     </g>
     <g id="line2d_34"/>
     <g id="text_18">
      <!-- 8 -->
      <defs>
       <path d="M 31.78125 34.625 
Q 24.75 34.625 20.71875 30.859375 
Q 16.703125 27.09375 16.703125 20.515625 
Q 16.703125 13.921875 20.71875 10.15625 
Q 24.75 6.390625 31.78125 6.390625 
Q 38.8125 6.390625 42.859375 10.171875 
Q 46.921875 13.96875 46.921875 20.515625 
Q 46.921875 27.09375 42.890625 30.859375 
Q 38.875 34.625 31.78125 34.625 
z
M 21.921875 38.8125 
Q 15.578125 40.375 12.03125 44.71875 
Q 8.5 49.078125 8.5 55.328125 
Q 8.5 64.0625 14.71875 69.140625 
Q 20.953125 74.21875 31.78125 74.21875 
Q 42.671875 74.21875 48.875 69.140625 
Q 55.078125 64.0625 55.078125 55.328125 
Q 55.078125 49.078125 51.53125 44.71875 
Q 48 40.375 41.703125 38.8125 
Q 48.828125 37.15625 52.796875 32.3125 
Q 56.78125 27.484375 56.78125 20.515625 
Q 56.78125 9.90625 50.3125 4.234375 
Q 43.84375 -1.421875 31.78125 -1.421875 
Q 19.734375 -1.421875 13.25 4.234375 
Q 6.78125 9.90625 6.78125 20.515625 
Q 6.78125 27.484375 10.78125 32.3125 
Q 14.796875 37.15625 21.921875 38.8125 
z
M 18.3125 54.390625 
Q 18.3125 48.734375 21.84375 45.5625 
Q 25.390625 42.390625 31.78125 42.390625 
Q 38.140625 42.390625 41.71875 45.5625 
Q 45.3125 48.734375 45.3125 54.390625 
Q 45.3125 60.0625 41.71875 63.234375 
Q 38.140625 66.40625 31.78125 66.40625 
Q 25.390625 66.40625 21.84375 63.234375 
Q 18.3125 60.0625 18.3125 54.390625 
z
" id="DejaVuSans-38"/>
      </defs>
      <g transform="translate(868.342603 365.628722)scale(0.14 -0.14)">
       <use xlink:href="#DejaVuSans-38"/>
      </g>
     </g>
    </g>
   </g>
   <g id="matplotlib.axis_4">
    <g id="ytick_6">
     <g id="line2d_35">
      <path clip-path="url(#pbf65cb0594)" d="M 519.054545 334.320425 
L 889.2 334.320425 
" style="fill:none;stroke:#cbcbcb;"/>
     </g>
     <g id="line2d_36"/>
     <g id="text_19">
      <!-- −140 -->
      <g transform="translate(477.100483 339.639331)scale(0.14 -0.14)">
       <use xlink:href="#DejaVuSans-2212"/>
       <use x="83.789062" xlink:href="#DejaVuSans-31"/>
       <use x="147.412109" xlink:href="#DejaVuSans-34"/>
       <use x="211.035156" xlink:href="#DejaVuSans-30"/>
      </g>
     </g>
    </g>
    <g id="ytick_7">
     <g id="line2d_37">
      <path clip-path="url(#pbf65cb0594)" d="M 519.054545 301.786516 
L 889.2 301.786516 
" style="fill:none;stroke:#cbcbcb;"/>
     </g>
     <g id="line2d_38"/>
     <g id="text_20">
      <!-- −120 -->
      <g transform="translate(477.100483 307.105422)scale(0.14 -0.14)">
       <use xlink:href="#DejaVuSans-2212"/>
       <use x="83.789062" xlink:href="#DejaVuSans-31"/>
       <use x="147.412109" xlink:href="#DejaVuSans-32"/>
       <use x="211.035156" xlink:href="#DejaVuSans-30"/>
      </g>
     </g>
    </g>
    <g id="ytick_8">
     <g id="line2d_39">
      <path clip-path="url(#pbf65cb0594)" d="M 519.054545 269.252607 
L 889.2 269.252607 
" style="fill:none;stroke:#cbcbcb;"/>
     </g>
     <g id="line2d_40"/>
     <g id="text_21">
      <!-- −100 -->
      <g transform="translate(477.100483 274.571514)scale(0.14 -0.14)">
       <use xlink:href="#DejaVuSans-2212"/>
       <use x="83.789062" xlink:href="#DejaVuSans-31"/>
       <use x="147.412109" xlink:href="#DejaVuSans-30"/>
       <use x="211.035156" xlink:href="#DejaVuSans-30"/>
      </g>
     </g>
    </g>
    <g id="ytick_9">
     <g id="line2d_41">
      <path clip-path="url(#pbf65cb0594)" d="M 519.054545 236.718699 
L 889.2 236.718699 
" style="fill:none;stroke:#cbcbcb;"/>
     </g>
     <g id="line2d_42"/>
     <g id="text_22">
      <!-- −80 -->
      <g transform="translate(486.007983 242.037605)scale(0.14 -0.14)">
       <use xlink:href="#DejaVuSans-2212"/>
       <use x="83.789062" xlink:href="#DejaVuSans-38"/>
       <use x="147.412109" xlink:href="#DejaVuSans-30"/>
      </g>
     </g>
    </g>
    <g id="ytick_10">
     <g id="line2d_43">
      <path clip-path="url(#pbf65cb0594)" d="M 519.054545 204.18479 
L 889.2 204.18479 
" style="fill:none;stroke:#cbcbcb;"/>
     </g>
     <g id="line2d_44"/>
     <g id="text_23">
      <!-- −60 -->
      <g transform="translate(486.007983 209.503696)scale(0.14 -0.14)">
       <use xlink:href="#DejaVuSans-2212"/>
       <use x="83.789062" xlink:href="#DejaVuSans-36"/>
       <use x="147.412109" xlink:href="#DejaVuSans-30"/>
      </g>
     </g>
    </g>
    <g id="ytick_11">
     <g id="line2d_45">
      <path clip-path="url(#pbf65cb0594)" d="M 519.054545 171.650881 
L 889.2 171.650881 
" style="fill:none;stroke:#cbcbcb;"/>
     </g>
     <g id="line2d_46"/>
     <g id="text_24">
      <!-- −40 -->
      <g transform="translate(486.007983 176.969788)scale(0.14 -0.14)">
       <use xlink:href="#DejaVuSans-2212"/>
       <use x="83.789062" xlink:href="#DejaVuSans-34"/>
       <use x="147.412109" xlink:href="#DejaVuSans-30"/>
      </g>
     </g>
    </g>
    <g id="ytick_12">
     <g id="line2d_47">
      <path clip-path="url(#pbf65cb0594)" d="M 519.054545 139.116973 
L 889.2 139.116973 
" style="fill:none;stroke:#cbcbcb;"/>
     </g>
     <g id="line2d_48"/>
     <g id="text_25">
      <!-- −20 -->
      <g transform="translate(486.007983 144.435879)scale(0.14 -0.14)">
       <use xlink:href="#DejaVuSans-2212"/>
       <use x="83.789062" xlink:href="#DejaVuSans-32"/>
       <use x="147.412109" xlink:href="#DejaVuSans-30"/>
      </g>
     </g>
    </g>
    <g id="ytick_13">
     <g id="line2d_49">
      <path clip-path="url(#pbf65cb0594)" d="M 519.054545 106.583064 
L 889.2 106.583064 
" style="fill:none;stroke:#cbcbcb;"/>
     </g>
     <g id="line2d_50"/>
     <g id="text_26">
      <!-- 0 -->
      <g transform="translate(506.647045 111.90197)scale(0.14 -0.14)">
       <use xlink:href="#DejaVuSans-30"/>
      </g>
     </g>
    </g>
   </g>
   <g id="line2d_51">
    <path clip-path="url(#pbf65cb0594)" d="M 535.879339 98.449587 
L 539.248509 98.552862 
L 542.617679 98.859358 
L 546.407996 99.440854 
L 550.198312 100.266111 
L 553.988628 101.328013 
L 557.778945 102.619445 
L 561.569261 104.133292 
L 565.780724 106.067546 
L 569.992187 108.257843 
L 574.203649 110.694421 
L 578.836258 113.647464 
L 583.468867 116.873707 
L 588.101476 120.360159 
L 593.155231 124.445065 
L 598.208986 128.807315 
L 603.683888 133.826502 
L 609.579936 139.549064 
L 615.89713 146.015788 
L 622.214324 152.797278 
L 629.37381 160.821892 
L 636.954443 169.659806 
L 645.377368 179.823399 
L 655.484879 192.390754 
L 668.540413 209.014652 
L 699.705237 248.84918 
L 709.812747 261.320845 
L 718.235673 271.3775 
L 725.816306 280.098028 
L 732.975792 287.993388 
L 739.292986 294.645995 
L 745.61018 300.969928 
L 751.506228 306.546669 
L 756.981129 311.419603 
L 762.034885 315.637579 
L 767.08864 319.569308 
L 771.721249 322.90753 
L 776.353858 325.978062 
L 780.986467 328.767915 
L 785.197929 331.049648 
L 789.409392 333.078918 
L 793.620855 334.845965 
L 797.411171 336.204039 
L 801.201487 337.334692 
L 804.991804 338.230807 
L 808.78212 338.885271 
L 812.572437 339.290967 
L 815.941607 339.436992 
L 819.310777 339.375841 
L 822.679947 339.102517 
L 826.049117 338.612023 
L 829.418287 337.899361 
L 832.787457 336.959535 
L 836.156628 335.787546 
L 839.525798 334.378399 
L 842.894968 332.727095 
L 846.264138 330.828637 
L 849.633308 328.678028 
L 853.002478 326.270272 
L 856.371648 323.60037 
L 859.740819 320.663326 
L 863.109989 317.454142 
L 866.479159 313.967822 
L 870.269475 309.708224 
L 872.375207 307.184869 
L 872.375207 307.184869 
" style="fill:none;stroke:#008000;stroke-width:4;"/>
   </g>
   <g id="line2d_52">
    <defs>
     <path d="M 0 3 
C 0.795609 3 1.55874 2.683901 2.12132 2.12132 
C 2.683901 1.55874 3 0.795609 3 0 
C 3 -0.795609 2.683901 -1.55874 2.12132 -2.12132 
C 1.55874 -2.683901 0.795609 -3 0 -3 
C -0.795609 -3 -1.55874 -2.683901 -2.12132 -2.12132 
C -2.683901 -1.55874 -3 -0.795609 -3 0 
C -3 0.795609 -2.683901 1.55874 -2.12132 2.12132 
C -1.55874 2.683901 -0.795609 3 0 3 
z
" id="m9a3df22e96" style="stroke:#bf00bf;"/>
    </defs>
    <g clip-path="url(#pbf65cb0594)">
     <use style="fill:#bf00bf;stroke:#bf00bf;" x="566.816891" xlink:href="#m9a3df22e96" y="106.583064"/>
    </g>
   </g>
   <g id="patch_9">
    <path d="M 519.054545 351.490909 
L 519.054545 86.4 
" style="fill:none;stroke:#f0f0f0;stroke-linecap:square;stroke-linejoin:miter;stroke-width:3;"/>
   </g>
   <g id="patch_10">
    <path d="M 889.2 351.490909 
L 889.2 86.4 
" style="fill:none;stroke:#f0f0f0;stroke-linecap:square;stroke-linejoin:miter;stroke-width:3;"/>
   </g>
   <g id="patch_11">
    <path d="M 519.054545 351.490909 
L 889.2 351.490909 
" style="fill:none;stroke:#f0f0f0;stroke-linecap:square;stroke-linejoin:miter;stroke-width:3;"/>
   </g>
   <g id="patch_12">
    <path d="M 519.054545 86.4 
L 889.2 86.4 
" style="fill:none;stroke:#f0f0f0;stroke-linecap:square;stroke-linejoin:miter;stroke-width:3;"/>
   </g>
   <g id="text_27">
    <!-- $f(x)=x^3-10x^2+5$ -->
    <defs>
     <path d="M 46 62.703125 
L 46 35.5 
L 73.1875 35.5 
L 73.1875 27.203125 
L 46 27.203125 
L 46 0 
L 37.796875 0 
L 37.796875 27.203125 
L 10.59375 27.203125 
L 10.59375 35.5 
L 37.796875 35.5 
L 37.796875 62.703125 
z
" id="DejaVuSans-2b"/>
    </defs>
    <g style="fill:#008000;" transform="translate(667.112727 139.418182)scale(0.2 -0.2)">
     <use transform="translate(0 0.765625)" xlink:href="#DejaVuSans-Oblique-66"/>
     <use transform="translate(35.205078 0.765625)" xlink:href="#DejaVuSans-28"/>
     <use transform="translate(74.21875 0.765625)" xlink:href="#DejaVuSans-Oblique-78"/>
     <use transform="translate(133.398438 0.765625)" xlink:href="#DejaVuSans-29"/>
     <use transform="translate(191.894531 0.765625)" xlink:href="#DejaVuSans-3d"/>
     <use transform="translate(295.166016 0.765625)" xlink:href="#DejaVuSans-Oblique-78"/>
     <use transform="translate(358.811849 39.046875)scale(0.7)" xlink:href="#DejaVuSans-33"/>
     <use transform="translate(425.564779 0.765625)" xlink:href="#DejaVuSans-2212"/>
     <use transform="translate(528.836263 0.765625)" xlink:href="#DejaVuSans-31"/>
     <use transform="translate(592.45931 0.765625)" xlink:href="#DejaVuSans-30"/>
     <use transform="translate(656.082357 0.765625)" xlink:href="#DejaVuSans-Oblique-78"/>
     <use transform="translate(719.72819 39.046875)scale(0.7)" xlink:href="#DejaVuSans-32"/>
     <use transform="translate(786.48112 0.765625)" xlink:href="#DejaVuSans-2b"/>
     <use transform="translate(889.752604 0.765625)" xlink:href="#DejaVuSans-35"/>
    </g>
   </g>
   <g id="text_28">
    <g id="patch_13">
     <path d="M 570.669418 106.626108 
L 615.497855 106.626108 
L 615.497855 84.956733 
L 570.669418 84.956733 
z
" style="fill:#f0f0f0;stroke:#f0f0f0;stroke-linejoin:miter;stroke-width:0.5;"/>
    </g>
    <!-- Root -->
    <g style="fill:#ff00ff;" transform="translate(574.729418 99.654545)scale(0.14 -0.14)">
     <use xlink:href="#DejaVuSans-Bold-52"/>
     <use x="77.001953" xlink:href="#DejaVuSans-Bold-6f"/>
     <use x="145.703125" xlink:href="#DejaVuSans-Bold-6f"/>
     <use x="214.404297" xlink:href="#DejaVuSans-Bold-74"/>
    </g>
   </g>
  </g>
  <g id="axes_3">
   <g id="patch_14">
    <path d="M 74.88 669.6 
L 445.025455 669.6 
L 445.025455 404.509091 
L 74.88 404.509091 
z
" style="fill:#f0f0f0;"/>
   </g>
   <g id="matplotlib.axis_5">
    <g id="xtick_12">
     <g id="line2d_53">
      <path clip-path="url(#p33802957de)" d="M 91.704793 669.6 
L 91.704793 404.509091 
" style="fill:none;stroke:#cbcbcb;"/>
     </g>
     <g id="line2d_54"/>
     <g id="text_29">
      <!-- 0 -->
      <g transform="translate(87.251043 683.737812)scale(0.14 -0.14)">
       <use xlink:href="#DejaVuSans-30"/>
      </g>
     </g>
    </g>
    <g id="xtick_13">
     <g id="line2d_55">
      <path clip-path="url(#p33802957de)" d="M 159.138835 669.6 
L 159.138835 404.509091 
" style="fill:none;stroke:#cbcbcb;"/>
     </g>
     <g id="line2d_56"/>
     <g id="text_30">
      <!-- 1 -->
      <g transform="translate(154.685085 683.737812)scale(0.14 -0.14)">
       <use xlink:href="#DejaVuSans-31"/>
      </g>
     </g>
    </g>
    <g id="xtick_14">
     <g id="line2d_57">
      <path clip-path="url(#p33802957de)" d="M 226.572877 669.6 
L 226.572877 404.509091 
" style="fill:none;stroke:#cbcbcb;"/>
     </g>
     <g id="line2d_58"/>
     <g id="text_31">
      <!-- 2 -->
      <g transform="translate(222.119127 683.737812)scale(0.14 -0.14)">
       <use xlink:href="#DejaVuSans-32"/>
      </g>
     </g>
    </g>
    <g id="xtick_15">
     <g id="line2d_59">
      <path clip-path="url(#p33802957de)" d="M 294.006918 669.6 
L 294.006918 404.509091 
" style="fill:none;stroke:#cbcbcb;"/>
     </g>
     <g id="line2d_60"/>
     <g id="text_32">
      <!-- 3 -->
      <g transform="translate(289.553168 683.737812)scale(0.14 -0.14)">
       <use xlink:href="#DejaVuSans-33"/>
      </g>
     </g>
    </g>
    <g id="xtick_16">
     <g id="line2d_61">
      <path clip-path="url(#p33802957de)" d="M 361.44096 669.6 
L 361.44096 404.509091 
" style="fill:none;stroke:#cbcbcb;"/>
     </g>
     <g id="line2d_62"/>
     <g id="text_33">
      <!-- 4 -->
      <g transform="translate(356.98721 683.737812)scale(0.14 -0.14)">
       <use xlink:href="#DejaVuSans-34"/>
      </g>
     </g>
    </g>
    <g id="xtick_17">
     <g id="line2d_63">
      <path clip-path="url(#p33802957de)" d="M 428.875002 669.6 
L 428.875002 404.509091 
" style="fill:none;stroke:#cbcbcb;"/>
     </g>
     <g id="line2d_64"/>
     <g id="text_34">
      <!-- 5 -->
      <g transform="translate(424.421252 683.737812)scale(0.14 -0.14)">
       <use xlink:href="#DejaVuSans-35"/>
      </g>
     </g>
    </g>
   </g>
   <g id="matplotlib.axis_6">
    <g id="ytick_14">
     <g id="line2d_65">
      <path clip-path="url(#p33802957de)" d="M 74.88 661.90684 
L 445.025455 661.90684 
" style="fill:none;stroke:#cbcbcb;"/>
     </g>
     <g id="line2d_66"/>
     <g id="text_35">
      <!-- −140 -->
      <g transform="translate(32.925937 667.225746)scale(0.14 -0.14)">
       <use xlink:href="#DejaVuSans-2212"/>
       <use x="83.789062" xlink:href="#DejaVuSans-31"/>
       <use x="147.412109" xlink:href="#DejaVuSans-34"/>
       <use x="211.035156" xlink:href="#DejaVuSans-30"/>
      </g>
     </g>
    </g>
    <g id="ytick_15">
     <g id="line2d_67">
      <path clip-path="url(#p33802957de)" d="M 74.88 629.509171 
L 445.025455 629.509171 
" style="fill:none;stroke:#cbcbcb;"/>
     </g>
     <g id="line2d_68"/>
     <g id="text_36">
      <!-- −120 -->
      <g transform="translate(32.925937 634.828077)scale(0.14 -0.14)">
       <use xlink:href="#DejaVuSans-2212"/>
       <use x="83.789062" xlink:href="#DejaVuSans-31"/>
       <use x="147.412109" xlink:href="#DejaVuSans-32"/>
       <use x="211.035156" xlink:href="#DejaVuSans-30"/>
      </g>
     </g>
    </g>
    <g id="ytick_16">
     <g id="line2d_69">
      <path clip-path="url(#p33802957de)" d="M 74.88 597.111502 
L 445.025455 597.111502 
" style="fill:none;stroke:#cbcbcb;"/>
     </g>
     <g id="line2d_70"/>
     <g id="text_37">
      <!-- −100 -->
      <g transform="translate(32.925937 602.430408)scale(0.14 -0.14)">
       <use xlink:href="#DejaVuSans-2212"/>
       <use x="83.789062" xlink:href="#DejaVuSans-31"/>
       <use x="147.412109" xlink:href="#DejaVuSans-30"/>
       <use x="211.035156" xlink:href="#DejaVuSans-30"/>
      </g>
     </g>
    </g>
    <g id="ytick_17">
     <g id="line2d_71">
      <path clip-path="url(#p33802957de)" d="M 74.88 564.713833 
L 445.025455 564.713833 
" style="fill:none;stroke:#cbcbcb;"/>
     </g>
     <g id="line2d_72"/>
     <g id="text_38">
      <!-- −80 -->
      <g transform="translate(41.833437 570.032739)scale(0.14 -0.14)">
       <use xlink:href="#DejaVuSans-2212"/>
       <use x="83.789062" xlink:href="#DejaVuSans-38"/>
       <use x="147.412109" xlink:href="#DejaVuSans-30"/>
      </g>
     </g>
    </g>
    <g id="ytick_18">
     <g id="line2d_73">
      <path clip-path="url(#p33802957de)" d="M 74.88 532.316164 
L 445.025455 532.316164 
" style="fill:none;stroke:#cbcbcb;"/>
     </g>
     <g id="line2d_74"/>
     <g id="text_39">
      <!-- −60 -->
      <g transform="translate(41.833437 537.635071)scale(0.14 -0.14)">
       <use xlink:href="#DejaVuSans-2212"/>
       <use x="83.789062" xlink:href="#DejaVuSans-36"/>
       <use x="147.412109" xlink:href="#DejaVuSans-30"/>
      </g>
     </g>
    </g>
    <g id="ytick_19">
     <g id="line2d_75">
      <path clip-path="url(#p33802957de)" d="M 74.88 499.918495 
L 445.025455 499.918495 
" style="fill:none;stroke:#cbcbcb;"/>
     </g>
     <g id="line2d_76"/>
     <g id="text_40">
      <!-- −40 -->
      <g transform="translate(41.833437 505.237402)scale(0.14 -0.14)">
       <use xlink:href="#DejaVuSans-2212"/>
       <use x="83.789062" xlink:href="#DejaVuSans-34"/>
       <use x="147.412109" xlink:href="#DejaVuSans-30"/>
      </g>
     </g>
    </g>
    <g id="ytick_20">
     <g id="line2d_77">
      <path clip-path="url(#p33802957de)" d="M 74.88 467.520827 
L 445.025455 467.520827 
" style="fill:none;stroke:#cbcbcb;"/>
     </g>
     <g id="line2d_78"/>
     <g id="text_41">
      <!-- −20 -->
      <g transform="translate(41.833437 472.839733)scale(0.14 -0.14)">
       <use xlink:href="#DejaVuSans-2212"/>
       <use x="83.789062" xlink:href="#DejaVuSans-32"/>
       <use x="147.412109" xlink:href="#DejaVuSans-30"/>
      </g>
     </g>
    </g>
    <g id="ytick_21">
     <g id="line2d_79">
      <path clip-path="url(#p33802957de)" d="M 74.88 435.123158 
L 445.025455 435.123158 
" style="fill:none;stroke:#cbcbcb;"/>
     </g>
     <g id="line2d_80"/>
     <g id="text_42">
      <!-- 0 -->
      <g transform="translate(62.4725 440.442064)scale(0.14 -0.14)">
       <use xlink:href="#DejaVuSans-30"/>
      </g>
     </g>
    </g>
   </g>
   <g id="line2d_81">
    <path clip-path="url(#p33802957de)" d="M 91.704793 428.643624 
L 108.563304 428.129031 
L 124.073133 427.434754 
L 138.908623 426.542157 
L 153.069771 425.466414 
L 167.90526 424.108356 
L 184.08943 422.396897 
L 226.572877 417.759871 
L 236.013642 417.046336 
L 244.105727 416.663331 
L 250.849132 416.558678 
L 256.918195 416.671651 
L 262.987259 417.019116 
L 268.381982 417.557167 
L 273.102365 418.229572 
L 277.822748 419.112479 
L 282.543131 420.228241 
L 287.263514 421.600125 
L 291.309557 422.998101 
L 295.355599 424.617476 
L 299.401642 426.474097 
L 303.447684 428.584018 
L 307.493727 430.963403 
L 311.539769 433.628417 
L 315.585812 436.595102 
L 319.631854 439.879239 
L 323.677897 443.496195 
L 327.723939 447.460749 
L 331.769982 451.786911 
L 335.816024 456.487709 
L 339.862067 461.57497 
L 343.908109 467.059073 
L 347.954152 472.948687 
L 352.000194 479.250487 
L 356.046237 485.968845 
L 360.092279 493.105509 
L 364.138322 500.659249 
L 368.858705 509.992779 
L 373.579087 519.873866 
L 378.29947 530.280939 
L 383.694194 542.779439 
L 389.088917 555.863948 
L 395.157981 571.184388 
L 402.575725 590.563766 
L 424.154619 647.515749 
L 428.200661 657.550413 
L 428.200661 657.550413 
" style="fill:none;stroke:#ff00ff;stroke-width:4;"/>
   </g>
   <g id="line2d_82">
    <defs>
     <path d="M 0 3 
C 0.795609 3 1.55874 2.683901 2.12132 2.12132 
C 2.683901 1.55874 3 0.795609 3 0 
C 3 -0.795609 2.683901 -1.55874 2.12132 -2.12132 
C 1.55874 -2.683901 0.795609 -3 0 -3 
C -0.795609 -3 -1.55874 -2.683901 -2.12132 -2.12132 
C -2.683901 -1.55874 -3 -0.795609 -3 0 
C -3 0.795609 -2.683901 1.55874 -2.12132 2.12132 
C -1.55874 2.683901 -0.795609 3 0 3 
z
" id="m3b82a39e00" style="stroke:#008000;"/>
    </defs>
    <g clip-path="url(#p33802957de)">
     <use style="fill:#008000;stroke:#008000;" x="313.631075" xlink:href="#m3b82a39e00" y="435.123158"/>
    </g>
   </g>
   <g id="patch_15">
    <path d="M 74.88 669.6 
L 74.88 404.509091 
" style="fill:none;stroke:#f0f0f0;stroke-linecap:square;stroke-linejoin:miter;stroke-width:3;"/>
   </g>
   <g id="patch_16">
    <path d="M 445.025455 669.6 
L 445.025455 404.509091 
" style="fill:none;stroke:#f0f0f0;stroke-linecap:square;stroke-linejoin:miter;stroke-width:3;"/>
   </g>
   <g id="patch_17">
    <path d="M 74.88 669.6 
L 445.025455 669.6 
" style="fill:none;stroke:#f0f0f0;stroke-linecap:square;stroke-linejoin:miter;stroke-width:3;"/>
   </g>
   <g id="patch_18">
    <path d="M 74.88 404.509091 
L 445.025455 404.509091 
" style="fill:none;stroke:#f0f0f0;stroke-linecap:square;stroke-linejoin:miter;stroke-width:3;"/>
   </g>
   <g id="text_43">
    <!-- $f(x)=e^{x}sin(x)+4$ -->
    <defs>
     <path d="M 48.09375 32.234375 
Q 48.25 33.015625 48.3125 33.84375 
Q 48.390625 34.671875 48.390625 35.5 
Q 48.390625 41.453125 44.890625 44.921875 
Q 41.40625 48.390625 35.40625 48.390625 
Q 28.71875 48.390625 23.578125 44.15625 
Q 18.453125 39.9375 15.828125 32.171875 
z
M 55.90625 25.203125 
L 14.109375 25.203125 
Q 13.8125 23.34375 13.71875 22.265625 
Q 13.625 21.1875 13.625 20.40625 
Q 13.625 13.625 17.796875 9.90625 
Q 21.96875 6.203125 29.59375 6.203125 
Q 35.453125 6.203125 40.671875 7.515625 
Q 45.90625 8.84375 50.390625 11.375 
L 48.6875 2.484375 
Q 43.84375 0.53125 38.6875 -0.4375 
Q 33.546875 -1.421875 28.21875 -1.421875 
Q 16.84375 -1.421875 10.71875 4.015625 
Q 4.59375 9.46875 4.59375 19.484375 
Q 4.59375 28.03125 7.640625 35.375 
Q 10.6875 42.71875 16.609375 48.484375 
Q 20.40625 52.09375 25.65625 54.046875 
Q 30.90625 56 36.8125 56 
Q 46.09375 56 51.578125 50.4375 
Q 57.078125 44.875 57.078125 35.5 
Q 57.078125 33.25 56.78125 30.6875 
Q 56.5 28.125 55.90625 25.203125 
z
" id="DejaVuSans-Oblique-65"/>
     <path d="M 50 53.078125 
L 48.296875 44.578125 
Q 44.734375 46.53125 40.765625 47.5 
Q 36.8125 48.484375 32.625 48.484375 
Q 25.53125 48.484375 21.453125 46.0625 
Q 17.390625 43.65625 17.390625 39.5 
Q 17.390625 34.671875 26.859375 32.078125 
Q 27.59375 31.890625 27.9375 31.78125 
L 30.8125 30.90625 
Q 39.796875 28.421875 42.796875 25.6875 
Q 45.796875 22.953125 45.796875 18.21875 
Q 45.796875 9.515625 38.890625 4.046875 
Q 31.984375 -1.421875 20.796875 -1.421875 
Q 16.453125 -1.421875 11.671875 -0.578125 
Q 6.890625 0.25 1.125 2 
L 2.875 11.28125 
Q 7.8125 8.734375 12.59375 7.421875 
Q 17.390625 6.109375 21.78125 6.109375 
Q 28.375 6.109375 32.5 8.9375 
Q 36.625 11.765625 36.625 16.109375 
Q 36.625 20.796875 25.78125 23.6875 
L 24.859375 23.921875 
L 21.78125 24.703125 
Q 14.9375 26.515625 11.765625 29.46875 
Q 8.59375 32.421875 8.59375 37.015625 
Q 8.59375 45.75 15.15625 50.875 
Q 21.734375 56 33.015625 56 
Q 37.453125 56 41.671875 55.265625 
Q 45.90625 54.546875 50 53.078125 
z
" id="DejaVuSans-Oblique-73"/>
     <path d="M 18.3125 75.984375 
L 27.296875 75.984375 
L 25.09375 64.59375 
L 16.109375 64.59375 
z
M 14.203125 54.6875 
L 23.1875 54.6875 
L 12.5 0 
L 3.515625 0 
z
" id="DejaVuSans-Oblique-69"/>
     <path d="M 55.71875 33.015625 
L 49.3125 0 
L 40.28125 0 
L 46.6875 32.671875 
Q 47.125 34.96875 47.359375 36.71875 
Q 47.609375 38.484375 47.609375 39.5 
Q 47.609375 43.609375 45.015625 45.890625 
Q 42.4375 48.1875 37.796875 48.1875 
Q 30.5625 48.1875 25.34375 43.375 
Q 20.125 38.578125 18.5 30.328125 
L 12.5 0 
L 3.515625 0 
L 14.109375 54.6875 
L 23.09375 54.6875 
L 21.296875 46.09375 
Q 25.046875 50.828125 30.3125 53.40625 
Q 35.59375 56 41.40625 56 
Q 48.640625 56 52.609375 52.09375 
Q 56.59375 48.1875 56.59375 41.109375 
Q 56.59375 39.359375 56.375 37.359375 
Q 56.15625 35.359375 55.71875 33.015625 
z
" id="DejaVuSans-Oblique-6e"/>
    </defs>
    <g style="fill:#ff00ff;" transform="translate(111.894545 510.545455)scale(0.2 -0.2)">
     <use transform="translate(0 0.4375)" xlink:href="#DejaVuSans-Oblique-66"/>
     <use transform="translate(35.205078 0.4375)" xlink:href="#DejaVuSans-28"/>
     <use transform="translate(74.21875 0.4375)" xlink:href="#DejaVuSans-Oblique-78"/>
     <use transform="translate(133.398438 0.4375)" xlink:href="#DejaVuSans-29"/>
     <use transform="translate(191.894531 0.4375)" xlink:href="#DejaVuSans-3d"/>
     <use transform="translate(295.166016 0.4375)" xlink:href="#DejaVuSans-Oblique-65"/>
     <use transform="translate(361.339349 38.71875)scale(0.7)" xlink:href="#DejaVuSans-Oblique-78"/>
     <use transform="translate(405.499505 0.4375)" xlink:href="#DejaVuSans-Oblique-73"/>
     <use transform="translate(457.599115 0.4375)" xlink:href="#DejaVuSans-Oblique-69"/>
     <use transform="translate(485.382318 0.4375)" xlink:href="#DejaVuSans-Oblique-6e"/>
     <use transform="translate(548.761224 0.4375)" xlink:href="#DejaVuSans-28"/>
     <use transform="translate(587.774896 0.4375)" xlink:href="#DejaVuSans-Oblique-78"/>
     <use transform="translate(646.954583 0.4375)" xlink:href="#DejaVuSans-29"/>
     <use transform="translate(705.450677 0.4375)" xlink:href="#DejaVuSans-2b"/>
     <use transform="translate(808.722161 0.4375)" xlink:href="#DejaVuSans-34"/>
    </g>
   </g>
   <g id="text_44">
    <g id="patch_19">
     <path d="M 311.567599 432.687926 
L 356.396037 432.687926 
L 356.396037 411.018551 
L 311.567599 411.018551 
z
" style="fill:#f0f0f0;stroke:#f0f0f0;stroke-linejoin:miter;stroke-width:0.5;"/>
    </g>
    <!-- Root -->
    <g style="fill:#008000;" transform="translate(315.627599 425.716364)scale(0.14 -0.14)">
     <use xlink:href="#DejaVuSans-Bold-52"/>
     <use x="77.001953" xlink:href="#DejaVuSans-Bold-6f"/>
     <use x="145.703125" xlink:href="#DejaVuSans-Bold-6f"/>
     <use x="214.404297" xlink:href="#DejaVuSans-Bold-74"/>
    </g>
   </g>
  </g>
  <g id="axes_4">
   <g id="patch_20">
    <path d="M 519.054545 669.6 
L 889.2 669.6 
L 889.2 404.509091 
L 519.054545 404.509091 
z
" style="fill:#f0f0f0;"/>
   </g>
   <g id="matplotlib.axis_7">
    <g id="xtick_18">
     <g id="line2d_83">
      <path clip-path="url(#paf853c00be)" d="M 535.879339 669.6 
L 535.879339 404.509091 
" style="fill:none;stroke:#cbcbcb;"/>
     </g>
     <g id="line2d_84"/>
     <g id="text_45">
      <!-- 0 -->
      <g transform="translate(531.425589 683.737812)scale(0.14 -0.14)">
       <use xlink:href="#DejaVuSans-30"/>
      </g>
     </g>
    </g>
    <g id="xtick_19">
     <g id="line2d_85">
      <path clip-path="url(#paf853c00be)" d="M 620.108592 669.6 
L 620.108592 404.509091 
" style="fill:none;stroke:#cbcbcb;"/>
     </g>
     <g id="line2d_86"/>
     <g id="text_46">
      <!-- 2 -->
      <g transform="translate(615.654842 683.737812)scale(0.14 -0.14)">
       <use xlink:href="#DejaVuSans-32"/>
      </g>
     </g>
    </g>
    <g id="xtick_20">
     <g id="line2d_87">
      <path clip-path="url(#paf853c00be)" d="M 704.337846 669.6 
L 704.337846 404.509091 
" style="fill:none;stroke:#cbcbcb;"/>
     </g>
     <g id="line2d_88"/>
     <g id="text_47">
      <!-- 4 -->
      <g transform="translate(699.884096 683.737812)scale(0.14 -0.14)">
       <use xlink:href="#DejaVuSans-34"/>
      </g>
     </g>
    </g>
    <g id="xtick_21">
     <g id="line2d_89">
      <path clip-path="url(#paf853c00be)" d="M 788.567099 669.6 
L 788.567099 404.509091 
" style="fill:none;stroke:#cbcbcb;"/>
     </g>
     <g id="line2d_90"/>
     <g id="text_48">
      <!-- 6 -->
      <g transform="translate(784.113349 683.737812)scale(0.14 -0.14)">
       <use xlink:href="#DejaVuSans-36"/>
      </g>
     </g>
    </g>
    <g id="xtick_22">
     <g id="line2d_91">
      <path clip-path="url(#paf853c00be)" d="M 872.796353 669.6 
L 872.796353 404.509091 
" style="fill:none;stroke:#cbcbcb;"/>
     </g>
     <g id="line2d_92"/>
     <g id="text_49">
      <!-- 8 -->
      <g transform="translate(868.342603 683.737812)scale(0.14 -0.14)">
       <use xlink:href="#DejaVuSans-38"/>
      </g>
     </g>
    </g>
   </g>
   <g id="matplotlib.axis_8">
    <g id="ytick_22">
     <g id="line2d_93">
      <path clip-path="url(#paf853c00be)" d="M 519.054545 657.120789 
L 889.2 657.120789 
" style="fill:none;stroke:#cbcbcb;"/>
     </g>
     <g id="line2d_94"/>
     <g id="text_50">
      <!-- −200 -->
      <g transform="translate(477.100483 662.439696)scale(0.14 -0.14)">
       <use xlink:href="#DejaVuSans-2212"/>
       <use x="83.789062" xlink:href="#DejaVuSans-32"/>
       <use x="147.412109" xlink:href="#DejaVuSans-30"/>
       <use x="211.035156" xlink:href="#DejaVuSans-30"/>
      </g>
     </g>
    </g>
    <g id="ytick_23">
     <g id="line2d_95">
      <path clip-path="url(#paf853c00be)" d="M 519.054545 617.956727 
L 889.2 617.956727 
" style="fill:none;stroke:#cbcbcb;"/>
     </g>
     <g id="line2d_96"/>
     <g id="text_51">
      <!-- −100 -->
      <g transform="translate(477.100483 623.275633)scale(0.14 -0.14)">
       <use xlink:href="#DejaVuSans-2212"/>
       <use x="83.789062" xlink:href="#DejaVuSans-31"/>
       <use x="147.412109" xlink:href="#DejaVuSans-30"/>
       <use x="211.035156" xlink:href="#DejaVuSans-30"/>
      </g>
     </g>
    </g>
    <g id="ytick_24">
     <g id="line2d_97">
      <path clip-path="url(#paf853c00be)" d="M 519.054545 578.792664 
L 889.2 578.792664 
" style="fill:none;stroke:#cbcbcb;"/>
     </g>
     <g id="line2d_98"/>
     <g id="text_52">
      <!-- 0 -->
      <g transform="translate(506.647045 584.11157)scale(0.14 -0.14)">
       <use xlink:href="#DejaVuSans-30"/>
      </g>
     </g>
    </g>
    <g id="ytick_25">
     <g id="line2d_99">
      <path clip-path="url(#paf853c00be)" d="M 519.054545 539.628601 
L 889.2 539.628601 
" style="fill:none;stroke:#cbcbcb;"/>
     </g>
     <g id="line2d_100"/>
     <g id="text_53">
      <!-- 100 -->
      <g transform="translate(488.832045 544.947507)scale(0.14 -0.14)">
       <use xlink:href="#DejaVuSans-31"/>
       <use x="63.623047" xlink:href="#DejaVuSans-30"/>
       <use x="127.246094" xlink:href="#DejaVuSans-30"/>
      </g>
     </g>
    </g>
    <g id="ytick_26">
     <g id="line2d_101">
      <path clip-path="url(#paf853c00be)" d="M 519.054545 500.464538 
L 889.2 500.464538 
" style="fill:none;stroke:#cbcbcb;"/>
     </g>
     <g id="line2d_102"/>
     <g id="text_54">
      <!-- 200 -->
      <g transform="translate(488.832045 505.783444)scale(0.14 -0.14)">
       <use xlink:href="#DejaVuSans-32"/>
       <use x="63.623047" xlink:href="#DejaVuSans-30"/>
       <use x="127.246094" xlink:href="#DejaVuSans-30"/>
      </g>
     </g>
    </g>
    <g id="ytick_27">
     <g id="line2d_103">
      <path clip-path="url(#paf853c00be)" d="M 519.054545 461.300475 
L 889.2 461.300475 
" style="fill:none;stroke:#cbcbcb;"/>
     </g>
     <g id="line2d_104"/>
     <g id="text_55">
      <!-- 300 -->
      <g transform="translate(488.832045 466.619381)scale(0.14 -0.14)">
       <use xlink:href="#DejaVuSans-33"/>
       <use x="63.623047" xlink:href="#DejaVuSans-30"/>
       <use x="127.246094" xlink:href="#DejaVuSans-30"/>
      </g>
     </g>
    </g>
    <g id="ytick_28">
     <g id="line2d_105">
      <path clip-path="url(#paf853c00be)" d="M 519.054545 422.136412 
L 889.2 422.136412 
" style="fill:none;stroke:#cbcbcb;"/>
     </g>
     <g id="line2d_106"/>
     <g id="text_56">
      <!-- 400 -->
      <g transform="translate(488.832045 427.455319)scale(0.14 -0.14)">
       <use xlink:href="#DejaVuSans-34"/>
       <use x="63.623047" xlink:href="#DejaVuSans-30"/>
       <use x="127.246094" xlink:href="#DejaVuSans-30"/>
      </g>
     </g>
    </g>
   </g>
   <g id="line2d_107">
    <path clip-path="url(#paf853c00be)" d="M 535.879339 578.792664 
L 583.890013 578.902465 
L 601.578157 579.173799 
L 615.475983 579.600351 
L 627.689225 580.18821 
L 639.481321 580.977226 
L 651.273416 581.987329 
L 666.013536 583.491035 
L 684.543971 585.37405 
L 692.54575 585.95428 
L 698.862944 586.193081 
L 704.337846 586.175032 
L 708.970455 585.948422 
L 713.181917 585.536856 
L 717.39338 584.893929 
L 721.183697 584.086921 
L 724.974013 583.033963 
L 728.343183 581.867411 
L 731.712353 580.46131 
L 735.081523 578.793584 
L 738.029547 577.102194 
L 740.977571 575.178549 
L 743.925595 573.007959 
L 746.873619 570.576125 
L 749.821643 567.869345 
L 752.769667 564.874749 
L 755.717691 561.580557 
L 758.665714 557.976369 
L 761.613738 554.053479 
L 764.982908 549.171491 
L 768.352079 543.858587 
L 771.721249 538.113664 
L 775.090419 531.941421 
L 778.880735 524.501401 
L 782.671052 516.563361 
L 786.882514 507.211437 
L 791.515123 496.374265 
L 797.411171 481.984782 
L 809.624413 451.985194 
L 813.414729 443.325123 
L 816.362753 437.059921 
L 818.889631 432.12407 
L 821.416508 427.683216 
L 823.52224 424.430419 
L 825.206825 422.164521 
L 826.89141 420.23287 
L 828.575995 418.669738 
L 829.839434 417.760764 
L 831.102872 417.094993 
L 832.366311 416.688698 
L 833.62975 416.558678 
L 834.893189 416.722258 
L 836.156628 417.19729 
L 837.420066 418.002151 
L 838.683505 419.155746 
L 839.946944 420.677498 
L 841.210383 422.58735 
L 842.473822 424.90576 
L 843.73726 427.653689 
L 845.000699 430.852602 
L 846.685284 435.857364 
L 848.369869 441.756321 
L 850.054454 448.6043 
L 851.73904 456.457536 
L 853.423625 465.373596 
L 855.10821 475.411306 
L 856.792795 486.630652 
L 858.898526 502.409605 
L 861.004257 520.251599 
L 863.109989 540.279822 
L 865.21572 562.618927 
L 867.321451 587.394529 
L 869.427183 614.732646 
L 871.532914 644.759084 
L 872.375207 657.550413 
L 872.375207 657.550413 
" style="fill:none;stroke:#0000ff;stroke-width:4;"/>
   </g>
   <g id="line2d_108">
    <defs>
     <path d="M 0 3 
C 0.795609 3 1.55874 2.683901 2.12132 2.12132 
C 2.683901 1.55874 3 0.795609 3 0 
C 3 -0.795609 2.683901 -1.55874 2.12132 -2.12132 
C 1.55874 -2.683901 0.795609 -3 0 -3 
C -0.795609 -3 -1.55874 -2.683901 -2.12132 -2.12132 
C -2.683901 -1.55874 -3 -0.795609 -3 0 
C -3 0.795609 -2.683901 1.55874 -2.12132 2.12132 
C -1.55874 2.683901 -0.795609 3 0 3 
z
" id="mb2c63c7ed8" style="stroke:#ff0000;"/>
    </defs>
    <g clip-path="url(#paf853c00be)">
     <use style="fill:#ff0000;stroke:#ff0000;" x="735.083239" xlink:href="#mb2c63c7ed8" y="578.792664"/>
    </g>
   </g>
   <g id="line2d_109">
    <g clip-path="url(#paf853c00be)">
     <use style="fill:#ff0000;stroke:#ff0000;" x="866.61412" xlink:href="#mb2c63c7ed8" y="578.792664"/>
    </g>
   </g>
   <g id="line2d_110">
    <g clip-path="url(#paf853c00be)">
     <use style="fill:#ff0000;stroke:#ff0000;" x="535.879339" xlink:href="#mb2c63c7ed8" y="578.792664"/>
    </g>
   </g>
   <g id="patch_21">
    <path d="M 519.054545 669.6 
L 519.054545 404.509091 
" style="fill:none;stroke:#f0f0f0;stroke-linecap:square;stroke-linejoin:miter;stroke-width:3;"/>
   </g>
   <g id="patch_22">
    <path d="M 889.2 669.6 
L 889.2 404.509091 
" style="fill:none;stroke:#f0f0f0;stroke-linecap:square;stroke-linejoin:miter;stroke-width:3;"/>
   </g>
   <g id="patch_23">
    <path d="M 519.054545 669.6 
L 889.2 669.6 
" style="fill:none;stroke:#f0f0f0;stroke-linecap:square;stroke-linejoin:miter;stroke-width:3;"/>
   </g>
   <g id="patch_24">
    <path d="M 519.054545 404.509091 
L 889.2 404.509091 
" style="fill:none;stroke:#f0f0f0;stroke-linecap:square;stroke-linejoin:miter;stroke-width:3;"/>
   </g>
   <g id="text_57">
    <!-- $f(x)=cosh(x)cos(x)-1$ -->
    <defs>
     <path d="M 53.609375 52.59375 
L 51.8125 43.703125 
Q 48.578125 46.046875 44.9375 47.21875 
Q 41.3125 48.390625 37.40625 48.390625 
Q 33.109375 48.390625 29.21875 46.875 
Q 25.34375 45.359375 22.703125 42.578125 
Q 18.5 38.328125 16.203125 32.609375 
Q 13.921875 26.90625 13.921875 20.796875 
Q 13.921875 13.421875 17.609375 9.8125 
Q 21.296875 6.203125 28.8125 6.203125 
Q 32.515625 6.203125 36.6875 7.328125 
Q 40.875 8.453125 45.40625 10.6875 
L 43.703125 1.8125 
Q 39.796875 0.203125 35.671875 -0.609375 
Q 31.546875 -1.421875 27.203125 -1.421875 
Q 16.3125 -1.421875 10.453125 4.015625 
Q 4.59375 9.46875 4.59375 19.578125 
Q 4.59375 28.078125 7.640625 35.234375 
Q 10.6875 42.390625 16.703125 48.09375 
Q 20.796875 52 26.3125 54 
Q 31.84375 56 38.375 56 
Q 42.1875 56 45.9375 55.140625 
Q 49.703125 54.296875 53.609375 52.59375 
z
" id="DejaVuSans-Oblique-63"/>
     <path d="M 25.390625 -1.421875 
Q 15.765625 -1.421875 10.171875 4.515625 
Q 4.59375 10.453125 4.59375 20.703125 
Q 4.59375 26.65625 6.515625 32.828125 
Q 8.453125 39.015625 11.53125 43.21875 
Q 16.359375 49.75 22.3125 52.875 
Q 28.265625 56 35.796875 56 
Q 45.125 56 50.859375 50.1875 
Q 56.59375 44.390625 56.59375 35.015625 
Q 56.59375 28.515625 54.6875 22.0625 
Q 52.78125 15.625 49.703125 11.375 
Q 44.921875 4.828125 38.96875 1.703125 
Q 33.015625 -1.421875 25.390625 -1.421875 
z
M 13.921875 21 
Q 13.921875 13.578125 17.015625 9.890625 
Q 20.125 6.203125 26.421875 6.203125 
Q 35.453125 6.203125 41.375 14.078125 
Q 47.3125 21.96875 47.3125 34.078125 
Q 47.3125 41.15625 44.140625 44.765625 
Q 40.96875 48.390625 34.8125 48.390625 
Q 29.734375 48.390625 25.78125 46.015625 
Q 21.828125 43.65625 18.703125 38.8125 
Q 16.40625 35.203125 15.15625 30.5625 
Q 13.921875 25.921875 13.921875 21 
z
" id="DejaVuSans-Oblique-6f"/>
     <path d="M 55.71875 33.015625 
L 49.3125 0 
L 40.28125 0 
L 46.6875 32.671875 
Q 47.125 34.96875 47.359375 36.71875 
Q 47.609375 38.484375 47.609375 39.5 
Q 47.609375 43.609375 45.015625 45.890625 
Q 42.4375 48.1875 37.796875 48.1875 
Q 30.5625 48.1875 25.265625 43.296875 
Q 19.96875 38.421875 18.40625 30.328125 
L 12.5 0 
L 3.515625 0 
L 18.3125 75.984375 
L 27.296875 75.984375 
L 21.484375 46.09375 
Q 24.90625 50.6875 30.21875 53.34375 
Q 35.546875 56 41.40625 56 
Q 48.640625 56 52.609375 52.09375 
Q 56.59375 48.1875 56.59375 41.109375 
Q 56.59375 39.359375 56.375 37.359375 
Q 56.15625 35.359375 55.71875 33.015625 
z
" id="DejaVuSans-Oblique-68"/>
    </defs>
    <g style="fill:#0000ff;" transform="translate(556.069091 444.272727)scale(0.2 -0.2)">
     <use transform="translate(0 0.015625)" xlink:href="#DejaVuSans-Oblique-66"/>
     <use transform="translate(35.205078 0.015625)" xlink:href="#DejaVuSans-28"/>
     <use transform="translate(74.21875 0.015625)" xlink:href="#DejaVuSans-Oblique-78"/>
     <use transform="translate(133.398438 0.015625)" xlink:href="#DejaVuSans-29"/>
     <use transform="translate(191.894531 0.015625)" xlink:href="#DejaVuSans-3d"/>
     <use transform="translate(295.166016 0.015625)" xlink:href="#DejaVuSans-Oblique-63"/>
     <use transform="translate(350.146484 0.015625)" xlink:href="#DejaVuSans-Oblique-6f"/>
     <use transform="translate(411.328125 0.015625)" xlink:href="#DejaVuSans-Oblique-73"/>
     <use transform="translate(463.427734 0.015625)" xlink:href="#DejaVuSans-Oblique-68"/>
     <use transform="translate(526.806641 0.015625)" xlink:href="#DejaVuSans-28"/>
     <use transform="translate(565.820312 0.015625)" xlink:href="#DejaVuSans-Oblique-78"/>
     <use transform="translate(625 0.015625)" xlink:href="#DejaVuSans-29"/>
     <use transform="translate(664.013672 0.015625)" xlink:href="#DejaVuSans-Oblique-63"/>
     <use transform="translate(718.994141 0.015625)" xlink:href="#DejaVuSans-Oblique-6f"/>
     <use transform="translate(780.175781 0.015625)" xlink:href="#DejaVuSans-Oblique-73"/>
     <use transform="translate(832.275391 0.015625)" xlink:href="#DejaVuSans-28"/>
     <use transform="translate(871.289062 0.015625)" xlink:href="#DejaVuSans-Oblique-78"/>
     <use transform="translate(930.46875 0.015625)" xlink:href="#DejaVuSans-29"/>
     <use transform="translate(988.964844 0.015625)" xlink:href="#DejaVuSans-2212"/>
     <use transform="translate(1092.236328 0.015625)" xlink:href="#DejaVuSans-31"/>
    </g>
   </g>
   <g id="text_58">
    <g id="patch_25">
     <path d="M 681.713054 570.535199 
L 726.541491 570.535199 
L 726.541491 548.865824 
L 681.713054 548.865824 
z
" style="fill:#f0f0f0;stroke:#f0f0f0;stroke-linejoin:miter;stroke-width:0.5;"/>
    </g>
    <!-- Root -->
    <g style="fill:#ff0000;" transform="translate(685.773054 563.563636)scale(0.14 -0.14)">
     <use xlink:href="#DejaVuSans-Bold-52"/>
     <use x="77.001953" xlink:href="#DejaVuSans-Bold-6f"/>
     <use x="145.703125" xlink:href="#DejaVuSans-Bold-6f"/>
     <use x="214.404297" xlink:href="#DejaVuSans-Bold-74"/>
    </g>
   </g>
   <g id="text_59">
    <g id="patch_26">
     <path d="M 515.147599 570.535199 
L 559.976037 570.535199 
L 559.976037 548.865824 
L 515.147599 548.865824 
z
" style="fill:#f0f0f0;stroke:#f0f0f0;stroke-linejoin:miter;stroke-width:0.5;"/>
    </g>
    <!-- Root -->
    <g style="fill:#ff0000;" transform="translate(519.207599 563.563636)scale(0.14 -0.14)">
     <use xlink:href="#DejaVuSans-Bold-52"/>
     <use x="77.001953" xlink:href="#DejaVuSans-Bold-6f"/>
     <use x="145.703125" xlink:href="#DejaVuSans-Bold-6f"/>
     <use x="214.404297" xlink:href="#DejaVuSans-Bold-74"/>
    </g>
   </g>
   <g id="text_60">
    <g id="patch_27">
     <path d="M 811.263963 570.535199 
L 856.092401 570.535199 
L 856.092401 548.865824 
L 811.263963 548.865824 
z
" style="fill:#f0f0f0;stroke:#f0f0f0;stroke-linejoin:miter;stroke-width:0.5;"/>
    </g>
    <!-- Root -->
    <g style="fill:#ff0000;" transform="translate(815.323963 563.563636)scale(0.14 -0.14)">
     <use xlink:href="#DejaVuSans-Bold-52"/>
     <use x="77.001953" xlink:href="#DejaVuSans-Bold-6f"/>
     <use x="145.703125" xlink:href="#DejaVuSans-Bold-6f"/>
     <use x="214.404297" xlink:href="#DejaVuSans-Bold-74"/>
    </g>
   </g>
  </g>
 </g>
 <defs>
  <clipPath id="p15a89bfb05">
   <rect height="265.090909" width="370.145455" x="74.88" y="86.4"/>
  </clipPath>
  <clipPath id="pbf65cb0594">
   <rect height="265.090909" width="370.145455" x="519.054545" y="86.4"/>
  </clipPath>
  <clipPath id="p33802957de">
   <rect height="265.090909" width="370.145455" x="74.88" y="404.509091"/>
  </clipPath>
  <clipPath id="paf853c00be">
   <rect height="265.090909" width="370.145455" x="519.054545" y="404.509091"/>
  </clipPath>
 </defs>
</svg>
