<?xml version="1.0" encoding="utf-8" standalone="no"?>
<!DOCTYPE svg PUBLIC "-//W3C//DTD SVG 1.1//EN"
  "http://www.w3.org/Graphics/SVG/1.1/DTD/svg11.dtd">
<!-- Created with matplotlib (http://matplotlib.org/) -->
<svg height="720pt" version="1.1" viewBox="0 0 936 720" width="936pt" xmlns="http://www.w3.org/2000/svg" xmlns:xlink="http://www.w3.org/1999/xlink">
 <defs>
  <style type="text/css">
*{stroke-linecap:butt;stroke-linejoin:round;}
  </style>
 </defs>
 <g id="figure_1">
  <g id="patch_1">
   <path d="M 0 720 
L 936 720 
L 936 0 
L 0 0 
z
" style="fill:#f0f0f0;"/>
  </g>
  <g id="axes_1">
   <g id="patch_2">
    <path d="M 74.88 351.490909 
L 445.025455 351.490909 
L 445.025455 86.4 
L 74.88 86.4 
z
" style="fill:#f0f0f0;"/>
   </g>
   <g id="matplotlib.axis_1">
    <g id="xtick_1">
     <g id="line2d_1">
      <path clip-path="url(#pc3e7e7ee46)" d="M 91.367961 351.490909 
L 91.367961 86.4 
" style="fill:none;stroke:#cbcbcb;"/>
     </g>
     <g id="line2d_2"/>
     <g id="text_1">
      <!-- 0.00 -->
      <defs>
       <path d="M 31.78125 66.40625 
Q 24.171875 66.40625 20.328125 58.90625 
Q 16.5 51.421875 16.5 36.375 
Q 16.5 21.390625 20.328125 13.890625 
Q 24.171875 6.390625 31.78125 6.390625 
Q 39.453125 6.390625 43.28125 13.890625 
Q 47.125 21.390625 47.125 36.375 
Q 47.125 51.421875 43.28125 58.90625 
Q 39.453125 66.40625 31.78125 66.40625 
z
M 31.78125 74.21875 
Q 44.046875 74.21875 50.515625 64.515625 
Q 56.984375 54.828125 56.984375 36.375 
Q 56.984375 17.96875 50.515625 8.265625 
Q 44.046875 -1.421875 31.78125 -1.421875 
Q 19.53125 -1.421875 13.0625 8.265625 
Q 6.59375 17.96875 6.59375 36.375 
Q 6.59375 54.828125 13.0625 64.515625 
Q 19.53125 74.21875 31.78125 74.21875 
z
" id="DejaVuSans-30"/>
       <path d="M 10.6875 12.40625 
L 21 12.40625 
L 21 0 
L 10.6875 0 
z
" id="DejaVuSans-2e"/>
      </defs>
      <g transform="translate(75.782023 365.628722)scale(0.14 -0.14)">
       <use xlink:href="#DejaVuSans-30"/>
       <use x="63.623047" xlink:href="#DejaVuSans-2e"/>
       <use x="95.410156" xlink:href="#DejaVuSans-30"/>
       <use x="159.033203" xlink:href="#DejaVuSans-30"/>
      </g>
     </g>
    </g>
    <g id="xtick_2">
     <g id="line2d_3">
      <path clip-path="url(#pc3e7e7ee46)" d="M 158.734501 351.490909 
L 158.734501 86.4 
" style="fill:none;stroke:#cbcbcb;"/>
     </g>
     <g id="line2d_4"/>
     <g id="text_2">
      <!-- 0.02 -->
      <defs>
       <path d="M 19.1875 8.296875 
L 53.609375 8.296875 
L 53.609375 0 
L 7.328125 0 
L 7.328125 8.296875 
Q 12.9375 14.109375 22.625 23.890625 
Q 32.328125 33.6875 34.8125 36.53125 
Q 39.546875 41.84375 41.421875 45.53125 
Q 43.3125 49.21875 43.3125 52.78125 
Q 43.3125 58.59375 39.234375 62.25 
Q 35.15625 65.921875 28.609375 65.921875 
Q 23.96875 65.921875 18.8125 64.3125 
Q 13.671875 62.703125 7.8125 59.421875 
L 7.8125 69.390625 
Q 13.765625 71.78125 18.9375 73 
Q 24.125 74.21875 28.421875 74.21875 
Q 39.75 74.21875 46.484375 68.546875 
Q 53.21875 62.890625 53.21875 53.421875 
Q 53.21875 48.921875 51.53125 44.890625 
Q 49.859375 40.875 45.40625 35.40625 
Q 44.1875 33.984375 37.640625 27.21875 
Q 31.109375 20.453125 19.1875 8.296875 
z
" id="DejaVuSans-32"/>
      </defs>
      <g transform="translate(143.148563 365.628722)scale(0.14 -0.14)">
       <use xlink:href="#DejaVuSans-30"/>
       <use x="63.623047" xlink:href="#DejaVuSans-2e"/>
       <use x="95.410156" xlink:href="#DejaVuSans-30"/>
       <use x="159.033203" xlink:href="#DejaVuSans-32"/>
      </g>
     </g>
    </g>
    <g id="xtick_3">
     <g id="line2d_5">
      <path clip-path="url(#pc3e7e7ee46)" d="M 226.101041 351.490909 
L 226.101041 86.4 
" style="fill:none;stroke:#cbcbcb;"/>
     </g>
     <g id="line2d_6"/>
     <g id="text_3">
      <!-- 0.04 -->
      <defs>
       <path d="M 37.796875 64.3125 
L 12.890625 25.390625 
L 37.796875 25.390625 
z
M 35.203125 72.90625 
L 47.609375 72.90625 
L 47.609375 25.390625 
L 58.015625 25.390625 
L 58.015625 17.1875 
L 47.609375 17.1875 
L 47.609375 0 
L 37.796875 0 
L 37.796875 17.1875 
L 4.890625 17.1875 
L 4.890625 26.703125 
z
" id="DejaVuSans-34"/>
      </defs>
      <g transform="translate(210.515103 365.628722)scale(0.14 -0.14)">
       <use xlink:href="#DejaVuSans-30"/>
       <use x="63.623047" xlink:href="#DejaVuSans-2e"/>
       <use x="95.410156" xlink:href="#DejaVuSans-30"/>
       <use x="159.033203" xlink:href="#DejaVuSans-34"/>
      </g>
     </g>
    </g>
    <g id="xtick_4">
     <g id="line2d_7">
      <path clip-path="url(#pc3e7e7ee46)" d="M 293.467581 351.490909 
L 293.467581 86.4 
" style="fill:none;stroke:#cbcbcb;"/>
     </g>
     <g id="line2d_8"/>
     <g id="text_4">
      <!-- 0.06 -->
      <defs>
       <path d="M 33.015625 40.375 
Q 26.375 40.375 22.484375 35.828125 
Q 18.609375 31.296875 18.609375 23.390625 
Q 18.609375 15.53125 22.484375 10.953125 
Q 26.375 6.390625 33.015625 6.390625 
Q 39.65625 6.390625 43.53125 10.953125 
Q 47.40625 15.53125 47.40625 23.390625 
Q 47.40625 31.296875 43.53125 35.828125 
Q 39.65625 40.375 33.015625 40.375 
z
M 52.59375 71.296875 
L 52.59375 62.3125 
Q 48.875 64.0625 45.09375 64.984375 
Q 41.3125 65.921875 37.59375 65.921875 
Q 27.828125 65.921875 22.671875 59.328125 
Q 17.53125 52.734375 16.796875 39.40625 
Q 19.671875 43.65625 24.015625 45.921875 
Q 28.375 48.1875 33.59375 48.1875 
Q 44.578125 48.1875 50.953125 41.515625 
Q 57.328125 34.859375 57.328125 23.390625 
Q 57.328125 12.15625 50.6875 5.359375 
Q 44.046875 -1.421875 33.015625 -1.421875 
Q 20.359375 -1.421875 13.671875 8.265625 
Q 6.984375 17.96875 6.984375 36.375 
Q 6.984375 53.65625 15.1875 63.9375 
Q 23.390625 74.21875 37.203125 74.21875 
Q 40.921875 74.21875 44.703125 73.484375 
Q 48.484375 72.75 52.59375 71.296875 
z
" id="DejaVuSans-36"/>
      </defs>
      <g transform="translate(277.881643 365.628722)scale(0.14 -0.14)">
       <use xlink:href="#DejaVuSans-30"/>
       <use x="63.623047" xlink:href="#DejaVuSans-2e"/>
       <use x="95.410156" xlink:href="#DejaVuSans-30"/>
       <use x="159.033203" xlink:href="#DejaVuSans-36"/>
      </g>
     </g>
    </g>
    <g id="xtick_5">
     <g id="line2d_9">
      <path clip-path="url(#pc3e7e7ee46)" d="M 360.834121 351.490909 
L 360.834121 86.4 
" style="fill:none;stroke:#cbcbcb;"/>
     </g>
     <g id="line2d_10"/>
     <g id="text_5">
      <!-- 0.08 -->
      <defs>
       <path d="M 31.78125 34.625 
Q 24.75 34.625 20.71875 30.859375 
Q 16.703125 27.09375 16.703125 20.515625 
Q 16.703125 13.921875 20.71875 10.15625 
Q 24.75 6.390625 31.78125 6.390625 
Q 38.8125 6.390625 42.859375 10.171875 
Q 46.921875 13.96875 46.921875 20.515625 
Q 46.921875 27.09375 42.890625 30.859375 
Q 38.875 34.625 31.78125 34.625 
z
M 21.921875 38.8125 
Q 15.578125 40.375 12.03125 44.71875 
Q 8.5 49.078125 8.5 55.328125 
Q 8.5 64.0625 14.71875 69.140625 
Q 20.953125 74.21875 31.78125 74.21875 
Q 42.671875 74.21875 48.875 69.140625 
Q 55.078125 64.0625 55.078125 55.328125 
Q 55.078125 49.078125 51.53125 44.71875 
Q 48 40.375 41.703125 38.8125 
Q 48.828125 37.15625 52.796875 32.3125 
Q 56.78125 27.484375 56.78125 20.515625 
Q 56.78125 9.90625 50.3125 4.234375 
Q 43.84375 -1.421875 31.78125 -1.421875 
Q 19.734375 -1.421875 13.25 4.234375 
Q 6.78125 9.90625 6.78125 20.515625 
Q 6.78125 27.484375 10.78125 32.3125 
Q 14.796875 37.15625 21.921875 38.8125 
z
M 18.3125 54.390625 
Q 18.3125 48.734375 21.84375 45.5625 
Q 25.390625 42.390625 31.78125 42.390625 
Q 38.140625 42.390625 41.71875 45.5625 
Q 45.3125 48.734375 45.3125 54.390625 
Q 45.3125 60.0625 41.71875 63.234375 
Q 38.140625 66.40625 31.78125 66.40625 
Q 25.390625 66.40625 21.84375 63.234375 
Q 18.3125 60.0625 18.3125 54.390625 
z
" id="DejaVuSans-38"/>
      </defs>
      <g transform="translate(345.248184 365.628722)scale(0.14 -0.14)">
       <use xlink:href="#DejaVuSans-30"/>
       <use x="63.623047" xlink:href="#DejaVuSans-2e"/>
       <use x="95.410156" xlink:href="#DejaVuSans-30"/>
       <use x="159.033203" xlink:href="#DejaVuSans-38"/>
      </g>
     </g>
    </g>
    <g id="xtick_6">
     <g id="line2d_11">
      <path clip-path="url(#pc3e7e7ee46)" d="M 428.200661 351.490909 
L 428.200661 86.4 
" style="fill:none;stroke:#cbcbcb;"/>
     </g>
     <g id="line2d_12"/>
     <g id="text_6">
      <!-- 0.10 -->
      <defs>
       <path d="M 12.40625 8.296875 
L 28.515625 8.296875 
L 28.515625 63.921875 
L 10.984375 60.40625 
L 10.984375 69.390625 
L 28.421875 72.90625 
L 38.28125 72.90625 
L 38.28125 8.296875 
L 54.390625 8.296875 
L 54.390625 0 
L 12.40625 0 
z
" id="DejaVuSans-31"/>
      </defs>
      <g transform="translate(412.614724 365.628722)scale(0.14 -0.14)">
       <use xlink:href="#DejaVuSans-30"/>
       <use x="63.623047" xlink:href="#DejaVuSans-2e"/>
       <use x="95.410156" xlink:href="#DejaVuSans-31"/>
       <use x="159.033203" xlink:href="#DejaVuSans-30"/>
      </g>
     </g>
    </g>
   </g>
   <g id="matplotlib.axis_2">
    <g id="ytick_1">
     <g id="line2d_13">
      <path clip-path="url(#pc3e7e7ee46)" d="M 74.88 322.668847 
L 445.025455 322.668847 
" style="fill:none;stroke:#cbcbcb;"/>
     </g>
     <g id="line2d_14"/>
     <g id="text_7">
      <!-- 0.000025 -->
      <defs>
       <path d="M 10.796875 72.90625 
L 49.515625 72.90625 
L 49.515625 64.59375 
L 19.828125 64.59375 
L 19.828125 46.734375 
Q 21.96875 47.46875 24.109375 47.828125 
Q 26.265625 48.1875 28.421875 48.1875 
Q 40.625 48.1875 47.75 41.5 
Q 54.890625 34.8125 54.890625 23.390625 
Q 54.890625 11.625 47.5625 5.09375 
Q 40.234375 -1.421875 26.90625 -1.421875 
Q 22.3125 -1.421875 17.546875 -0.640625 
Q 12.796875 0.140625 7.71875 1.703125 
L 7.71875 11.625 
Q 12.109375 9.234375 16.796875 8.0625 
Q 21.484375 6.890625 26.703125 6.890625 
Q 35.15625 6.890625 40.078125 11.328125 
Q 45.015625 15.765625 45.015625 23.390625 
Q 45.015625 31 40.078125 35.4375 
Q 35.15625 39.890625 26.703125 39.890625 
Q 22.75 39.890625 18.8125 39.015625 
Q 14.890625 38.140625 10.796875 36.28125 
z
" id="DejaVuSans-35"/>
      </defs>
      <g transform="translate(4.578125 327.987753)scale(0.14 -0.14)">
       <use xlink:href="#DejaVuSans-30"/>
       <use x="63.623047" xlink:href="#DejaVuSans-2e"/>
       <use x="95.410156" xlink:href="#DejaVuSans-30"/>
       <use x="159.033203" xlink:href="#DejaVuSans-30"/>
       <use x="222.65625" xlink:href="#DejaVuSans-30"/>
       <use x="286.279297" xlink:href="#DejaVuSans-30"/>
       <use x="349.902344" xlink:href="#DejaVuSans-32"/>
       <use x="413.525391" xlink:href="#DejaVuSans-35"/>
      </g>
     </g>
    </g>
    <g id="ytick_2">
     <g id="line2d_15">
      <path clip-path="url(#pc3e7e7ee46)" d="M 74.88 286.671959 
L 445.025455 286.671959 
" style="fill:none;stroke:#cbcbcb;"/>
     </g>
     <g id="line2d_16"/>
     <g id="text_8">
      <!-- 0.000050 -->
      <g transform="translate(4.578125 291.990866)scale(0.14 -0.14)">
       <use xlink:href="#DejaVuSans-30"/>
       <use x="63.623047" xlink:href="#DejaVuSans-2e"/>
       <use x="95.410156" xlink:href="#DejaVuSans-30"/>
       <use x="159.033203" xlink:href="#DejaVuSans-30"/>
       <use x="222.65625" xlink:href="#DejaVuSans-30"/>
       <use x="286.279297" xlink:href="#DejaVuSans-30"/>
       <use x="349.902344" xlink:href="#DejaVuSans-35"/>
       <use x="413.525391" xlink:href="#DejaVuSans-30"/>
      </g>
     </g>
    </g>
    <g id="ytick_3">
     <g id="line2d_17">
      <path clip-path="url(#pc3e7e7ee46)" d="M 74.88 250.675072 
L 445.025455 250.675072 
" style="fill:none;stroke:#cbcbcb;"/>
     </g>
     <g id="line2d_18"/>
     <g id="text_9">
      <!-- 0.000075 -->
      <defs>
       <path d="M 8.203125 72.90625 
L 55.078125 72.90625 
L 55.078125 68.703125 
L 28.609375 0 
L 18.3125 0 
L 43.21875 64.59375 
L 8.203125 64.59375 
z
" id="DejaVuSans-37"/>
      </defs>
      <g transform="translate(4.578125 255.993978)scale(0.14 -0.14)">
       <use xlink:href="#DejaVuSans-30"/>
       <use x="63.623047" xlink:href="#DejaVuSans-2e"/>
       <use x="95.410156" xlink:href="#DejaVuSans-30"/>
       <use x="159.033203" xlink:href="#DejaVuSans-30"/>
       <use x="222.65625" xlink:href="#DejaVuSans-30"/>
       <use x="286.279297" xlink:href="#DejaVuSans-30"/>
       <use x="349.902344" xlink:href="#DejaVuSans-37"/>
       <use x="413.525391" xlink:href="#DejaVuSans-35"/>
      </g>
     </g>
    </g>
    <g id="ytick_4">
     <g id="line2d_19">
      <path clip-path="url(#pc3e7e7ee46)" d="M 74.88 214.678184 
L 445.025455 214.678184 
" style="fill:none;stroke:#cbcbcb;"/>
     </g>
     <g id="line2d_20"/>
     <g id="text_10">
      <!-- 0.000100 -->
      <g transform="translate(4.578125 219.997091)scale(0.14 -0.14)">
       <use xlink:href="#DejaVuSans-30"/>
       <use x="63.623047" xlink:href="#DejaVuSans-2e"/>
       <use x="95.410156" xlink:href="#DejaVuSans-30"/>
       <use x="159.033203" xlink:href="#DejaVuSans-30"/>
       <use x="222.65625" xlink:href="#DejaVuSans-30"/>
       <use x="286.279297" xlink:href="#DejaVuSans-31"/>
       <use x="349.902344" xlink:href="#DejaVuSans-30"/>
       <use x="413.525391" xlink:href="#DejaVuSans-30"/>
      </g>
     </g>
    </g>
    <g id="ytick_5">
     <g id="line2d_21">
      <path clip-path="url(#pc3e7e7ee46)" d="M 74.88 178.681297 
L 445.025455 178.681297 
" style="fill:none;stroke:#cbcbcb;"/>
     </g>
     <g id="line2d_22"/>
     <g id="text_11">
      <!-- 0.000125 -->
      <g transform="translate(4.578125 184.000203)scale(0.14 -0.14)">
       <use xlink:href="#DejaVuSans-30"/>
       <use x="63.623047" xlink:href="#DejaVuSans-2e"/>
       <use x="95.410156" xlink:href="#DejaVuSans-30"/>
       <use x="159.033203" xlink:href="#DejaVuSans-30"/>
       <use x="222.65625" xlink:href="#DejaVuSans-30"/>
       <use x="286.279297" xlink:href="#DejaVuSans-31"/>
       <use x="349.902344" xlink:href="#DejaVuSans-32"/>
       <use x="413.525391" xlink:href="#DejaVuSans-35"/>
      </g>
     </g>
    </g>
    <g id="ytick_6">
     <g id="line2d_23">
      <path clip-path="url(#pc3e7e7ee46)" d="M 74.88 142.684409 
L 445.025455 142.684409 
" style="fill:none;stroke:#cbcbcb;"/>
     </g>
     <g id="line2d_24"/>
     <g id="text_12">
      <!-- 0.000150 -->
      <g transform="translate(4.578125 148.003316)scale(0.14 -0.14)">
       <use xlink:href="#DejaVuSans-30"/>
       <use x="63.623047" xlink:href="#DejaVuSans-2e"/>
       <use x="95.410156" xlink:href="#DejaVuSans-30"/>
       <use x="159.033203" xlink:href="#DejaVuSans-30"/>
       <use x="222.65625" xlink:href="#DejaVuSans-30"/>
       <use x="286.279297" xlink:href="#DejaVuSans-31"/>
       <use x="349.902344" xlink:href="#DejaVuSans-35"/>
       <use x="413.525391" xlink:href="#DejaVuSans-30"/>
      </g>
     </g>
    </g>
    <g id="ytick_7">
     <g id="line2d_25">
      <path clip-path="url(#pc3e7e7ee46)" d="M 74.88 106.687522 
L 445.025455 106.687522 
" style="fill:none;stroke:#cbcbcb;"/>
     </g>
     <g id="line2d_26"/>
     <g id="text_13">
      <!-- 0.000175 -->
      <g transform="translate(4.578125 112.006428)scale(0.14 -0.14)">
       <use xlink:href="#DejaVuSans-30"/>
       <use x="63.623047" xlink:href="#DejaVuSans-2e"/>
       <use x="95.410156" xlink:href="#DejaVuSans-30"/>
       <use x="159.033203" xlink:href="#DejaVuSans-30"/>
       <use x="222.65625" xlink:href="#DejaVuSans-30"/>
       <use x="286.279297" xlink:href="#DejaVuSans-31"/>
       <use x="349.902344" xlink:href="#DejaVuSans-37"/>
       <use x="413.525391" xlink:href="#DejaVuSans-35"/>
      </g>
     </g>
    </g>
   </g>
   <g id="line2d_27">
    <path clip-path="url(#pc3e7e7ee46)" d="M 428.200661 320.21691 
L 125.051231 332.232168 
L 94.736288 326.739479 
L 91.704793 320.903497 
" style="fill:none;stroke:#008fd5;stroke-width:4;"/>
   </g>
   <g id="line2d_28">
    <path clip-path="url(#pc3e7e7ee46)" d="M 428.200661 229.930833 
L 125.051231 205.557025 
L 94.736288 282.797966 
L 91.704793 98.449587 
" style="fill:none;stroke:#fc4f30;stroke-width:4;"/>
   </g>
   <g id="line2d_29">
    <path clip-path="url(#pc3e7e7ee46)" d="M 428.200661 159.899046 
L 125.051231 287.260776 
L 94.736288 269.066243 
L 91.704793 241.259504 
" style="fill:none;stroke:#e5ae38;stroke-width:4;"/>
   </g>
   <g id="line2d_30">
    <path clip-path="url(#pc3e7e7ee46)" d="M 428.200661 338.754736 
L 125.051231 312.664463 
L 94.736288 289.663827 
L 91.704793 339.441322 
" style="fill:none;stroke:#6d904f;stroke-width:4;"/>
   </g>
   <g id="patch_3">
    <path d="M 74.88 351.490909 
L 74.88 86.4 
" style="fill:none;stroke:#f0f0f0;stroke-linecap:square;stroke-linejoin:miter;stroke-width:3;"/>
   </g>
   <g id="patch_4">
    <path d="M 445.025455 351.490909 
L 445.025455 86.4 
" style="fill:none;stroke:#f0f0f0;stroke-linecap:square;stroke-linejoin:miter;stroke-width:3;"/>
   </g>
   <g id="patch_5">
    <path d="M 74.88 351.490909 
L 445.025455 351.490909 
" style="fill:none;stroke:#f0f0f0;stroke-linecap:square;stroke-linejoin:miter;stroke-width:3;"/>
   </g>
   <g id="patch_6">
    <path d="M 74.88 86.4 
L 445.025455 86.4 
" style="fill:none;stroke:#f0f0f0;stroke-linecap:square;stroke-linejoin:miter;stroke-width:3;"/>
   </g>
   <g id="text_14">
    <g id="patch_7">
     <path d="M 251.552727 384.971563 
L 268.352727 384.971563 
L 268.352727 363.302188 
L 251.552727 363.302188 
z
" style="fill:#f0f0f0;stroke:#f0f0f0;stroke-linejoin:miter;stroke-width:0.5;"/>
    </g>
    <!-- $\delta$ -->
    <defs>
     <path d="M 54.25 63.328125 
Q 49.953125 66.75 38.28125 66.75 
Q 25.921875 66.75 24.8125 61.03125 
Q 23.921875 56.546875 36.375 54.203125 
Q 46.140625 52.390625 50.828125 46.921875 
Q 56.5 40.328125 53.859375 26.8125 
Q 51.3125 13.875 43.171875 6.25 
Q 34.96875 -1.421875 23.25 -1.421875 
Q 11.578125 -1.421875 6.34375 6.25 
Q 1.125 13.875 3.765625 27.296875 
Q 5.671875 37.25 13.921875 45.3125 
Q 17.140625 48.4375 21.140625 50.203125 
Q 14.265625 54.046875 15.625 60.9375 
Q 18.21875 74.21875 39.75 74.21875 
Q 50.53125 74.21875 55.71875 70.796875 
z
M 27.390625 47.75 
Q 23.828125 46.34375 20.40625 42.78125 
Q 15.140625 37.25 13.234375 27.296875 
Q 11.28125 17.390625 14.359375 11.8125 
Q 17.484375 6.203125 24.75 6.203125 
Q 31.9375 6.203125 37.203125 11.859375 
Q 42.53125 17.53125 44.34375 26.8125 
Q 46.1875 36.53125 42.671875 41.21875 
Q 38.921875 46.234375 32.859375 46.78125 
Q 29.78125 47.078125 27.390625 47.75 
z
" id="DejaVuSans-Oblique-3b4"/>
    </defs>
    <g transform="translate(255.612727 378)scale(0.14 -0.14)">
     <use transform="translate(0 0.78125)" xlink:href="#DejaVuSans-Oblique-3b4"/>
    </g>
   </g>
   <g id="text_15">
    <g id="patch_8">
     <path d="M 11.685597 265.287642 
L 11.685597 204.247642 
L -9.983778 204.247642 
L -9.983778 265.287642 
z
" style="fill:#f0f0f0;stroke:#f0f0f0;stroke-linejoin:miter;stroke-width:0.5;"/>
    </g>
    <!-- $Time [s]$ -->
    <defs>
     <path d="M 5.90625 72.90625 
L 67.578125 72.90625 
L 66.015625 64.59375 
L 39.984375 64.59375 
L 27.484375 0 
L 17.578125 0 
L 30.078125 64.59375 
L 4.296875 64.59375 
z
" id="DejaVuSans-Oblique-54"/>
     <path d="M 18.3125 75.984375 
L 27.296875 75.984375 
L 25.09375 64.59375 
L 16.109375 64.59375 
z
M 14.203125 54.6875 
L 23.1875 54.6875 
L 12.5 0 
L 3.515625 0 
z
" id="DejaVuSans-Oblique-69"/>
     <path d="M 89.796875 33.015625 
L 83.40625 0 
L 74.421875 0 
L 80.71875 32.71875 
Q 81.109375 34.8125 81.296875 36.328125 
Q 81.5 37.84375 81.5 38.921875 
Q 81.5 43.3125 79.046875 45.75 
Q 76.609375 48.1875 72.21875 48.1875 
Q 65.671875 48.1875 60.546875 43.28125 
Q 55.421875 38.375 53.90625 30.515625 
L 47.90625 0 
L 38.921875 0 
L 45.3125 32.71875 
Q 45.703125 34.515625 45.890625 36.046875 
Q 46.09375 37.59375 46.09375 38.8125 
Q 46.09375 43.265625 43.65625 45.71875 
Q 41.21875 48.1875 36.921875 48.1875 
Q 30.28125 48.1875 25.140625 43.28125 
Q 20.015625 38.375 18.5 30.515625 
L 12.5 0 
L 3.515625 0 
L 14.203125 54.6875 
L 23.1875 54.6875 
L 21.484375 46.1875 
Q 25.140625 50.984375 30.046875 53.484375 
Q 34.96875 56 40.578125 56 
Q 46.53125 56 50.359375 52.875 
Q 54.203125 49.75 54.984375 44.1875 
Q 59.078125 49.953125 64.46875 52.96875 
Q 69.875 56 75.875 56 
Q 82.90625 56 86.734375 51.953125 
Q 90.578125 47.90625 90.578125 40.484375 
Q 90.578125 38.875 90.375 36.9375 
Q 90.1875 35.015625 89.796875 33.015625 
z
" id="DejaVuSans-Oblique-6d"/>
     <path d="M 48.09375 32.234375 
Q 48.25 33.015625 48.3125 33.84375 
Q 48.390625 34.671875 48.390625 35.5 
Q 48.390625 41.453125 44.890625 44.921875 
Q 41.40625 48.390625 35.40625 48.390625 
Q 28.71875 48.390625 23.578125 44.15625 
Q 18.453125 39.9375 15.828125 32.171875 
z
M 55.90625 25.203125 
L 14.109375 25.203125 
Q 13.8125 23.34375 13.71875 22.265625 
Q 13.625 21.1875 13.625 20.40625 
Q 13.625 13.625 17.796875 9.90625 
Q 21.96875 6.203125 29.59375 6.203125 
Q 35.453125 6.203125 40.671875 7.515625 
Q 45.90625 8.84375 50.390625 11.375 
L 48.6875 2.484375 
Q 43.84375 0.53125 38.6875 -0.4375 
Q 33.546875 -1.421875 28.21875 -1.421875 
Q 16.84375 -1.421875 10.71875 4.015625 
Q 4.59375 9.46875 4.59375 19.484375 
Q 4.59375 28.03125 7.640625 35.375 
Q 10.6875 42.71875 16.609375 48.484375 
Q 20.40625 52.09375 25.65625 54.046875 
Q 30.90625 56 36.8125 56 
Q 46.09375 56 51.578125 50.4375 
Q 57.078125 44.875 57.078125 35.5 
Q 57.078125 33.25 56.78125 30.6875 
Q 56.5 28.125 55.90625 25.203125 
z
" id="DejaVuSans-Oblique-65"/>
     <path d="M 8.59375 75.984375 
L 29.296875 75.984375 
L 29.296875 69 
L 17.578125 69 
L 17.578125 -6.203125 
L 29.296875 -6.203125 
L 29.296875 -13.1875 
L 8.59375 -13.1875 
z
" id="DejaVuSans-5b"/>
     <path d="M 50 53.078125 
L 48.296875 44.578125 
Q 44.734375 46.53125 40.765625 47.5 
Q 36.8125 48.484375 32.625 48.484375 
Q 25.53125 48.484375 21.453125 46.0625 
Q 17.390625 43.65625 17.390625 39.5 
Q 17.390625 34.671875 26.859375 32.078125 
Q 27.59375 31.890625 27.9375 31.78125 
L 30.8125 30.90625 
Q 39.796875 28.421875 42.796875 25.6875 
Q 45.796875 22.953125 45.796875 18.21875 
Q 45.796875 9.515625 38.890625 4.046875 
Q 31.984375 -1.421875 20.796875 -1.421875 
Q 16.453125 -1.421875 11.671875 -0.578125 
Q 6.890625 0.25 1.125 2 
L 2.875 11.28125 
Q 7.8125 8.734375 12.59375 7.421875 
Q 17.390625 6.109375 21.78125 6.109375 
Q 28.375 6.109375 32.5 8.9375 
Q 36.625 11.765625 36.625 16.109375 
Q 36.625 20.796875 25.78125 23.6875 
L 24.859375 23.921875 
L 21.78125 24.703125 
Q 14.9375 26.515625 11.765625 29.46875 
Q 8.59375 32.421875 8.59375 37.015625 
Q 8.59375 45.75 15.15625 50.875 
Q 21.734375 56 33.015625 56 
Q 37.453125 56 41.671875 55.265625 
Q 45.90625 54.546875 50 53.078125 
z
" id="DejaVuSans-Oblique-73"/>
     <path d="M 30.421875 75.984375 
L 30.421875 -13.1875 
L 9.71875 -13.1875 
L 9.71875 -6.203125 
L 21.390625 -6.203125 
L 21.390625 69 
L 9.71875 69 
L 9.71875 75.984375 
z
" id="DejaVuSans-5d"/>
    </defs>
    <g transform="translate(4.714034 261.227642)rotate(-90)scale(0.14 -0.14)">
     <use transform="translate(0 0.015625)" xlink:href="#DejaVuSans-Oblique-54"/>
     <use transform="translate(61.083984 0.015625)" xlink:href="#DejaVuSans-Oblique-69"/>
     <use transform="translate(88.867188 0.015625)" xlink:href="#DejaVuSans-Oblique-6d"/>
     <use transform="translate(186.279297 0.015625)" xlink:href="#DejaVuSans-Oblique-65"/>
     <use transform="translate(247.802734 0.015625)" xlink:href="#DejaVuSans-5b"/>
     <use transform="translate(286.816406 0.015625)" xlink:href="#DejaVuSans-Oblique-73"/>
     <use transform="translate(338.916016 0.015625)" xlink:href="#DejaVuSans-5d"/>
    </g>
   </g>
   <g id="text_16">
    <!-- $f(x)=x^2-2$ -->
    <defs>
     <path d="M 47.796875 75.984375 
L 46.390625 68.5 
L 37.796875 68.5 
Q 32.90625 68.5 30.6875 66.578125 
Q 28.46875 64.65625 27.390625 59.515625 
L 26.421875 54.6875 
L 41.21875 54.6875 
L 39.890625 47.703125 
L 25.09375 47.703125 
L 15.828125 0 
L 6.78125 0 
L 16.109375 47.703125 
L 7.515625 47.703125 
L 8.796875 54.6875 
L 17.390625 54.6875 
L 18.109375 58.5 
Q 19.96875 68.171875 24.625 72.078125 
Q 29.296875 75.984375 39.3125 75.984375 
z
" id="DejaVuSans-Oblique-66"/>
     <path d="M 31 75.875 
Q 24.46875 64.65625 21.28125 53.65625 
Q 18.109375 42.671875 18.109375 31.390625 
Q 18.109375 20.125 21.3125 9.0625 
Q 24.515625 -2 31 -13.1875 
L 23.1875 -13.1875 
Q 15.875 -1.703125 12.234375 9.375 
Q 8.59375 20.453125 8.59375 31.390625 
Q 8.59375 42.28125 12.203125 53.3125 
Q 15.828125 64.359375 23.1875 75.875 
z
" id="DejaVuSans-28"/>
     <path d="M 60.015625 54.6875 
L 34.90625 27.875 
L 50.296875 0 
L 39.984375 0 
L 28.421875 21.6875 
L 8.296875 0 
L -2.59375 0 
L 24.3125 28.8125 
L 10.015625 54.6875 
L 20.3125 54.6875 
L 30.8125 34.90625 
L 49.125 54.6875 
z
" id="DejaVuSans-Oblique-78"/>
     <path d="M 8.015625 75.875 
L 15.828125 75.875 
Q 23.140625 64.359375 26.78125 53.3125 
Q 30.421875 42.28125 30.421875 31.390625 
Q 30.421875 20.453125 26.78125 9.375 
Q 23.140625 -1.703125 15.828125 -13.1875 
L 8.015625 -13.1875 
Q 14.5 -2 17.703125 9.0625 
Q 20.90625 20.125 20.90625 31.390625 
Q 20.90625 42.671875 17.703125 53.65625 
Q 14.5 64.65625 8.015625 75.875 
z
" id="DejaVuSans-29"/>
     <path d="M 10.59375 45.40625 
L 73.1875 45.40625 
L 73.1875 37.203125 
L 10.59375 37.203125 
z
M 10.59375 25.484375 
L 73.1875 25.484375 
L 73.1875 17.1875 
L 10.59375 17.1875 
z
" id="DejaVuSans-3d"/>
     <path d="M 10.59375 35.5 
L 73.1875 35.5 
L 73.1875 27.203125 
L 10.59375 27.203125 
z
" id="DejaVuSans-2212"/>
    </defs>
    <g style="fill:#ff0000;" transform="translate(259.952727 271.963636)scale(0.2 -0.2)">
     <use transform="translate(0 0.765625)" xlink:href="#DejaVuSans-Oblique-66"/>
     <use transform="translate(35.205078 0.765625)" xlink:href="#DejaVuSans-28"/>
     <use transform="translate(74.21875 0.765625)" xlink:href="#DejaVuSans-Oblique-78"/>
     <use transform="translate(133.398438 0.765625)" xlink:href="#DejaVuSans-29"/>
     <use transform="translate(191.894531 0.765625)" xlink:href="#DejaVuSans-3d"/>
     <use transform="translate(295.166016 0.765625)" xlink:href="#DejaVuSans-Oblique-78"/>
     <use transform="translate(358.811849 39.046875)scale(0.7)" xlink:href="#DejaVuSans-32"/>
     <use transform="translate(425.564779 0.765625)" xlink:href="#DejaVuSans-2212"/>
     <use transform="translate(528.836263 0.765625)" xlink:href="#DejaVuSans-32"/>
    </g>
   </g>
   <g id="legend_1">
    <g id="patch_9">
     <path d="M 177.115384 179.7975 
L 342.790071 179.7975 
Q 345.590071 179.7975 345.590071 176.9975 
L 345.590071 96.2 
Q 345.590071 93.4 342.790071 93.4 
L 177.115384 93.4 
Q 174.315384 93.4 174.315384 96.2 
L 174.315384 176.9975 
Q 174.315384 179.7975 177.115384 179.7975 
z
" style="fill:#f0f0f0;opacity:0.8;stroke:#cccccc;stroke-linejoin:miter;stroke-width:0.5;"/>
    </g>
    <g id="line2d_31">
     <path d="M 179.915384 104.737812 
L 207.915384 104.737812 
" style="fill:none;stroke:#008fd5;stroke-width:4;"/>
    </g>
    <g id="line2d_32"/>
    <g id="text_17">
     <!-- Bisection Method -->
     <defs>
      <path d="M 19.671875 34.8125 
L 19.671875 8.109375 
L 35.5 8.109375 
Q 43.453125 8.109375 47.28125 11.40625 
Q 51.125 14.703125 51.125 21.484375 
Q 51.125 28.328125 47.28125 31.5625 
Q 43.453125 34.8125 35.5 34.8125 
z
M 19.671875 64.796875 
L 19.671875 42.828125 
L 34.28125 42.828125 
Q 41.5 42.828125 45.03125 45.53125 
Q 48.578125 48.25 48.578125 53.8125 
Q 48.578125 59.328125 45.03125 62.0625 
Q 41.5 64.796875 34.28125 64.796875 
z
M 9.8125 72.90625 
L 35.015625 72.90625 
Q 46.296875 72.90625 52.390625 68.21875 
Q 58.5 63.53125 58.5 54.890625 
Q 58.5 48.1875 55.375 44.234375 
Q 52.25 40.28125 46.1875 39.3125 
Q 53.46875 37.75 57.5 32.78125 
Q 61.53125 27.828125 61.53125 20.40625 
Q 61.53125 10.640625 54.890625 5.3125 
Q 48.25 0 35.984375 0 
L 9.8125 0 
z
" id="DejaVuSans-42"/>
      <path d="M 9.421875 54.6875 
L 18.40625 54.6875 
L 18.40625 0 
L 9.421875 0 
z
M 9.421875 75.984375 
L 18.40625 75.984375 
L 18.40625 64.59375 
L 9.421875 64.59375 
z
" id="DejaVuSans-69"/>
      <path d="M 44.28125 53.078125 
L 44.28125 44.578125 
Q 40.484375 46.53125 36.375 47.5 
Q 32.28125 48.484375 27.875 48.484375 
Q 21.1875 48.484375 17.84375 46.4375 
Q 14.5 44.390625 14.5 40.28125 
Q 14.5 37.15625 16.890625 35.375 
Q 19.28125 33.59375 26.515625 31.984375 
L 29.59375 31.296875 
Q 39.15625 29.25 43.1875 25.515625 
Q 47.21875 21.78125 47.21875 15.09375 
Q 47.21875 7.46875 41.1875 3.015625 
Q 35.15625 -1.421875 24.609375 -1.421875 
Q 20.21875 -1.421875 15.453125 -0.5625 
Q 10.6875 0.296875 5.421875 2 
L 5.421875 11.28125 
Q 10.40625 8.6875 15.234375 7.390625 
Q 20.0625 6.109375 24.8125 6.109375 
Q 31.15625 6.109375 34.5625 8.28125 
Q 37.984375 10.453125 37.984375 14.40625 
Q 37.984375 18.0625 35.515625 20.015625 
Q 33.0625 21.96875 24.703125 23.78125 
L 21.578125 24.515625 
Q 13.234375 26.265625 9.515625 29.90625 
Q 5.8125 33.546875 5.8125 39.890625 
Q 5.8125 47.609375 11.28125 51.796875 
Q 16.75 56 26.8125 56 
Q 31.78125 56 36.171875 55.265625 
Q 40.578125 54.546875 44.28125 53.078125 
z
" id="DejaVuSans-73"/>
      <path d="M 56.203125 29.59375 
L 56.203125 25.203125 
L 14.890625 25.203125 
Q 15.484375 15.921875 20.484375 11.0625 
Q 25.484375 6.203125 34.421875 6.203125 
Q 39.59375 6.203125 44.453125 7.46875 
Q 49.3125 8.734375 54.109375 11.28125 
L 54.109375 2.78125 
Q 49.265625 0.734375 44.1875 -0.34375 
Q 39.109375 -1.421875 33.890625 -1.421875 
Q 20.796875 -1.421875 13.15625 6.1875 
Q 5.515625 13.8125 5.515625 26.8125 
Q 5.515625 40.234375 12.765625 48.109375 
Q 20.015625 56 32.328125 56 
Q 43.359375 56 49.78125 48.890625 
Q 56.203125 41.796875 56.203125 29.59375 
z
M 47.21875 32.234375 
Q 47.125 39.59375 43.09375 43.984375 
Q 39.0625 48.390625 32.421875 48.390625 
Q 24.90625 48.390625 20.390625 44.140625 
Q 15.875 39.890625 15.1875 32.171875 
z
" id="DejaVuSans-65"/>
      <path d="M 48.78125 52.59375 
L 48.78125 44.1875 
Q 44.96875 46.296875 41.140625 47.34375 
Q 37.3125 48.390625 33.40625 48.390625 
Q 24.65625 48.390625 19.8125 42.84375 
Q 14.984375 37.3125 14.984375 27.296875 
Q 14.984375 17.28125 19.8125 11.734375 
Q 24.65625 6.203125 33.40625 6.203125 
Q 37.3125 6.203125 41.140625 7.25 
Q 44.96875 8.296875 48.78125 10.40625 
L 48.78125 2.09375 
Q 45.015625 0.34375 40.984375 -0.53125 
Q 36.96875 -1.421875 32.421875 -1.421875 
Q 20.0625 -1.421875 12.78125 6.34375 
Q 5.515625 14.109375 5.515625 27.296875 
Q 5.515625 40.671875 12.859375 48.328125 
Q 20.21875 56 33.015625 56 
Q 37.15625 56 41.109375 55.140625 
Q 45.0625 54.296875 48.78125 52.59375 
z
" id="DejaVuSans-63"/>
      <path d="M 18.3125 70.21875 
L 18.3125 54.6875 
L 36.8125 54.6875 
L 36.8125 47.703125 
L 18.3125 47.703125 
L 18.3125 18.015625 
Q 18.3125 11.328125 20.140625 9.421875 
Q 21.96875 7.515625 27.59375 7.515625 
L 36.8125 7.515625 
L 36.8125 0 
L 27.59375 0 
Q 17.1875 0 13.234375 3.875 
Q 9.28125 7.765625 9.28125 18.015625 
L 9.28125 47.703125 
L 2.6875 47.703125 
L 2.6875 54.6875 
L 9.28125 54.6875 
L 9.28125 70.21875 
z
" id="DejaVuSans-74"/>
      <path d="M 30.609375 48.390625 
Q 23.390625 48.390625 19.1875 42.75 
Q 14.984375 37.109375 14.984375 27.296875 
Q 14.984375 17.484375 19.15625 11.84375 
Q 23.34375 6.203125 30.609375 6.203125 
Q 37.796875 6.203125 41.984375 11.859375 
Q 46.1875 17.53125 46.1875 27.296875 
Q 46.1875 37.015625 41.984375 42.703125 
Q 37.796875 48.390625 30.609375 48.390625 
z
M 30.609375 56 
Q 42.328125 56 49.015625 48.375 
Q 55.71875 40.765625 55.71875 27.296875 
Q 55.71875 13.875 49.015625 6.21875 
Q 42.328125 -1.421875 30.609375 -1.421875 
Q 18.84375 -1.421875 12.171875 6.21875 
Q 5.515625 13.875 5.515625 27.296875 
Q 5.515625 40.765625 12.171875 48.375 
Q 18.84375 56 30.609375 56 
z
" id="DejaVuSans-6f"/>
      <path d="M 54.890625 33.015625 
L 54.890625 0 
L 45.90625 0 
L 45.90625 32.71875 
Q 45.90625 40.484375 42.875 44.328125 
Q 39.84375 48.1875 33.796875 48.1875 
Q 26.515625 48.1875 22.3125 43.546875 
Q 18.109375 38.921875 18.109375 30.90625 
L 18.109375 0 
L 9.078125 0 
L 9.078125 54.6875 
L 18.109375 54.6875 
L 18.109375 46.1875 
Q 21.34375 51.125 25.703125 53.5625 
Q 30.078125 56 35.796875 56 
Q 45.21875 56 50.046875 50.171875 
Q 54.890625 44.34375 54.890625 33.015625 
z
" id="DejaVuSans-6e"/>
      <path id="DejaVuSans-20"/>
      <path d="M 9.8125 72.90625 
L 24.515625 72.90625 
L 43.109375 23.296875 
L 61.8125 72.90625 
L 76.515625 72.90625 
L 76.515625 0 
L 66.890625 0 
L 66.890625 64.015625 
L 48.09375 14.015625 
L 38.1875 14.015625 
L 19.390625 64.015625 
L 19.390625 0 
L 9.8125 0 
z
" id="DejaVuSans-4d"/>
      <path d="M 54.890625 33.015625 
L 54.890625 0 
L 45.90625 0 
L 45.90625 32.71875 
Q 45.90625 40.484375 42.875 44.328125 
Q 39.84375 48.1875 33.796875 48.1875 
Q 26.515625 48.1875 22.3125 43.546875 
Q 18.109375 38.921875 18.109375 30.90625 
L 18.109375 0 
L 9.078125 0 
L 9.078125 75.984375 
L 18.109375 75.984375 
L 18.109375 46.1875 
Q 21.34375 51.125 25.703125 53.5625 
Q 30.078125 56 35.796875 56 
Q 45.21875 56 50.046875 50.171875 
Q 54.890625 44.34375 54.890625 33.015625 
z
" id="DejaVuSans-68"/>
      <path d="M 45.40625 46.390625 
L 45.40625 75.984375 
L 54.390625 75.984375 
L 54.390625 0 
L 45.40625 0 
L 45.40625 8.203125 
Q 42.578125 3.328125 38.25 0.953125 
Q 33.9375 -1.421875 27.875 -1.421875 
Q 17.96875 -1.421875 11.734375 6.484375 
Q 5.515625 14.40625 5.515625 27.296875 
Q 5.515625 40.1875 11.734375 48.09375 
Q 17.96875 56 27.875 56 
Q 33.9375 56 38.25 53.625 
Q 42.578125 51.265625 45.40625 46.390625 
z
M 14.796875 27.296875 
Q 14.796875 17.390625 18.875 11.75 
Q 22.953125 6.109375 30.078125 6.109375 
Q 37.203125 6.109375 41.296875 11.75 
Q 45.40625 17.390625 45.40625 27.296875 
Q 45.40625 37.203125 41.296875 42.84375 
Q 37.203125 48.484375 30.078125 48.484375 
Q 22.953125 48.484375 18.875 42.84375 
Q 14.796875 37.203125 14.796875 27.296875 
z
" id="DejaVuSans-64"/>
     </defs>
     <g transform="translate(219.115384 109.637812)scale(0.14 -0.14)">
      <use xlink:href="#DejaVuSans-42"/>
      <use x="68.603516" xlink:href="#DejaVuSans-69"/>
      <use x="96.386719" xlink:href="#DejaVuSans-73"/>
      <use x="148.486328" xlink:href="#DejaVuSans-65"/>
      <use x="210.009766" xlink:href="#DejaVuSans-63"/>
      <use x="264.990234" xlink:href="#DejaVuSans-74"/>
      <use x="304.199219" xlink:href="#DejaVuSans-69"/>
      <use x="331.982422" xlink:href="#DejaVuSans-6f"/>
      <use x="393.164062" xlink:href="#DejaVuSans-6e"/>
      <use x="456.542969" xlink:href="#DejaVuSans-20"/>
      <use x="488.330078" xlink:href="#DejaVuSans-4d"/>
      <use x="574.609375" xlink:href="#DejaVuSans-65"/>
      <use x="636.132812" xlink:href="#DejaVuSans-74"/>
      <use x="675.341797" xlink:href="#DejaVuSans-68"/>
      <use x="738.720703" xlink:href="#DejaVuSans-6f"/>
      <use x="799.902344" xlink:href="#DejaVuSans-64"/>
     </g>
    </g>
    <g id="line2d_33">
     <path d="M 179.915384 125.287188 
L 207.915384 125.287188 
" style="fill:none;stroke:#fc4f30;stroke-width:4;"/>
    </g>
    <g id="line2d_34"/>
    <g id="text_18">
     <!-- Secant Method -->
     <defs>
      <path d="M 53.515625 70.515625 
L 53.515625 60.890625 
Q 47.90625 63.578125 42.921875 64.890625 
Q 37.9375 66.21875 33.296875 66.21875 
Q 25.25 66.21875 20.875 63.09375 
Q 16.5 59.96875 16.5 54.203125 
Q 16.5 49.359375 19.40625 46.890625 
Q 22.3125 44.4375 30.421875 42.921875 
L 36.375 41.703125 
Q 47.40625 39.59375 52.65625 34.296875 
Q 57.90625 29 57.90625 20.125 
Q 57.90625 9.515625 50.796875 4.046875 
Q 43.703125 -1.421875 29.984375 -1.421875 
Q 24.8125 -1.421875 18.96875 -0.25 
Q 13.140625 0.921875 6.890625 3.21875 
L 6.890625 13.375 
Q 12.890625 10.015625 18.65625 8.296875 
Q 24.421875 6.59375 29.984375 6.59375 
Q 38.421875 6.59375 43.015625 9.90625 
Q 47.609375 13.234375 47.609375 19.390625 
Q 47.609375 24.75 44.3125 27.78125 
Q 41.015625 30.8125 33.5 32.328125 
L 27.484375 33.5 
Q 16.453125 35.6875 11.515625 40.375 
Q 6.59375 45.0625 6.59375 53.421875 
Q 6.59375 63.09375 13.40625 68.65625 
Q 20.21875 74.21875 32.171875 74.21875 
Q 37.3125 74.21875 42.625 73.28125 
Q 47.953125 72.359375 53.515625 70.515625 
z
" id="DejaVuSans-53"/>
      <path d="M 34.28125 27.484375 
Q 23.390625 27.484375 19.1875 25 
Q 14.984375 22.515625 14.984375 16.5 
Q 14.984375 11.71875 18.140625 8.90625 
Q 21.296875 6.109375 26.703125 6.109375 
Q 34.1875 6.109375 38.703125 11.40625 
Q 43.21875 16.703125 43.21875 25.484375 
L 43.21875 27.484375 
z
M 52.203125 31.203125 
L 52.203125 0 
L 43.21875 0 
L 43.21875 8.296875 
Q 40.140625 3.328125 35.546875 0.953125 
Q 30.953125 -1.421875 24.3125 -1.421875 
Q 15.921875 -1.421875 10.953125 3.296875 
Q 6 8.015625 6 15.921875 
Q 6 25.140625 12.171875 29.828125 
Q 18.359375 34.515625 30.609375 34.515625 
L 43.21875 34.515625 
L 43.21875 35.40625 
Q 43.21875 41.609375 39.140625 45 
Q 35.0625 48.390625 27.6875 48.390625 
Q 23 48.390625 18.546875 47.265625 
Q 14.109375 46.140625 10.015625 43.890625 
L 10.015625 52.203125 
Q 14.9375 54.109375 19.578125 55.046875 
Q 24.21875 56 28.609375 56 
Q 40.484375 56 46.34375 49.84375 
Q 52.203125 43.703125 52.203125 31.203125 
z
" id="DejaVuSans-61"/>
     </defs>
     <g transform="translate(219.115384 130.187188)scale(0.14 -0.14)">
      <use xlink:href="#DejaVuSans-53"/>
      <use x="63.476562" xlink:href="#DejaVuSans-65"/>
      <use x="125" xlink:href="#DejaVuSans-63"/>
      <use x="179.980469" xlink:href="#DejaVuSans-61"/>
      <use x="241.259766" xlink:href="#DejaVuSans-6e"/>
      <use x="304.638672" xlink:href="#DejaVuSans-74"/>
      <use x="343.847656" xlink:href="#DejaVuSans-20"/>
      <use x="375.634766" xlink:href="#DejaVuSans-4d"/>
      <use x="461.914062" xlink:href="#DejaVuSans-65"/>
      <use x="523.4375" xlink:href="#DejaVuSans-74"/>
      <use x="562.646484" xlink:href="#DejaVuSans-68"/>
      <use x="626.025391" xlink:href="#DejaVuSans-6f"/>
      <use x="687.207031" xlink:href="#DejaVuSans-64"/>
     </g>
    </g>
    <g id="line2d_35">
     <path d="M 179.915384 145.836562 
L 207.915384 145.836562 
" style="fill:none;stroke:#e5ae38;stroke-width:4;"/>
    </g>
    <g id="line2d_36"/>
    <g id="text_19">
     <!-- Newton Method -->
     <defs>
      <path d="M 9.8125 72.90625 
L 23.09375 72.90625 
L 55.421875 11.921875 
L 55.421875 72.90625 
L 64.984375 72.90625 
L 64.984375 0 
L 51.703125 0 
L 19.390625 60.984375 
L 19.390625 0 
L 9.8125 0 
z
" id="DejaVuSans-4e"/>
      <path d="M 4.203125 54.6875 
L 13.1875 54.6875 
L 24.421875 12.015625 
L 35.59375 54.6875 
L 46.1875 54.6875 
L 57.421875 12.015625 
L 68.609375 54.6875 
L 77.59375 54.6875 
L 63.28125 0 
L 52.6875 0 
L 40.921875 44.828125 
L 29.109375 0 
L 18.5 0 
z
" id="DejaVuSans-77"/>
     </defs>
     <g transform="translate(219.115384 150.736562)scale(0.14 -0.14)">
      <use xlink:href="#DejaVuSans-4e"/>
      <use x="74.804688" xlink:href="#DejaVuSans-65"/>
      <use x="136.328125" xlink:href="#DejaVuSans-77"/>
      <use x="218.115234" xlink:href="#DejaVuSans-74"/>
      <use x="257.324219" xlink:href="#DejaVuSans-6f"/>
      <use x="318.505859" xlink:href="#DejaVuSans-6e"/>
      <use x="381.884766" xlink:href="#DejaVuSans-20"/>
      <use x="413.671875" xlink:href="#DejaVuSans-4d"/>
      <use x="499.951172" xlink:href="#DejaVuSans-65"/>
      <use x="561.474609" xlink:href="#DejaVuSans-74"/>
      <use x="600.683594" xlink:href="#DejaVuSans-68"/>
      <use x="664.0625" xlink:href="#DejaVuSans-6f"/>
      <use x="725.244141" xlink:href="#DejaVuSans-64"/>
     </g>
    </g>
    <g id="line2d_37">
     <path d="M 179.915384 166.385938 
L 207.915384 166.385938 
" style="fill:none;stroke:#6d904f;stroke-width:4;"/>
    </g>
    <g id="line2d_38"/>
    <g id="text_20">
     <!-- Brent´s Method -->
     <defs>
      <path d="M 41.109375 46.296875 
Q 39.59375 47.171875 37.8125 47.578125 
Q 36.03125 48 33.890625 48 
Q 26.265625 48 22.1875 43.046875 
Q 18.109375 38.09375 18.109375 28.8125 
L 18.109375 0 
L 9.078125 0 
L 9.078125 54.6875 
L 18.109375 54.6875 
L 18.109375 46.1875 
Q 20.953125 51.171875 25.484375 53.578125 
Q 30.03125 56 36.53125 56 
Q 37.453125 56 38.578125 55.875 
Q 39.703125 55.765625 41.0625 55.515625 
z
" id="DejaVuSans-72"/>
      <path d="M 31.78125 79.984375 
L 41.5 79.984375 
L 25.59375 61.625 
L 18.109375 61.625 
z
" id="DejaVuSans-b4"/>
     </defs>
     <g transform="translate(219.115384 171.285938)scale(0.14 -0.14)">
      <use xlink:href="#DejaVuSans-42"/>
      <use x="68.603516" xlink:href="#DejaVuSans-72"/>
      <use x="109.685547" xlink:href="#DejaVuSans-65"/>
      <use x="171.208984" xlink:href="#DejaVuSans-6e"/>
      <use x="234.587891" xlink:href="#DejaVuSans-74"/>
      <use x="273.796875" xlink:href="#DejaVuSans-b4"/>
      <use x="323.796875" xlink:href="#DejaVuSans-73"/>
      <use x="375.896484" xlink:href="#DejaVuSans-20"/>
      <use x="407.683594" xlink:href="#DejaVuSans-4d"/>
      <use x="493.962891" xlink:href="#DejaVuSans-65"/>
      <use x="555.486328" xlink:href="#DejaVuSans-74"/>
      <use x="594.695312" xlink:href="#DejaVuSans-68"/>
      <use x="658.074219" xlink:href="#DejaVuSans-6f"/>
      <use x="719.255859" xlink:href="#DejaVuSans-64"/>
     </g>
    </g>
   </g>
  </g>
  <g id="axes_2">
   <g id="patch_10">
    <path d="M 519.054545 351.490909 
L 889.2 351.490909 
L 889.2 86.4 
L 519.054545 86.4 
z
" style="fill:#f0f0f0;"/>
   </g>
   <g id="matplotlib.axis_3">
    <g id="xtick_7">
     <g id="line2d_39">
      <path clip-path="url(#pd72f666613)" d="M 535.542506 351.490909 
L 535.542506 86.4 
" style="fill:none;stroke:#cbcbcb;"/>
     </g>
     <g id="line2d_40"/>
     <g id="text_21">
      <!-- 0.00 -->
      <g transform="translate(519.956569 365.628722)scale(0.14 -0.14)">
       <use xlink:href="#DejaVuSans-30"/>
       <use x="63.623047" xlink:href="#DejaVuSans-2e"/>
       <use x="95.410156" xlink:href="#DejaVuSans-30"/>
       <use x="159.033203" xlink:href="#DejaVuSans-30"/>
      </g>
     </g>
    </g>
    <g id="xtick_8">
     <g id="line2d_41">
      <path clip-path="url(#pd72f666613)" d="M 602.909046 351.490909 
L 602.909046 86.4 
" style="fill:none;stroke:#cbcbcb;"/>
     </g>
     <g id="line2d_42"/>
     <g id="text_22">
      <!-- 0.02 -->
      <g transform="translate(587.323109 365.628722)scale(0.14 -0.14)">
       <use xlink:href="#DejaVuSans-30"/>
       <use x="63.623047" xlink:href="#DejaVuSans-2e"/>
       <use x="95.410156" xlink:href="#DejaVuSans-30"/>
       <use x="159.033203" xlink:href="#DejaVuSans-32"/>
      </g>
     </g>
    </g>
    <g id="xtick_9">
     <g id="line2d_43">
      <path clip-path="url(#pd72f666613)" d="M 670.275586 351.490909 
L 670.275586 86.4 
" style="fill:none;stroke:#cbcbcb;"/>
     </g>
     <g id="line2d_44"/>
     <g id="text_23">
      <!-- 0.04 -->
      <g transform="translate(654.689649 365.628722)scale(0.14 -0.14)">
       <use xlink:href="#DejaVuSans-30"/>
       <use x="63.623047" xlink:href="#DejaVuSans-2e"/>
       <use x="95.410156" xlink:href="#DejaVuSans-30"/>
       <use x="159.033203" xlink:href="#DejaVuSans-34"/>
      </g>
     </g>
    </g>
    <g id="xtick_10">
     <g id="line2d_45">
      <path clip-path="url(#pd72f666613)" d="M 737.642126 351.490909 
L 737.642126 86.4 
" style="fill:none;stroke:#cbcbcb;"/>
     </g>
     <g id="line2d_46"/>
     <g id="text_24">
      <!-- 0.06 -->
      <g transform="translate(722.056189 365.628722)scale(0.14 -0.14)">
       <use xlink:href="#DejaVuSans-30"/>
       <use x="63.623047" xlink:href="#DejaVuSans-2e"/>
       <use x="95.410156" xlink:href="#DejaVuSans-30"/>
       <use x="159.033203" xlink:href="#DejaVuSans-36"/>
      </g>
     </g>
    </g>
    <g id="xtick_11">
     <g id="line2d_47">
      <path clip-path="url(#pd72f666613)" d="M 805.008667 351.490909 
L 805.008667 86.4 
" style="fill:none;stroke:#cbcbcb;"/>
     </g>
     <g id="line2d_48"/>
     <g id="text_25">
      <!-- 0.08 -->
      <g transform="translate(789.422729 365.628722)scale(0.14 -0.14)">
       <use xlink:href="#DejaVuSans-30"/>
       <use x="63.623047" xlink:href="#DejaVuSans-2e"/>
       <use x="95.410156" xlink:href="#DejaVuSans-30"/>
       <use x="159.033203" xlink:href="#DejaVuSans-38"/>
      </g>
     </g>
    </g>
    <g id="xtick_12">
     <g id="line2d_49">
      <path clip-path="url(#pd72f666613)" d="M 872.375207 351.490909 
L 872.375207 86.4 
" style="fill:none;stroke:#cbcbcb;"/>
     </g>
     <g id="line2d_50"/>
     <g id="text_26">
      <!-- 0.10 -->
      <g transform="translate(856.789269 365.628722)scale(0.14 -0.14)">
       <use xlink:href="#DejaVuSans-30"/>
       <use x="63.623047" xlink:href="#DejaVuSans-2e"/>
       <use x="95.410156" xlink:href="#DejaVuSans-31"/>
       <use x="159.033203" xlink:href="#DejaVuSans-30"/>
      </g>
     </g>
    </g>
   </g>
   <g id="matplotlib.axis_4">
    <g id="ytick_8">
     <g id="line2d_51">
      <path clip-path="url(#pd72f666613)" d="M 519.054545 302.641811 
L 889.2 302.641811 
" style="fill:none;stroke:#cbcbcb;"/>
     </g>
     <g id="line2d_52"/>
     <g id="text_27">
      <!-- 0.00005 -->
      <g transform="translate(457.66017 307.960717)scale(0.14 -0.14)">
       <use xlink:href="#DejaVuSans-30"/>
       <use x="63.623047" xlink:href="#DejaVuSans-2e"/>
       <use x="95.410156" xlink:href="#DejaVuSans-30"/>
       <use x="159.033203" xlink:href="#DejaVuSans-30"/>
       <use x="222.65625" xlink:href="#DejaVuSans-30"/>
       <use x="286.279297" xlink:href="#DejaVuSans-30"/>
       <use x="349.902344" xlink:href="#DejaVuSans-35"/>
      </g>
     </g>
    </g>
    <g id="ytick_9">
     <g id="line2d_53">
      <path clip-path="url(#pd72f666613)" d="M 519.054545 251.436512 
L 889.2 251.436512 
" style="fill:none;stroke:#cbcbcb;"/>
     </g>
     <g id="line2d_54"/>
     <g id="text_28">
      <!-- 0.00010 -->
      <g transform="translate(457.66017 256.755418)scale(0.14 -0.14)">
       <use xlink:href="#DejaVuSans-30"/>
       <use x="63.623047" xlink:href="#DejaVuSans-2e"/>
       <use x="95.410156" xlink:href="#DejaVuSans-30"/>
       <use x="159.033203" xlink:href="#DejaVuSans-30"/>
       <use x="222.65625" xlink:href="#DejaVuSans-30"/>
       <use x="286.279297" xlink:href="#DejaVuSans-31"/>
       <use x="349.902344" xlink:href="#DejaVuSans-30"/>
      </g>
     </g>
    </g>
    <g id="ytick_10">
     <g id="line2d_55">
      <path clip-path="url(#pd72f666613)" d="M 519.054545 200.231213 
L 889.2 200.231213 
" style="fill:none;stroke:#cbcbcb;"/>
     </g>
     <g id="line2d_56"/>
     <g id="text_29">
      <!-- 0.00015 -->
      <g transform="translate(457.66017 205.550119)scale(0.14 -0.14)">
       <use xlink:href="#DejaVuSans-30"/>
       <use x="63.623047" xlink:href="#DejaVuSans-2e"/>
       <use x="95.410156" xlink:href="#DejaVuSans-30"/>
       <use x="159.033203" xlink:href="#DejaVuSans-30"/>
       <use x="222.65625" xlink:href="#DejaVuSans-30"/>
       <use x="286.279297" xlink:href="#DejaVuSans-31"/>
       <use x="349.902344" xlink:href="#DejaVuSans-35"/>
      </g>
     </g>
    </g>
    <g id="ytick_11">
     <g id="line2d_57">
      <path clip-path="url(#pd72f666613)" d="M 519.054545 149.025914 
L 889.2 149.025914 
" style="fill:none;stroke:#cbcbcb;"/>
     </g>
     <g id="line2d_58"/>
     <g id="text_30">
      <!-- 0.00020 -->
      <g transform="translate(457.66017 154.344821)scale(0.14 -0.14)">
       <use xlink:href="#DejaVuSans-30"/>
       <use x="63.623047" xlink:href="#DejaVuSans-2e"/>
       <use x="95.410156" xlink:href="#DejaVuSans-30"/>
       <use x="159.033203" xlink:href="#DejaVuSans-30"/>
       <use x="222.65625" xlink:href="#DejaVuSans-30"/>
       <use x="286.279297" xlink:href="#DejaVuSans-32"/>
       <use x="349.902344" xlink:href="#DejaVuSans-30"/>
      </g>
     </g>
    </g>
    <g id="ytick_12">
     <g id="line2d_59">
      <path clip-path="url(#pd72f666613)" d="M 519.054545 97.820615 
L 889.2 97.820615 
" style="fill:none;stroke:#cbcbcb;"/>
     </g>
     <g id="line2d_60"/>
     <g id="text_31">
      <!-- 0.00025 -->
      <g transform="translate(457.66017 103.139522)scale(0.14 -0.14)">
       <use xlink:href="#DejaVuSans-30"/>
       <use x="63.623047" xlink:href="#DejaVuSans-2e"/>
       <use x="95.410156" xlink:href="#DejaVuSans-30"/>
       <use x="159.033203" xlink:href="#DejaVuSans-30"/>
       <use x="222.65625" xlink:href="#DejaVuSans-30"/>
       <use x="286.279297" xlink:href="#DejaVuSans-32"/>
       <use x="349.902344" xlink:href="#DejaVuSans-35"/>
      </g>
     </g>
    </g>
   </g>
   <g id="line2d_61">
    <path clip-path="url(#pd72f666613)" d="M 872.375207 335.046336 
L 569.225776 332.116346 
L 538.910833 223.950855 
L 535.879339 301.595609 
" style="fill:none;stroke:#008fd5;stroke-width:4;"/>
   </g>
   <g id="line2d_62">
    <path clip-path="url(#pd72f666613)" d="M 872.375207 251.297435 
L 569.225776 105.042066 
L 538.910833 98.449587 
L 535.879339 240.798302 
" style="fill:none;stroke:#fc4f30;stroke-width:4;"/>
   </g>
   <g id="line2d_63">
    <path clip-path="url(#pd72f666613)" d="M 872.375207 321.861378 
L 569.225776 313.559738 
L 538.910833 276.934854 
L 535.879339 283.527333 
" style="fill:none;stroke:#e5ae38;stroke-width:4;"/>
   </g>
   <g id="line2d_64">
    <path clip-path="url(#pd72f666613)" d="M 872.375207 339.441322 
L 569.225776 334.313839 
L 538.910833 334.80217 
L 535.879339 314.292235 
" style="fill:none;stroke:#6d904f;stroke-width:4;"/>
   </g>
   <g id="patch_11">
    <path d="M 519.054545 351.490909 
L 519.054545 86.4 
" style="fill:none;stroke:#f0f0f0;stroke-linecap:square;stroke-linejoin:miter;stroke-width:3;"/>
   </g>
   <g id="patch_12">
    <path d="M 889.2 351.490909 
L 889.2 86.4 
" style="fill:none;stroke:#f0f0f0;stroke-linecap:square;stroke-linejoin:miter;stroke-width:3;"/>
   </g>
   <g id="patch_13">
    <path d="M 519.054545 351.490909 
L 889.2 351.490909 
" style="fill:none;stroke:#f0f0f0;stroke-linecap:square;stroke-linejoin:miter;stroke-width:3;"/>
   </g>
   <g id="patch_14">
    <path d="M 519.054545 86.4 
L 889.2 86.4 
" style="fill:none;stroke:#f0f0f0;stroke-linecap:square;stroke-linejoin:miter;stroke-width:3;"/>
   </g>
   <g id="text_32">
    <g id="patch_15">
     <path d="M 695.727273 384.971563 
L 712.527273 384.971563 
L 712.527273 363.302188 
L 695.727273 363.302188 
z
" style="fill:#f0f0f0;stroke:#f0f0f0;stroke-linejoin:miter;stroke-width:0.5;"/>
    </g>
    <!-- $\delta$ -->
    <g transform="translate(699.787273 378)scale(0.14 -0.14)">
     <use transform="translate(0 0.78125)" xlink:href="#DejaVuSans-Oblique-3b4"/>
    </g>
   </g>
   <g id="text_33">
    <g id="patch_16">
     <path d="M 455.860142 265.287642 
L 455.860142 204.247642 
L 434.190767 204.247642 
L 434.190767 265.287642 
z
" style="fill:#f0f0f0;stroke:#f0f0f0;stroke-linejoin:miter;stroke-width:0.5;"/>
    </g>
    <!-- $Time [s]$ -->
    <g transform="translate(448.88858 261.227642)rotate(-90)scale(0.14 -0.14)">
     <use transform="translate(0 0.015625)" xlink:href="#DejaVuSans-Oblique-54"/>
     <use transform="translate(61.083984 0.015625)" xlink:href="#DejaVuSans-Oblique-69"/>
     <use transform="translate(88.867188 0.015625)" xlink:href="#DejaVuSans-Oblique-6d"/>
     <use transform="translate(186.279297 0.015625)" xlink:href="#DejaVuSans-Oblique-65"/>
     <use transform="translate(247.802734 0.015625)" xlink:href="#DejaVuSans-5b"/>
     <use transform="translate(286.816406 0.015625)" xlink:href="#DejaVuSans-Oblique-73"/>
     <use transform="translate(338.916016 0.015625)" xlink:href="#DejaVuSans-5d"/>
    </g>
   </g>
   <g id="text_34">
    <!-- $f(x)=x^3-10x^2+5$ -->
    <defs>
     <path d="M 40.578125 39.3125 
Q 47.65625 37.796875 51.625 33 
Q 55.609375 28.21875 55.609375 21.1875 
Q 55.609375 10.40625 48.1875 4.484375 
Q 40.765625 -1.421875 27.09375 -1.421875 
Q 22.515625 -1.421875 17.65625 -0.515625 
Q 12.796875 0.390625 7.625 2.203125 
L 7.625 11.71875 
Q 11.71875 9.328125 16.59375 8.109375 
Q 21.484375 6.890625 26.8125 6.890625 
Q 36.078125 6.890625 40.9375 10.546875 
Q 45.796875 14.203125 45.796875 21.1875 
Q 45.796875 27.640625 41.28125 31.265625 
Q 36.765625 34.90625 28.71875 34.90625 
L 20.21875 34.90625 
L 20.21875 43.015625 
L 29.109375 43.015625 
Q 36.375 43.015625 40.234375 45.921875 
Q 44.09375 48.828125 44.09375 54.296875 
Q 44.09375 59.90625 40.109375 62.90625 
Q 36.140625 65.921875 28.71875 65.921875 
Q 24.65625 65.921875 20.015625 65.03125 
Q 15.375 64.15625 9.8125 62.3125 
L 9.8125 71.09375 
Q 15.4375 72.65625 20.34375 73.4375 
Q 25.25 74.21875 29.59375 74.21875 
Q 40.828125 74.21875 47.359375 69.109375 
Q 53.90625 64.015625 53.90625 55.328125 
Q 53.90625 49.265625 50.4375 45.09375 
Q 46.96875 40.921875 40.578125 39.3125 
z
" id="DejaVuSans-33"/>
     <path d="M 46 62.703125 
L 46 35.5 
L 73.1875 35.5 
L 73.1875 27.203125 
L 46 27.203125 
L 46 0 
L 37.796875 0 
L 37.796875 27.203125 
L 10.59375 27.203125 
L 10.59375 35.5 
L 37.796875 35.5 
L 37.796875 62.703125 
z
" id="DejaVuSans-2b"/>
    </defs>
    <g style="fill:#008000;" transform="translate(593.083636 232.2)scale(0.2 -0.2)">
     <use transform="translate(0 0.765625)" xlink:href="#DejaVuSans-Oblique-66"/>
     <use transform="translate(35.205078 0.765625)" xlink:href="#DejaVuSans-28"/>
     <use transform="translate(74.21875 0.765625)" xlink:href="#DejaVuSans-Oblique-78"/>
     <use transform="translate(133.398438 0.765625)" xlink:href="#DejaVuSans-29"/>
     <use transform="translate(191.894531 0.765625)" xlink:href="#DejaVuSans-3d"/>
     <use transform="translate(295.166016 0.765625)" xlink:href="#DejaVuSans-Oblique-78"/>
     <use transform="translate(358.811849 39.046875)scale(0.7)" xlink:href="#DejaVuSans-33"/>
     <use transform="translate(425.564779 0.765625)" xlink:href="#DejaVuSans-2212"/>
     <use transform="translate(528.836263 0.765625)" xlink:href="#DejaVuSans-31"/>
     <use transform="translate(592.45931 0.765625)" xlink:href="#DejaVuSans-30"/>
     <use transform="translate(656.082357 0.765625)" xlink:href="#DejaVuSans-Oblique-78"/>
     <use transform="translate(719.72819 39.046875)scale(0.7)" xlink:href="#DejaVuSans-32"/>
     <use transform="translate(786.48112 0.765625)" xlink:href="#DejaVuSans-2b"/>
     <use transform="translate(889.752604 0.765625)" xlink:href="#DejaVuSans-35"/>
    </g>
   </g>
   <g id="legend_2">
    <g id="patch_17">
     <path d="M 713.725312 179.7975 
L 879.4 179.7975 
Q 882.2 179.7975 882.2 176.9975 
L 882.2 96.2 
Q 882.2 93.4 879.4 93.4 
L 713.725312 93.4 
Q 710.925312 93.4 710.925312 96.2 
L 710.925312 176.9975 
Q 710.925312 179.7975 713.725312 179.7975 
z
" style="fill:#f0f0f0;opacity:0.8;stroke:#cccccc;stroke-linejoin:miter;stroke-width:0.5;"/>
    </g>
    <g id="line2d_65">
     <path d="M 716.525312 104.737812 
L 744.525312 104.737812 
" style="fill:none;stroke:#008fd5;stroke-width:4;"/>
    </g>
    <g id="line2d_66"/>
    <g id="text_35">
     <!-- Bisection Method -->
     <g transform="translate(755.725312 109.637812)scale(0.14 -0.14)">
      <use xlink:href="#DejaVuSans-42"/>
      <use x="68.603516" xlink:href="#DejaVuSans-69"/>
      <use x="96.386719" xlink:href="#DejaVuSans-73"/>
      <use x="148.486328" xlink:href="#DejaVuSans-65"/>
      <use x="210.009766" xlink:href="#DejaVuSans-63"/>
      <use x="264.990234" xlink:href="#DejaVuSans-74"/>
      <use x="304.199219" xlink:href="#DejaVuSans-69"/>
      <use x="331.982422" xlink:href="#DejaVuSans-6f"/>
      <use x="393.164062" xlink:href="#DejaVuSans-6e"/>
      <use x="456.542969" xlink:href="#DejaVuSans-20"/>
      <use x="488.330078" xlink:href="#DejaVuSans-4d"/>
      <use x="574.609375" xlink:href="#DejaVuSans-65"/>
      <use x="636.132812" xlink:href="#DejaVuSans-74"/>
      <use x="675.341797" xlink:href="#DejaVuSans-68"/>
      <use x="738.720703" xlink:href="#DejaVuSans-6f"/>
      <use x="799.902344" xlink:href="#DejaVuSans-64"/>
     </g>
    </g>
    <g id="line2d_67">
     <path d="M 716.525312 125.287188 
L 744.525312 125.287188 
" style="fill:none;stroke:#fc4f30;stroke-width:4;"/>
    </g>
    <g id="line2d_68"/>
    <g id="text_36">
     <!-- Secant Method -->
     <g transform="translate(755.725312 130.187188)scale(0.14 -0.14)">
      <use xlink:href="#DejaVuSans-53"/>
      <use x="63.476562" xlink:href="#DejaVuSans-65"/>
      <use x="125" xlink:href="#DejaVuSans-63"/>
      <use x="179.980469" xlink:href="#DejaVuSans-61"/>
      <use x="241.259766" xlink:href="#DejaVuSans-6e"/>
      <use x="304.638672" xlink:href="#DejaVuSans-74"/>
      <use x="343.847656" xlink:href="#DejaVuSans-20"/>
      <use x="375.634766" xlink:href="#DejaVuSans-4d"/>
      <use x="461.914062" xlink:href="#DejaVuSans-65"/>
      <use x="523.4375" xlink:href="#DejaVuSans-74"/>
      <use x="562.646484" xlink:href="#DejaVuSans-68"/>
      <use x="626.025391" xlink:href="#DejaVuSans-6f"/>
      <use x="687.207031" xlink:href="#DejaVuSans-64"/>
     </g>
    </g>
    <g id="line2d_69">
     <path d="M 716.525312 145.836562 
L 744.525312 145.836562 
" style="fill:none;stroke:#e5ae38;stroke-width:4;"/>
    </g>
    <g id="line2d_70"/>
    <g id="text_37">
     <!-- Newton Method -->
     <g transform="translate(755.725312 150.736562)scale(0.14 -0.14)">
      <use xlink:href="#DejaVuSans-4e"/>
      <use x="74.804688" xlink:href="#DejaVuSans-65"/>
      <use x="136.328125" xlink:href="#DejaVuSans-77"/>
      <use x="218.115234" xlink:href="#DejaVuSans-74"/>
      <use x="257.324219" xlink:href="#DejaVuSans-6f"/>
      <use x="318.505859" xlink:href="#DejaVuSans-6e"/>
      <use x="381.884766" xlink:href="#DejaVuSans-20"/>
      <use x="413.671875" xlink:href="#DejaVuSans-4d"/>
      <use x="499.951172" xlink:href="#DejaVuSans-65"/>
      <use x="561.474609" xlink:href="#DejaVuSans-74"/>
      <use x="600.683594" xlink:href="#DejaVuSans-68"/>
      <use x="664.0625" xlink:href="#DejaVuSans-6f"/>
      <use x="725.244141" xlink:href="#DejaVuSans-64"/>
     </g>
    </g>
    <g id="line2d_71">
     <path d="M 716.525312 166.385938 
L 744.525312 166.385938 
" style="fill:none;stroke:#6d904f;stroke-width:4;"/>
    </g>
    <g id="line2d_72"/>
    <g id="text_38">
     <!-- Brent´s Method -->
     <g transform="translate(755.725312 171.285938)scale(0.14 -0.14)">
      <use xlink:href="#DejaVuSans-42"/>
      <use x="68.603516" xlink:href="#DejaVuSans-72"/>
      <use x="109.685547" xlink:href="#DejaVuSans-65"/>
      <use x="171.208984" xlink:href="#DejaVuSans-6e"/>
      <use x="234.587891" xlink:href="#DejaVuSans-74"/>
      <use x="273.796875" xlink:href="#DejaVuSans-b4"/>
      <use x="323.796875" xlink:href="#DejaVuSans-73"/>
      <use x="375.896484" xlink:href="#DejaVuSans-20"/>
      <use x="407.683594" xlink:href="#DejaVuSans-4d"/>
      <use x="493.962891" xlink:href="#DejaVuSans-65"/>
      <use x="555.486328" xlink:href="#DejaVuSans-74"/>
      <use x="594.695312" xlink:href="#DejaVuSans-68"/>
      <use x="658.074219" xlink:href="#DejaVuSans-6f"/>
      <use x="719.255859" xlink:href="#DejaVuSans-64"/>
     </g>
    </g>
   </g>
  </g>
  <g id="axes_3">
   <g id="patch_18">
    <path d="M 74.88 669.6 
L 445.025455 669.6 
L 445.025455 404.509091 
L 74.88 404.509091 
z
" style="fill:#f0f0f0;"/>
   </g>
   <g id="matplotlib.axis_5">
    <g id="xtick_13">
     <g id="line2d_73">
      <path clip-path="url(#pcb85c0dacf)" d="M 91.367961 669.6 
L 91.367961 404.509091 
" style="fill:none;stroke:#cbcbcb;"/>
     </g>
     <g id="line2d_74"/>
     <g id="text_39">
      <!-- 0.00 -->
      <g transform="translate(75.782023 683.737812)scale(0.14 -0.14)">
       <use xlink:href="#DejaVuSans-30"/>
       <use x="63.623047" xlink:href="#DejaVuSans-2e"/>
       <use x="95.410156" xlink:href="#DejaVuSans-30"/>
       <use x="159.033203" xlink:href="#DejaVuSans-30"/>
      </g>
     </g>
    </g>
    <g id="xtick_14">
     <g id="line2d_75">
      <path clip-path="url(#pcb85c0dacf)" d="M 158.734501 669.6 
L 158.734501 404.509091 
" style="fill:none;stroke:#cbcbcb;"/>
     </g>
     <g id="line2d_76"/>
     <g id="text_40">
      <!-- 0.02 -->
      <g transform="translate(143.148563 683.737812)scale(0.14 -0.14)">
       <use xlink:href="#DejaVuSans-30"/>
       <use x="63.623047" xlink:href="#DejaVuSans-2e"/>
       <use x="95.410156" xlink:href="#DejaVuSans-30"/>
       <use x="159.033203" xlink:href="#DejaVuSans-32"/>
      </g>
     </g>
    </g>
    <g id="xtick_15">
     <g id="line2d_77">
      <path clip-path="url(#pcb85c0dacf)" d="M 226.101041 669.6 
L 226.101041 404.509091 
" style="fill:none;stroke:#cbcbcb;"/>
     </g>
     <g id="line2d_78"/>
     <g id="text_41">
      <!-- 0.04 -->
      <g transform="translate(210.515103 683.737812)scale(0.14 -0.14)">
       <use xlink:href="#DejaVuSans-30"/>
       <use x="63.623047" xlink:href="#DejaVuSans-2e"/>
       <use x="95.410156" xlink:href="#DejaVuSans-30"/>
       <use x="159.033203" xlink:href="#DejaVuSans-34"/>
      </g>
     </g>
    </g>
    <g id="xtick_16">
     <g id="line2d_79">
      <path clip-path="url(#pcb85c0dacf)" d="M 293.467581 669.6 
L 293.467581 404.509091 
" style="fill:none;stroke:#cbcbcb;"/>
     </g>
     <g id="line2d_80"/>
     <g id="text_42">
      <!-- 0.06 -->
      <g transform="translate(277.881643 683.737812)scale(0.14 -0.14)">
       <use xlink:href="#DejaVuSans-30"/>
       <use x="63.623047" xlink:href="#DejaVuSans-2e"/>
       <use x="95.410156" xlink:href="#DejaVuSans-30"/>
       <use x="159.033203" xlink:href="#DejaVuSans-36"/>
      </g>
     </g>
    </g>
    <g id="xtick_17">
     <g id="line2d_81">
      <path clip-path="url(#pcb85c0dacf)" d="M 360.834121 669.6 
L 360.834121 404.509091 
" style="fill:none;stroke:#cbcbcb;"/>
     </g>
     <g id="line2d_82"/>
     <g id="text_43">
      <!-- 0.08 -->
      <g transform="translate(345.248184 683.737812)scale(0.14 -0.14)">
       <use xlink:href="#DejaVuSans-30"/>
       <use x="63.623047" xlink:href="#DejaVuSans-2e"/>
       <use x="95.410156" xlink:href="#DejaVuSans-30"/>
       <use x="159.033203" xlink:href="#DejaVuSans-38"/>
      </g>
     </g>
    </g>
    <g id="xtick_18">
     <g id="line2d_83">
      <path clip-path="url(#pcb85c0dacf)" d="M 428.200661 669.6 
L 428.200661 404.509091 
" style="fill:none;stroke:#cbcbcb;"/>
     </g>
     <g id="line2d_84"/>
     <g id="text_44">
      <!-- 0.10 -->
      <g transform="translate(412.614724 683.737812)scale(0.14 -0.14)">
       <use xlink:href="#DejaVuSans-30"/>
       <use x="63.623047" xlink:href="#DejaVuSans-2e"/>
       <use x="95.410156" xlink:href="#DejaVuSans-31"/>
       <use x="159.033203" xlink:href="#DejaVuSans-30"/>
      </g>
     </g>
    </g>
   </g>
   <g id="matplotlib.axis_6">
    <g id="ytick_13">
     <g id="line2d_85">
      <path clip-path="url(#pcb85c0dacf)" d="M 74.88 650.307057 
L 445.025455 650.307057 
" style="fill:none;stroke:#cbcbcb;"/>
     </g>
     <g id="line2d_86"/>
     <g id="text_45">
      <!-- 0.00001 -->
      <g transform="translate(13.485625 655.625963)scale(0.14 -0.14)">
       <use xlink:href="#DejaVuSans-30"/>
       <use x="63.623047" xlink:href="#DejaVuSans-2e"/>
       <use x="95.410156" xlink:href="#DejaVuSans-30"/>
       <use x="159.033203" xlink:href="#DejaVuSans-30"/>
       <use x="222.65625" xlink:href="#DejaVuSans-30"/>
       <use x="286.279297" xlink:href="#DejaVuSans-30"/>
       <use x="349.902344" xlink:href="#DejaVuSans-31"/>
      </g>
     </g>
    </g>
    <g id="ytick_14">
     <g id="line2d_87">
      <path clip-path="url(#pcb85c0dacf)" d="M 74.88 606.549802 
L 445.025455 606.549802 
" style="fill:none;stroke:#cbcbcb;"/>
     </g>
     <g id="line2d_88"/>
     <g id="text_46">
      <!-- 0.00002 -->
      <g transform="translate(13.485625 611.868708)scale(0.14 -0.14)">
       <use xlink:href="#DejaVuSans-30"/>
       <use x="63.623047" xlink:href="#DejaVuSans-2e"/>
       <use x="95.410156" xlink:href="#DejaVuSans-30"/>
       <use x="159.033203" xlink:href="#DejaVuSans-30"/>
       <use x="222.65625" xlink:href="#DejaVuSans-30"/>
       <use x="286.279297" xlink:href="#DejaVuSans-30"/>
       <use x="349.902344" xlink:href="#DejaVuSans-32"/>
      </g>
     </g>
    </g>
    <g id="ytick_15">
     <g id="line2d_89">
      <path clip-path="url(#pcb85c0dacf)" d="M 74.88 562.792546 
L 445.025455 562.792546 
" style="fill:none;stroke:#cbcbcb;"/>
     </g>
     <g id="line2d_90"/>
     <g id="text_47">
      <!-- 0.00003 -->
      <g transform="translate(13.485625 568.111453)scale(0.14 -0.14)">
       <use xlink:href="#DejaVuSans-30"/>
       <use x="63.623047" xlink:href="#DejaVuSans-2e"/>
       <use x="95.410156" xlink:href="#DejaVuSans-30"/>
       <use x="159.033203" xlink:href="#DejaVuSans-30"/>
       <use x="222.65625" xlink:href="#DejaVuSans-30"/>
       <use x="286.279297" xlink:href="#DejaVuSans-30"/>
       <use x="349.902344" xlink:href="#DejaVuSans-33"/>
      </g>
     </g>
    </g>
    <g id="ytick_16">
     <g id="line2d_91">
      <path clip-path="url(#pcb85c0dacf)" d="M 74.88 519.035291 
L 445.025455 519.035291 
" style="fill:none;stroke:#cbcbcb;"/>
     </g>
     <g id="line2d_92"/>
     <g id="text_48">
      <!-- 0.00004 -->
      <g transform="translate(13.485625 524.354197)scale(0.14 -0.14)">
       <use xlink:href="#DejaVuSans-30"/>
       <use x="63.623047" xlink:href="#DejaVuSans-2e"/>
       <use x="95.410156" xlink:href="#DejaVuSans-30"/>
       <use x="159.033203" xlink:href="#DejaVuSans-30"/>
       <use x="222.65625" xlink:href="#DejaVuSans-30"/>
       <use x="286.279297" xlink:href="#DejaVuSans-30"/>
       <use x="349.902344" xlink:href="#DejaVuSans-34"/>
      </g>
     </g>
    </g>
    <g id="ytick_17">
     <g id="line2d_93">
      <path clip-path="url(#pcb85c0dacf)" d="M 74.88 475.278035 
L 445.025455 475.278035 
" style="fill:none;stroke:#cbcbcb;"/>
     </g>
     <g id="line2d_94"/>
     <g id="text_49">
      <!-- 0.00005 -->
      <g transform="translate(13.485625 480.596942)scale(0.14 -0.14)">
       <use xlink:href="#DejaVuSans-30"/>
       <use x="63.623047" xlink:href="#DejaVuSans-2e"/>
       <use x="95.410156" xlink:href="#DejaVuSans-30"/>
       <use x="159.033203" xlink:href="#DejaVuSans-30"/>
       <use x="222.65625" xlink:href="#DejaVuSans-30"/>
       <use x="286.279297" xlink:href="#DejaVuSans-30"/>
       <use x="349.902344" xlink:href="#DejaVuSans-35"/>
      </g>
     </g>
    </g>
    <g id="ytick_18">
     <g id="line2d_95">
      <path clip-path="url(#pcb85c0dacf)" d="M 74.88 431.52078 
L 445.025455 431.52078 
" style="fill:none;stroke:#cbcbcb;"/>
     </g>
     <g id="line2d_96"/>
     <g id="text_50">
      <!-- 0.00006 -->
      <g transform="translate(13.485625 436.839686)scale(0.14 -0.14)">
       <use xlink:href="#DejaVuSans-30"/>
       <use x="63.623047" xlink:href="#DejaVuSans-2e"/>
       <use x="95.410156" xlink:href="#DejaVuSans-30"/>
       <use x="159.033203" xlink:href="#DejaVuSans-30"/>
       <use x="222.65625" xlink:href="#DejaVuSans-30"/>
       <use x="286.279297" xlink:href="#DejaVuSans-30"/>
       <use x="349.902344" xlink:href="#DejaVuSans-36"/>
      </g>
     </g>
    </g>
   </g>
   <g id="line2d_97">
    <path clip-path="url(#pcb85c0dacf)" d="M 428.200661 625.209531 
L 125.051231 545.922207 
L 94.736288 488.543222 
L 91.704793 416.558678 
" style="fill:none;stroke:#008fd5;stroke-width:4;"/>
   </g>
   <g id="line2d_98">
    <path clip-path="url(#pcb85c0dacf)" d="M 428.200661 610.603971 
L 125.051231 572.003563 
L 94.736288 539.662681 
L 91.704793 537.576173 
" style="fill:none;stroke:#fc4f30;stroke-width:4;"/>
   </g>
   <g id="line2d_99">
    <path clip-path="url(#pcb85c0dacf)" d="M 428.200661 657.550413 
L 125.051231 634.598819 
L 94.736288 611.647226 
L 91.704793 610.603971 
" style="fill:none;stroke:#e5ae38;stroke-width:4;"/>
   </g>
   <g id="line2d_100">
    <path clip-path="url(#pcb85c0dacf)" d="M 428.200661 572.003563 
L 125.051231 518.797596 
L 94.736288 462.461865 
L 91.704793 459.332103 
" style="fill:none;stroke:#6d904f;stroke-width:4;"/>
   </g>
   <g id="patch_19">
    <path d="M 74.88 669.6 
L 74.88 404.509091 
" style="fill:none;stroke:#f0f0f0;stroke-linecap:square;stroke-linejoin:miter;stroke-width:3;"/>
   </g>
   <g id="patch_20">
    <path d="M 445.025455 669.6 
L 445.025455 404.509091 
" style="fill:none;stroke:#f0f0f0;stroke-linecap:square;stroke-linejoin:miter;stroke-width:3;"/>
   </g>
   <g id="patch_21">
    <path d="M 74.88 669.6 
L 445.025455 669.6 
" style="fill:none;stroke:#f0f0f0;stroke-linecap:square;stroke-linejoin:miter;stroke-width:3;"/>
   </g>
   <g id="patch_22">
    <path d="M 74.88 404.509091 
L 445.025455 404.509091 
" style="fill:none;stroke:#f0f0f0;stroke-linecap:square;stroke-linejoin:miter;stroke-width:3;"/>
   </g>
   <g id="text_51">
    <g id="patch_23">
     <path d="M 251.552727 703.080653 
L 268.352727 703.080653 
L 268.352727 681.411278 
L 251.552727 681.411278 
z
" style="fill:#f0f0f0;stroke:#f0f0f0;stroke-linejoin:miter;stroke-width:0.5;"/>
    </g>
    <!-- $\delta$ -->
    <g transform="translate(255.612727 696.109091)scale(0.14 -0.14)">
     <use transform="translate(0 0.78125)" xlink:href="#DejaVuSans-Oblique-3b4"/>
    </g>
   </g>
   <g id="text_52">
    <g id="patch_24">
     <path d="M 11.685597 583.396733 
L 11.685597 522.356733 
L -9.983778 522.356733 
L -9.983778 583.396733 
z
" style="fill:#f0f0f0;stroke:#f0f0f0;stroke-linejoin:miter;stroke-width:0.5;"/>
    </g>
    <!-- $Time [s]$ -->
    <g transform="translate(4.714034 579.336733)rotate(-90)scale(0.14 -0.14)">
     <use transform="translate(0 0.015625)" xlink:href="#DejaVuSans-Oblique-54"/>
     <use transform="translate(61.083984 0.015625)" xlink:href="#DejaVuSans-Oblique-69"/>
     <use transform="translate(88.867188 0.015625)" xlink:href="#DejaVuSans-Oblique-6d"/>
     <use transform="translate(186.279297 0.015625)" xlink:href="#DejaVuSans-Oblique-65"/>
     <use transform="translate(247.802734 0.015625)" xlink:href="#DejaVuSans-5b"/>
     <use transform="translate(286.816406 0.015625)" xlink:href="#DejaVuSans-Oblique-73"/>
     <use transform="translate(338.916016 0.015625)" xlink:href="#DejaVuSans-5d"/>
    </g>
   </g>
   <g id="text_53">
    <!-- $f(x)=e^{x}sin(x)+4$ -->
    <defs>
     <path d="M 55.71875 33.015625 
L 49.3125 0 
L 40.28125 0 
L 46.6875 32.671875 
Q 47.125 34.96875 47.359375 36.71875 
Q 47.609375 38.484375 47.609375 39.5 
Q 47.609375 43.609375 45.015625 45.890625 
Q 42.4375 48.1875 37.796875 48.1875 
Q 30.5625 48.1875 25.34375 43.375 
Q 20.125 38.578125 18.5 30.328125 
L 12.5 0 
L 3.515625 0 
L 14.109375 54.6875 
L 23.09375 54.6875 
L 21.296875 46.09375 
Q 25.046875 50.828125 30.3125 53.40625 
Q 35.59375 56 41.40625 56 
Q 48.640625 56 52.609375 52.09375 
Q 56.59375 48.1875 56.59375 41.109375 
Q 56.59375 39.359375 56.375 37.359375 
Q 56.15625 35.359375 55.71875 33.015625 
z
" id="DejaVuSans-Oblique-6e"/>
    </defs>
    <g style="fill:#ff00ff;" transform="translate(204.430909 523.8)scale(0.2 -0.2)">
     <use transform="translate(0 0.4375)" xlink:href="#DejaVuSans-Oblique-66"/>
     <use transform="translate(35.205078 0.4375)" xlink:href="#DejaVuSans-28"/>
     <use transform="translate(74.21875 0.4375)" xlink:href="#DejaVuSans-Oblique-78"/>
     <use transform="translate(133.398438 0.4375)" xlink:href="#DejaVuSans-29"/>
     <use transform="translate(191.894531 0.4375)" xlink:href="#DejaVuSans-3d"/>
     <use transform="translate(295.166016 0.4375)" xlink:href="#DejaVuSans-Oblique-65"/>
     <use transform="translate(361.339349 38.71875)scale(0.7)" xlink:href="#DejaVuSans-Oblique-78"/>
     <use transform="translate(405.499505 0.4375)" xlink:href="#DejaVuSans-Oblique-73"/>
     <use transform="translate(457.599115 0.4375)" xlink:href="#DejaVuSans-Oblique-69"/>
     <use transform="translate(485.382318 0.4375)" xlink:href="#DejaVuSans-Oblique-6e"/>
     <use transform="translate(548.761224 0.4375)" xlink:href="#DejaVuSans-28"/>
     <use transform="translate(587.774896 0.4375)" xlink:href="#DejaVuSans-Oblique-78"/>
     <use transform="translate(646.954583 0.4375)" xlink:href="#DejaVuSans-29"/>
     <use transform="translate(705.450677 0.4375)" xlink:href="#DejaVuSans-2b"/>
     <use transform="translate(808.722161 0.4375)" xlink:href="#DejaVuSans-34"/>
    </g>
   </g>
   <g id="legend_3">
    <g id="patch_25">
     <path d="M 269.550767 497.906591 
L 435.225455 497.906591 
Q 438.025455 497.906591 438.025455 495.106591 
L 438.025455 414.309091 
Q 438.025455 411.509091 435.225455 411.509091 
L 269.550767 411.509091 
Q 266.750767 411.509091 266.750767 414.309091 
L 266.750767 495.106591 
Q 266.750767 497.906591 269.550767 497.906591 
z
" style="fill:#f0f0f0;opacity:0.8;stroke:#cccccc;stroke-linejoin:miter;stroke-width:0.5;"/>
    </g>
    <g id="line2d_101">
     <path d="M 272.350767 422.846903 
L 300.350767 422.846903 
" style="fill:none;stroke:#008fd5;stroke-width:4;"/>
    </g>
    <g id="line2d_102"/>
    <g id="text_54">
     <!-- Bisection Method -->
     <g transform="translate(311.550767 427.746903)scale(0.14 -0.14)">
      <use xlink:href="#DejaVuSans-42"/>
      <use x="68.603516" xlink:href="#DejaVuSans-69"/>
      <use x="96.386719" xlink:href="#DejaVuSans-73"/>
      <use x="148.486328" xlink:href="#DejaVuSans-65"/>
      <use x="210.009766" xlink:href="#DejaVuSans-63"/>
      <use x="264.990234" xlink:href="#DejaVuSans-74"/>
      <use x="304.199219" xlink:href="#DejaVuSans-69"/>
      <use x="331.982422" xlink:href="#DejaVuSans-6f"/>
      <use x="393.164062" xlink:href="#DejaVuSans-6e"/>
      <use x="456.542969" xlink:href="#DejaVuSans-20"/>
      <use x="488.330078" xlink:href="#DejaVuSans-4d"/>
      <use x="574.609375" xlink:href="#DejaVuSans-65"/>
      <use x="636.132812" xlink:href="#DejaVuSans-74"/>
      <use x="675.341797" xlink:href="#DejaVuSans-68"/>
      <use x="738.720703" xlink:href="#DejaVuSans-6f"/>
      <use x="799.902344" xlink:href="#DejaVuSans-64"/>
     </g>
    </g>
    <g id="line2d_103">
     <path d="M 272.350767 443.396278 
L 300.350767 443.396278 
" style="fill:none;stroke:#fc4f30;stroke-width:4;"/>
    </g>
    <g id="line2d_104"/>
    <g id="text_55">
     <!-- Secant Method -->
     <g transform="translate(311.550767 448.296278)scale(0.14 -0.14)">
      <use xlink:href="#DejaVuSans-53"/>
      <use x="63.476562" xlink:href="#DejaVuSans-65"/>
      <use x="125" xlink:href="#DejaVuSans-63"/>
      <use x="179.980469" xlink:href="#DejaVuSans-61"/>
      <use x="241.259766" xlink:href="#DejaVuSans-6e"/>
      <use x="304.638672" xlink:href="#DejaVuSans-74"/>
      <use x="343.847656" xlink:href="#DejaVuSans-20"/>
      <use x="375.634766" xlink:href="#DejaVuSans-4d"/>
      <use x="461.914062" xlink:href="#DejaVuSans-65"/>
      <use x="523.4375" xlink:href="#DejaVuSans-74"/>
      <use x="562.646484" xlink:href="#DejaVuSans-68"/>
      <use x="626.025391" xlink:href="#DejaVuSans-6f"/>
      <use x="687.207031" xlink:href="#DejaVuSans-64"/>
     </g>
    </g>
    <g id="line2d_105">
     <path d="M 272.350767 463.945653 
L 300.350767 463.945653 
" style="fill:none;stroke:#e5ae38;stroke-width:4;"/>
    </g>
    <g id="line2d_106"/>
    <g id="text_56">
     <!-- Newton Method -->
     <g transform="translate(311.550767 468.845653)scale(0.14 -0.14)">
      <use xlink:href="#DejaVuSans-4e"/>
      <use x="74.804688" xlink:href="#DejaVuSans-65"/>
      <use x="136.328125" xlink:href="#DejaVuSans-77"/>
      <use x="218.115234" xlink:href="#DejaVuSans-74"/>
      <use x="257.324219" xlink:href="#DejaVuSans-6f"/>
      <use x="318.505859" xlink:href="#DejaVuSans-6e"/>
      <use x="381.884766" xlink:href="#DejaVuSans-20"/>
      <use x="413.671875" xlink:href="#DejaVuSans-4d"/>
      <use x="499.951172" xlink:href="#DejaVuSans-65"/>
      <use x="561.474609" xlink:href="#DejaVuSans-74"/>
      <use x="600.683594" xlink:href="#DejaVuSans-68"/>
      <use x="664.0625" xlink:href="#DejaVuSans-6f"/>
      <use x="725.244141" xlink:href="#DejaVuSans-64"/>
     </g>
    </g>
    <g id="line2d_107">
     <path d="M 272.350767 484.495028 
L 300.350767 484.495028 
" style="fill:none;stroke:#6d904f;stroke-width:4;"/>
    </g>
    <g id="line2d_108"/>
    <g id="text_57">
     <!-- Brent´s Method -->
     <g transform="translate(311.550767 489.395028)scale(0.14 -0.14)">
      <use xlink:href="#DejaVuSans-42"/>
      <use x="68.603516" xlink:href="#DejaVuSans-72"/>
      <use x="109.685547" xlink:href="#DejaVuSans-65"/>
      <use x="171.208984" xlink:href="#DejaVuSans-6e"/>
      <use x="234.587891" xlink:href="#DejaVuSans-74"/>
      <use x="273.796875" xlink:href="#DejaVuSans-b4"/>
      <use x="323.796875" xlink:href="#DejaVuSans-73"/>
      <use x="375.896484" xlink:href="#DejaVuSans-20"/>
      <use x="407.683594" xlink:href="#DejaVuSans-4d"/>
      <use x="493.962891" xlink:href="#DejaVuSans-65"/>
      <use x="555.486328" xlink:href="#DejaVuSans-74"/>
      <use x="594.695312" xlink:href="#DejaVuSans-68"/>
      <use x="658.074219" xlink:href="#DejaVuSans-6f"/>
      <use x="719.255859" xlink:href="#DejaVuSans-64"/>
     </g>
    </g>
   </g>
  </g>
  <g id="axes_4">
   <g id="patch_26">
    <path d="M 519.054545 669.6 
L 889.2 669.6 
L 889.2 404.509091 
L 519.054545 404.509091 
z
" style="fill:#f0f0f0;"/>
   </g>
   <g id="matplotlib.axis_7">
    <g id="xtick_19">
     <g id="line2d_109">
      <path clip-path="url(#p19546273f9)" d="M 535.542506 669.6 
L 535.542506 404.509091 
" style="fill:none;stroke:#cbcbcb;"/>
     </g>
     <g id="line2d_110"/>
     <g id="text_58">
      <!-- 0.00 -->
      <g transform="translate(519.956569 683.737812)scale(0.14 -0.14)">
       <use xlink:href="#DejaVuSans-30"/>
       <use x="63.623047" xlink:href="#DejaVuSans-2e"/>
       <use x="95.410156" xlink:href="#DejaVuSans-30"/>
       <use x="159.033203" xlink:href="#DejaVuSans-30"/>
      </g>
     </g>
    </g>
    <g id="xtick_20">
     <g id="line2d_111">
      <path clip-path="url(#p19546273f9)" d="M 602.909046 669.6 
L 602.909046 404.509091 
" style="fill:none;stroke:#cbcbcb;"/>
     </g>
     <g id="line2d_112"/>
     <g id="text_59">
      <!-- 0.02 -->
      <g transform="translate(587.323109 683.737812)scale(0.14 -0.14)">
       <use xlink:href="#DejaVuSans-30"/>
       <use x="63.623047" xlink:href="#DejaVuSans-2e"/>
       <use x="95.410156" xlink:href="#DejaVuSans-30"/>
       <use x="159.033203" xlink:href="#DejaVuSans-32"/>
      </g>
     </g>
    </g>
    <g id="xtick_21">
     <g id="line2d_113">
      <path clip-path="url(#p19546273f9)" d="M 670.275586 669.6 
L 670.275586 404.509091 
" style="fill:none;stroke:#cbcbcb;"/>
     </g>
     <g id="line2d_114"/>
     <g id="text_60">
      <!-- 0.04 -->
      <g transform="translate(654.689649 683.737812)scale(0.14 -0.14)">
       <use xlink:href="#DejaVuSans-30"/>
       <use x="63.623047" xlink:href="#DejaVuSans-2e"/>
       <use x="95.410156" xlink:href="#DejaVuSans-30"/>
       <use x="159.033203" xlink:href="#DejaVuSans-34"/>
      </g>
     </g>
    </g>
    <g id="xtick_22">
     <g id="line2d_115">
      <path clip-path="url(#p19546273f9)" d="M 737.642126 669.6 
L 737.642126 404.509091 
" style="fill:none;stroke:#cbcbcb;"/>
     </g>
     <g id="line2d_116"/>
     <g id="text_61">
      <!-- 0.06 -->
      <g transform="translate(722.056189 683.737812)scale(0.14 -0.14)">
       <use xlink:href="#DejaVuSans-30"/>
       <use x="63.623047" xlink:href="#DejaVuSans-2e"/>
       <use x="95.410156" xlink:href="#DejaVuSans-30"/>
       <use x="159.033203" xlink:href="#DejaVuSans-36"/>
      </g>
     </g>
    </g>
    <g id="xtick_23">
     <g id="line2d_117">
      <path clip-path="url(#p19546273f9)" d="M 805.008667 669.6 
L 805.008667 404.509091 
" style="fill:none;stroke:#cbcbcb;"/>
     </g>
     <g id="line2d_118"/>
     <g id="text_62">
      <!-- 0.08 -->
      <g transform="translate(789.422729 683.737812)scale(0.14 -0.14)">
       <use xlink:href="#DejaVuSans-30"/>
       <use x="63.623047" xlink:href="#DejaVuSans-2e"/>
       <use x="95.410156" xlink:href="#DejaVuSans-30"/>
       <use x="159.033203" xlink:href="#DejaVuSans-38"/>
      </g>
     </g>
    </g>
    <g id="xtick_24">
     <g id="line2d_119">
      <path clip-path="url(#p19546273f9)" d="M 872.375207 669.6 
L 872.375207 404.509091 
" style="fill:none;stroke:#cbcbcb;"/>
     </g>
     <g id="line2d_120"/>
     <g id="text_63">
      <!-- 0.10 -->
      <g transform="translate(856.789269 683.737812)scale(0.14 -0.14)">
       <use xlink:href="#DejaVuSans-30"/>
       <use x="63.623047" xlink:href="#DejaVuSans-2e"/>
       <use x="95.410156" xlink:href="#DejaVuSans-31"/>
       <use x="159.033203" xlink:href="#DejaVuSans-30"/>
      </g>
     </g>
    </g>
   </g>
   <g id="matplotlib.axis_8">
    <g id="ytick_19">
     <g id="line2d_121">
      <path clip-path="url(#p19546273f9)" d="M 519.054545 661.266791 
L 889.2 661.266791 
" style="fill:none;stroke:#cbcbcb;"/>
     </g>
     <g id="line2d_122"/>
     <g id="text_64">
      <!-- 0.00002 -->
      <g transform="translate(457.66017 666.585697)scale(0.14 -0.14)">
       <use xlink:href="#DejaVuSans-30"/>
       <use x="63.623047" xlink:href="#DejaVuSans-2e"/>
       <use x="95.410156" xlink:href="#DejaVuSans-30"/>
       <use x="159.033203" xlink:href="#DejaVuSans-30"/>
       <use x="222.65625" xlink:href="#DejaVuSans-30"/>
       <use x="286.279297" xlink:href="#DejaVuSans-30"/>
       <use x="349.902344" xlink:href="#DejaVuSans-32"/>
      </g>
     </g>
    </g>
    <g id="ytick_20">
     <g id="line2d_123">
      <path clip-path="url(#p19546273f9)" d="M 519.054545 627.060612 
L 889.2 627.060612 
" style="fill:none;stroke:#cbcbcb;"/>
     </g>
     <g id="line2d_124"/>
     <g id="text_65">
      <!-- 0.00004 -->
      <g transform="translate(457.66017 632.379518)scale(0.14 -0.14)">
       <use xlink:href="#DejaVuSans-30"/>
       <use x="63.623047" xlink:href="#DejaVuSans-2e"/>
       <use x="95.410156" xlink:href="#DejaVuSans-30"/>
       <use x="159.033203" xlink:href="#DejaVuSans-30"/>
       <use x="222.65625" xlink:href="#DejaVuSans-30"/>
       <use x="286.279297" xlink:href="#DejaVuSans-30"/>
       <use x="349.902344" xlink:href="#DejaVuSans-34"/>
      </g>
     </g>
    </g>
    <g id="ytick_21">
     <g id="line2d_125">
      <path clip-path="url(#p19546273f9)" d="M 519.054545 592.854432 
L 889.2 592.854432 
" style="fill:none;stroke:#cbcbcb;"/>
     </g>
     <g id="line2d_126"/>
     <g id="text_66">
      <!-- 0.00006 -->
      <g transform="translate(457.66017 598.173339)scale(0.14 -0.14)">
       <use xlink:href="#DejaVuSans-30"/>
       <use x="63.623047" xlink:href="#DejaVuSans-2e"/>
       <use x="95.410156" xlink:href="#DejaVuSans-30"/>
       <use x="159.033203" xlink:href="#DejaVuSans-30"/>
       <use x="222.65625" xlink:href="#DejaVuSans-30"/>
       <use x="286.279297" xlink:href="#DejaVuSans-30"/>
       <use x="349.902344" xlink:href="#DejaVuSans-36"/>
      </g>
     </g>
    </g>
    <g id="ytick_22">
     <g id="line2d_127">
      <path clip-path="url(#p19546273f9)" d="M 519.054545 558.648253 
L 889.2 558.648253 
" style="fill:none;stroke:#cbcbcb;"/>
     </g>
     <g id="line2d_128"/>
     <g id="text_67">
      <!-- 0.00008 -->
      <g transform="translate(457.66017 563.967159)scale(0.14 -0.14)">
       <use xlink:href="#DejaVuSans-30"/>
       <use x="63.623047" xlink:href="#DejaVuSans-2e"/>
       <use x="95.410156" xlink:href="#DejaVuSans-30"/>
       <use x="159.033203" xlink:href="#DejaVuSans-30"/>
       <use x="222.65625" xlink:href="#DejaVuSans-30"/>
       <use x="286.279297" xlink:href="#DejaVuSans-30"/>
       <use x="349.902344" xlink:href="#DejaVuSans-38"/>
      </g>
     </g>
    </g>
    <g id="ytick_23">
     <g id="line2d_129">
      <path clip-path="url(#p19546273f9)" d="M 519.054545 524.442074 
L 889.2 524.442074 
" style="fill:none;stroke:#cbcbcb;"/>
     </g>
     <g id="line2d_130"/>
     <g id="text_68">
      <!-- 0.00010 -->
      <g transform="translate(457.66017 529.76098)scale(0.14 -0.14)">
       <use xlink:href="#DejaVuSans-30"/>
       <use x="63.623047" xlink:href="#DejaVuSans-2e"/>
       <use x="95.410156" xlink:href="#DejaVuSans-30"/>
       <use x="159.033203" xlink:href="#DejaVuSans-30"/>
       <use x="222.65625" xlink:href="#DejaVuSans-30"/>
       <use x="286.279297" xlink:href="#DejaVuSans-31"/>
       <use x="349.902344" xlink:href="#DejaVuSans-30"/>
      </g>
     </g>
    </g>
    <g id="ytick_24">
     <g id="line2d_131">
      <path clip-path="url(#p19546273f9)" d="M 519.054545 490.235894 
L 889.2 490.235894 
" style="fill:none;stroke:#cbcbcb;"/>
     </g>
     <g id="line2d_132"/>
     <g id="text_69">
      <!-- 0.00012 -->
      <g transform="translate(457.66017 495.554801)scale(0.14 -0.14)">
       <use xlink:href="#DejaVuSans-30"/>
       <use x="63.623047" xlink:href="#DejaVuSans-2e"/>
       <use x="95.410156" xlink:href="#DejaVuSans-30"/>
       <use x="159.033203" xlink:href="#DejaVuSans-30"/>
       <use x="222.65625" xlink:href="#DejaVuSans-30"/>
       <use x="286.279297" xlink:href="#DejaVuSans-31"/>
       <use x="349.902344" xlink:href="#DejaVuSans-32"/>
      </g>
     </g>
    </g>
    <g id="ytick_25">
     <g id="line2d_133">
      <path clip-path="url(#p19546273f9)" d="M 519.054545 456.029715 
L 889.2 456.029715 
" style="fill:none;stroke:#cbcbcb;"/>
     </g>
     <g id="line2d_134"/>
     <g id="text_70">
      <!-- 0.00014 -->
      <g transform="translate(457.66017 461.348621)scale(0.14 -0.14)">
       <use xlink:href="#DejaVuSans-30"/>
       <use x="63.623047" xlink:href="#DejaVuSans-2e"/>
       <use x="95.410156" xlink:href="#DejaVuSans-30"/>
       <use x="159.033203" xlink:href="#DejaVuSans-30"/>
       <use x="222.65625" xlink:href="#DejaVuSans-30"/>
       <use x="286.279297" xlink:href="#DejaVuSans-31"/>
       <use x="349.902344" xlink:href="#DejaVuSans-34"/>
      </g>
     </g>
    </g>
    <g id="ytick_26">
     <g id="line2d_135">
      <path clip-path="url(#p19546273f9)" d="M 519.054545 421.823536 
L 889.2 421.823536 
" style="fill:none;stroke:#cbcbcb;"/>
     </g>
     <g id="line2d_136"/>
     <g id="text_71">
      <!-- 0.00016 -->
      <g transform="translate(457.66017 427.142442)scale(0.14 -0.14)">
       <use xlink:href="#DejaVuSans-30"/>
       <use x="63.623047" xlink:href="#DejaVuSans-2e"/>
       <use x="95.410156" xlink:href="#DejaVuSans-30"/>
       <use x="159.033203" xlink:href="#DejaVuSans-30"/>
       <use x="222.65625" xlink:href="#DejaVuSans-30"/>
       <use x="286.279297" xlink:href="#DejaVuSans-31"/>
       <use x="349.902344" xlink:href="#DejaVuSans-36"/>
      </g>
     </g>
    </g>
   </g>
   <g id="line2d_137">
    <path clip-path="url(#p19546273f9)" d="M 872.375207 655.919335 
L 569.225776 628.598783 
L 538.910833 604.948156 
L 535.879339 542.151663 
" style="fill:none;stroke:#008fd5;stroke-width:4;"/>
   </g>
   <g id="line2d_138">
    <path clip-path="url(#p19546273f9)" d="M 872.375207 576.404296 
L 569.225776 564.171213 
L 538.910833 598.423845 
L 535.879339 416.558678 
" style="fill:none;stroke:#fc4f30;stroke-width:4;"/>
   </g>
   <g id="line2d_139">
    <path clip-path="url(#p19546273f9)" d="M 872.375207 657.550413 
L 569.225776 648.579486 
L 538.910833 651.026102 
L 535.879339 541.336125 
" style="fill:none;stroke:#e5ae38;stroke-width:4;"/>
   </g>
   <g id="line2d_140">
    <path clip-path="url(#p19546273f9)" d="M 872.375207 561.316827 
L 569.225776 518.093267 
L 538.910833 561.724596 
L 535.879339 487.10279 
" style="fill:none;stroke:#6d904f;stroke-width:4;"/>
   </g>
   <g id="patch_27">
    <path d="M 519.054545 669.6 
L 519.054545 404.509091 
" style="fill:none;stroke:#f0f0f0;stroke-linecap:square;stroke-linejoin:miter;stroke-width:3;"/>
   </g>
   <g id="patch_28">
    <path d="M 889.2 669.6 
L 889.2 404.509091 
" style="fill:none;stroke:#f0f0f0;stroke-linecap:square;stroke-linejoin:miter;stroke-width:3;"/>
   </g>
   <g id="patch_29">
    <path d="M 519.054545 669.6 
L 889.2 669.6 
" style="fill:none;stroke:#f0f0f0;stroke-linecap:square;stroke-linejoin:miter;stroke-width:3;"/>
   </g>
   <g id="patch_30">
    <path d="M 519.054545 404.509091 
L 889.2 404.509091 
" style="fill:none;stroke:#f0f0f0;stroke-linecap:square;stroke-linejoin:miter;stroke-width:3;"/>
   </g>
   <g id="text_72">
    <g id="patch_31">
     <path d="M 695.727273 703.080653 
L 712.527273 703.080653 
L 712.527273 681.411278 
L 695.727273 681.411278 
z
" style="fill:#f0f0f0;stroke:#f0f0f0;stroke-linejoin:miter;stroke-width:0.5;"/>
    </g>
    <!-- $\delta$ -->
    <g transform="translate(699.787273 696.109091)scale(0.14 -0.14)">
     <use transform="translate(0 0.78125)" xlink:href="#DejaVuSans-Oblique-3b4"/>
    </g>
   </g>
   <g id="text_73">
    <g id="patch_32">
     <path d="M 455.860142 583.396733 
L 455.860142 522.356733 
L 434.190767 522.356733 
L 434.190767 583.396733 
z
" style="fill:#f0f0f0;stroke:#f0f0f0;stroke-linejoin:miter;stroke-width:0.5;"/>
    </g>
    <!-- $Time [s]$ -->
    <g transform="translate(448.88858 579.336733)rotate(-90)scale(0.14 -0.14)">
     <use transform="translate(0 0.015625)" xlink:href="#DejaVuSans-Oblique-54"/>
     <use transform="translate(61.083984 0.015625)" xlink:href="#DejaVuSans-Oblique-69"/>
     <use transform="translate(88.867188 0.015625)" xlink:href="#DejaVuSans-Oblique-6d"/>
     <use transform="translate(186.279297 0.015625)" xlink:href="#DejaVuSans-Oblique-65"/>
     <use transform="translate(247.802734 0.015625)" xlink:href="#DejaVuSans-5b"/>
     <use transform="translate(286.816406 0.015625)" xlink:href="#DejaVuSans-Oblique-73"/>
     <use transform="translate(338.916016 0.015625)" xlink:href="#DejaVuSans-5d"/>
    </g>
   </g>
   <g id="text_74">
    <!-- $f(x)=cosh(x)cos(x)-1$ -->
    <defs>
     <path d="M 53.609375 52.59375 
L 51.8125 43.703125 
Q 48.578125 46.046875 44.9375 47.21875 
Q 41.3125 48.390625 37.40625 48.390625 
Q 33.109375 48.390625 29.21875 46.875 
Q 25.34375 45.359375 22.703125 42.578125 
Q 18.5 38.328125 16.203125 32.609375 
Q 13.921875 26.90625 13.921875 20.796875 
Q 13.921875 13.421875 17.609375 9.8125 
Q 21.296875 6.203125 28.8125 6.203125 
Q 32.515625 6.203125 36.6875 7.328125 
Q 40.875 8.453125 45.40625 10.6875 
L 43.703125 1.8125 
Q 39.796875 0.203125 35.671875 -0.609375 
Q 31.546875 -1.421875 27.203125 -1.421875 
Q 16.3125 -1.421875 10.453125 4.015625 
Q 4.59375 9.46875 4.59375 19.578125 
Q 4.59375 28.078125 7.640625 35.234375 
Q 10.6875 42.390625 16.703125 48.09375 
Q 20.796875 52 26.3125 54 
Q 31.84375 56 38.375 56 
Q 42.1875 56 45.9375 55.140625 
Q 49.703125 54.296875 53.609375 52.59375 
z
" id="DejaVuSans-Oblique-63"/>
     <path d="M 25.390625 -1.421875 
Q 15.765625 -1.421875 10.171875 4.515625 
Q 4.59375 10.453125 4.59375 20.703125 
Q 4.59375 26.65625 6.515625 32.828125 
Q 8.453125 39.015625 11.53125 43.21875 
Q 16.359375 49.75 22.3125 52.875 
Q 28.265625 56 35.796875 56 
Q 45.125 56 50.859375 50.1875 
Q 56.59375 44.390625 56.59375 35.015625 
Q 56.59375 28.515625 54.6875 22.0625 
Q 52.78125 15.625 49.703125 11.375 
Q 44.921875 4.828125 38.96875 1.703125 
Q 33.015625 -1.421875 25.390625 -1.421875 
z
M 13.921875 21 
Q 13.921875 13.578125 17.015625 9.890625 
Q 20.125 6.203125 26.421875 6.203125 
Q 35.453125 6.203125 41.375 14.078125 
Q 47.3125 21.96875 47.3125 34.078125 
Q 47.3125 41.15625 44.140625 44.765625 
Q 40.96875 48.390625 34.8125 48.390625 
Q 29.734375 48.390625 25.78125 46.015625 
Q 21.828125 43.65625 18.703125 38.8125 
Q 16.40625 35.203125 15.15625 30.5625 
Q 13.921875 25.921875 13.921875 21 
z
" id="DejaVuSans-Oblique-6f"/>
     <path d="M 55.71875 33.015625 
L 49.3125 0 
L 40.28125 0 
L 46.6875 32.671875 
Q 47.125 34.96875 47.359375 36.71875 
Q 47.609375 38.484375 47.609375 39.5 
Q 47.609375 43.609375 45.015625 45.890625 
Q 42.4375 48.1875 37.796875 48.1875 
Q 30.5625 48.1875 25.265625 43.296875 
Q 19.96875 38.421875 18.40625 30.328125 
L 12.5 0 
L 3.515625 0 
L 18.3125 75.984375 
L 27.296875 75.984375 
L 21.484375 46.09375 
Q 24.90625 50.6875 30.21875 53.34375 
Q 35.546875 56 41.40625 56 
Q 48.640625 56 52.609375 52.09375 
Q 56.59375 48.1875 56.59375 41.109375 
Q 56.59375 39.359375 56.375 37.359375 
Q 56.15625 35.359375 55.71875 33.015625 
z
" id="DejaVuSans-Oblique-68"/>
    </defs>
    <g style="fill:#0000ff;" transform="translate(593.083636 616.581818)scale(0.2 -0.2)">
     <use transform="translate(0 0.015625)" xlink:href="#DejaVuSans-Oblique-66"/>
     <use transform="translate(35.205078 0.015625)" xlink:href="#DejaVuSans-28"/>
     <use transform="translate(74.21875 0.015625)" xlink:href="#DejaVuSans-Oblique-78"/>
     <use transform="translate(133.398438 0.015625)" xlink:href="#DejaVuSans-29"/>
     <use transform="translate(191.894531 0.015625)" xlink:href="#DejaVuSans-3d"/>
     <use transform="translate(295.166016 0.015625)" xlink:href="#DejaVuSans-Oblique-63"/>
     <use transform="translate(350.146484 0.015625)" xlink:href="#DejaVuSans-Oblique-6f"/>
     <use transform="translate(411.328125 0.015625)" xlink:href="#DejaVuSans-Oblique-73"/>
     <use transform="translate(463.427734 0.015625)" xlink:href="#DejaVuSans-Oblique-68"/>
     <use transform="translate(526.806641 0.015625)" xlink:href="#DejaVuSans-28"/>
     <use transform="translate(565.820312 0.015625)" xlink:href="#DejaVuSans-Oblique-78"/>
     <use transform="translate(625 0.015625)" xlink:href="#DejaVuSans-29"/>
     <use transform="translate(664.013672 0.015625)" xlink:href="#DejaVuSans-Oblique-63"/>
     <use transform="translate(718.994141 0.015625)" xlink:href="#DejaVuSans-Oblique-6f"/>
     <use transform="translate(780.175781 0.015625)" xlink:href="#DejaVuSans-Oblique-73"/>
     <use transform="translate(832.275391 0.015625)" xlink:href="#DejaVuSans-28"/>
     <use transform="translate(871.289062 0.015625)" xlink:href="#DejaVuSans-Oblique-78"/>
     <use transform="translate(930.46875 0.015625)" xlink:href="#DejaVuSans-29"/>
     <use transform="translate(988.964844 0.015625)" xlink:href="#DejaVuSans-2212"/>
     <use transform="translate(1092.236328 0.015625)" xlink:href="#DejaVuSans-31"/>
    </g>
   </g>
   <g id="legend_4">
    <g id="patch_33">
     <path d="M 713.725312 497.906591 
L 879.4 497.906591 
Q 882.2 497.906591 882.2 495.106591 
L 882.2 414.309091 
Q 882.2 411.509091 879.4 411.509091 
L 713.725312 411.509091 
Q 710.925312 411.509091 710.925312 414.309091 
L 710.925312 495.106591 
Q 710.925312 497.906591 713.725312 497.906591 
z
" style="fill:#f0f0f0;opacity:0.8;stroke:#cccccc;stroke-linejoin:miter;stroke-width:0.5;"/>
    </g>
    <g id="line2d_141">
     <path d="M 716.525312 422.846903 
L 744.525312 422.846903 
" style="fill:none;stroke:#008fd5;stroke-width:4;"/>
    </g>
    <g id="line2d_142"/>
    <g id="text_75">
     <!-- Bisection Method -->
     <g transform="translate(755.725312 427.746903)scale(0.14 -0.14)">
      <use xlink:href="#DejaVuSans-42"/>
      <use x="68.603516" xlink:href="#DejaVuSans-69"/>
      <use x="96.386719" xlink:href="#DejaVuSans-73"/>
      <use x="148.486328" xlink:href="#DejaVuSans-65"/>
      <use x="210.009766" xlink:href="#DejaVuSans-63"/>
      <use x="264.990234" xlink:href="#DejaVuSans-74"/>
      <use x="304.199219" xlink:href="#DejaVuSans-69"/>
      <use x="331.982422" xlink:href="#DejaVuSans-6f"/>
      <use x="393.164062" xlink:href="#DejaVuSans-6e"/>
      <use x="456.542969" xlink:href="#DejaVuSans-20"/>
      <use x="488.330078" xlink:href="#DejaVuSans-4d"/>
      <use x="574.609375" xlink:href="#DejaVuSans-65"/>
      <use x="636.132812" xlink:href="#DejaVuSans-74"/>
      <use x="675.341797" xlink:href="#DejaVuSans-68"/>
      <use x="738.720703" xlink:href="#DejaVuSans-6f"/>
      <use x="799.902344" xlink:href="#DejaVuSans-64"/>
     </g>
    </g>
    <g id="line2d_143">
     <path d="M 716.525312 443.396278 
L 744.525312 443.396278 
" style="fill:none;stroke:#fc4f30;stroke-width:4;"/>
    </g>
    <g id="line2d_144"/>
    <g id="text_76">
     <!-- Secant Method -->
     <g transform="translate(755.725312 448.296278)scale(0.14 -0.14)">
      <use xlink:href="#DejaVuSans-53"/>
      <use x="63.476562" xlink:href="#DejaVuSans-65"/>
      <use x="125" xlink:href="#DejaVuSans-63"/>
      <use x="179.980469" xlink:href="#DejaVuSans-61"/>
      <use x="241.259766" xlink:href="#DejaVuSans-6e"/>
      <use x="304.638672" xlink:href="#DejaVuSans-74"/>
      <use x="343.847656" xlink:href="#DejaVuSans-20"/>
      <use x="375.634766" xlink:href="#DejaVuSans-4d"/>
      <use x="461.914062" xlink:href="#DejaVuSans-65"/>
      <use x="523.4375" xlink:href="#DejaVuSans-74"/>
      <use x="562.646484" xlink:href="#DejaVuSans-68"/>
      <use x="626.025391" xlink:href="#DejaVuSans-6f"/>
      <use x="687.207031" xlink:href="#DejaVuSans-64"/>
     </g>
    </g>
    <g id="line2d_145">
     <path d="M 716.525312 463.945653 
L 744.525312 463.945653 
" style="fill:none;stroke:#e5ae38;stroke-width:4;"/>
    </g>
    <g id="line2d_146"/>
    <g id="text_77">
     <!-- Newton Method -->
     <g transform="translate(755.725312 468.845653)scale(0.14 -0.14)">
      <use xlink:href="#DejaVuSans-4e"/>
      <use x="74.804688" xlink:href="#DejaVuSans-65"/>
      <use x="136.328125" xlink:href="#DejaVuSans-77"/>
      <use x="218.115234" xlink:href="#DejaVuSans-74"/>
      <use x="257.324219" xlink:href="#DejaVuSans-6f"/>
      <use x="318.505859" xlink:href="#DejaVuSans-6e"/>
      <use x="381.884766" xlink:href="#DejaVuSans-20"/>
      <use x="413.671875" xlink:href="#DejaVuSans-4d"/>
      <use x="499.951172" xlink:href="#DejaVuSans-65"/>
      <use x="561.474609" xlink:href="#DejaVuSans-74"/>
      <use x="600.683594" xlink:href="#DejaVuSans-68"/>
      <use x="664.0625" xlink:href="#DejaVuSans-6f"/>
      <use x="725.244141" xlink:href="#DejaVuSans-64"/>
     </g>
    </g>
    <g id="line2d_147">
     <path d="M 716.525312 484.495028 
L 744.525312 484.495028 
" style="fill:none;stroke:#6d904f;stroke-width:4;"/>
    </g>
    <g id="line2d_148"/>
    <g id="text_78">
     <!-- Brent´s Method -->
     <g transform="translate(755.725312 489.395028)scale(0.14 -0.14)">
      <use xlink:href="#DejaVuSans-42"/>
      <use x="68.603516" xlink:href="#DejaVuSans-72"/>
      <use x="109.685547" xlink:href="#DejaVuSans-65"/>
      <use x="171.208984" xlink:href="#DejaVuSans-6e"/>
      <use x="234.587891" xlink:href="#DejaVuSans-74"/>
      <use x="273.796875" xlink:href="#DejaVuSans-b4"/>
      <use x="323.796875" xlink:href="#DejaVuSans-73"/>
      <use x="375.896484" xlink:href="#DejaVuSans-20"/>
      <use x="407.683594" xlink:href="#DejaVuSans-4d"/>
      <use x="493.962891" xlink:href="#DejaVuSans-65"/>
      <use x="555.486328" xlink:href="#DejaVuSans-74"/>
      <use x="594.695312" xlink:href="#DejaVuSans-68"/>
      <use x="658.074219" xlink:href="#DejaVuSans-6f"/>
      <use x="719.255859" xlink:href="#DejaVuSans-64"/>
     </g>
    </g>
   </g>
  </g>
 </g>
 <defs>
  <clipPath id="pc3e7e7ee46">
   <rect height="265.090909" width="370.145455" x="74.88" y="86.4"/>
  </clipPath>
  <clipPath id="pd72f666613">
   <rect height="265.090909" width="370.145455" x="519.054545" y="86.4"/>
  </clipPath>
  <clipPath id="pcb85c0dacf">
   <rect height="265.090909" width="370.145455" x="74.88" y="404.509091"/>
  </clipPath>
  <clipPath id="p19546273f9">
   <rect height="265.090909" width="370.145455" x="519.054545" y="404.509091"/>
  </clipPath>
 </defs>
</svg>
